<svg width="36" height="22" viewBox="0 0 36 22" fill="none" xmlns="http://www.w3.org/2000/svg">
<path d="M31.1276 16.3299V12.0633H35.3327V8.86458H31.1276V4.59791H27.9764V8.86458H23.7731V12.0633H27.9764V16.3299H31.1276ZM11.1735 4.4816C13.1406 4.4816 14.4653 5.33458 15.2188 6.06067L18.2086 3.11753C16.389 1.39042 14.0156 0.333008 11.1735 0.333008C5.37806 0.331246 0.666016 5.11076 0.666016 10.9988C0.666016 16.8868 5.37806 21.6663 11.1735 21.6663C17.238 21.6663 21.2643 17.3362 21.2643 11.2455C21.2643 10.3591 21.1532 9.7299 20.9986 9.0602H11.1683V13.0361H16.9533C16.679 14.7121 15.198 17.5407 11.1735 17.5407C7.69588 17.5407 4.85893 14.6063 4.85893 11.0129C4.85893 7.41416 7.69588 4.4816 11.1735 4.4816Z" fill="black"/>
</svg>
