<svg width="22" height="22" viewBox="0 0 22 22" fill="none" xmlns="http://www.w3.org/2000/svg">
<path d="M11.7324 15.4001H13.1991M18.3324 12.4667V11.0001C18.3324 10.6111 18.1779 10.238 17.9028 9.96297C17.6278 9.68792 17.2547 9.5334 16.8658 9.5334H2.19909C1.8101 9.5334 1.43705 9.68792 1.162 9.96297C0.886945 10.238 0.732422 10.6111 0.732422 11.0001V19.8001C0.732422 20.189 0.886945 20.5621 1.162 20.8372C1.43705 21.1122 1.8101 21.2667 2.19909 21.2667H16.8658C17.2547 21.2667 17.6278 21.1122 17.9028 20.8372C18.1779 20.5621 18.3324 20.189 18.3324 19.8001V18.3334V12.4667ZM18.3324 12.4667H12.4658C11.6878 12.4667 10.9417 12.7758 10.3916 13.3259C9.84147 13.876 9.53242 14.6221 9.53242 15.4001C9.53242 16.178 9.84147 16.9241 10.3916 17.4742C10.9417 18.0244 11.6878 18.3334 12.4658 18.3334H18.3324V12.4667ZM18.3324 12.4667C19.1104 12.4667 19.8565 12.7758 20.4066 13.3259C20.9567 13.876 21.2658 14.6221 21.2658 15.4001C21.2658 16.178 20.9567 16.9241 20.4066 17.4742C19.8565 18.0244 19.1104 18.3334 18.3324 18.3334V12.4667ZM5.13242 9.5334V5.1334C5.13242 3.96645 5.59599 2.84729 6.42115 2.02213C7.24631 1.19697 8.36547 0.733398 9.53242 0.733398C10.6994 0.733398 11.8185 1.19697 12.6437 2.02213C13.4689 2.84729 13.9324 3.96645 13.9324 5.1334V9.5334H5.13242ZM17.5991 15.4001H19.0658H17.5991ZM14.6658 15.4001H16.1324H14.6658Z" stroke="#ACACAC"/>
</svg>
