<svg width="135" height="131" viewBox="0 0 135 131" fill="none" xmlns="http://www.w3.org/2000/svg">
<rect width="36" height="36" transform="translate(0.5 0.787109)" fill="#D6D6D6"/>
<rect width="30" height="30" transform="translate(3.5 3.78711)" fill="white"/>
<rect width="36" height="36" transform="translate(49.5 0.787109)" fill="#D6D6D6"/>
<rect width="30" height="30" transform="translate(52.5 3.78711)" fill="#2F855A"/>
<path d="M63.5933 21.0997L60.0511 16.2247L56.5 19.4007L61.8094 26.7871L78.5 12.878L74.5728 9.78711L63.5933 21.0997Z" fill="white"/>
<rect width="36" height="36" transform="translate(98.5 0.787109)" fill="#D6D6D6"/>
<rect width="30" height="30" transform="translate(101.5 3.78711)" fill="white"/>
<path d="M45.6467 76.042L43.019 76.3286C43.019 76.3286 41.8512 81.4892 43.019 88.3699C44.1869 95.2506 45.6467 102.131 45.6467 102.131C45.6467 102.131 46.8145 124.494 47.3984 124.78C47.9824 125.067 53.2377 126.787 53.5296 125.067C53.8216 123.347 53.8216 84.0694 53.8216 84.0694L57.909 102.991C57.909 102.991 58.4929 126.787 59.6608 126.787C60.8286 126.787 64.6241 126.5 64.6241 124.494C64.6241 122.487 65.5 96.1107 65.5 96.1107C65.5 96.1107 65.208 76.6153 64.0402 76.042C62.8724 75.4686 45.6467 76.042 45.6467 76.042Z" fill="#2F2E41"/>
<path d="M47.696 124.906C47.696 124.906 44.9468 124.639 44.3359 124.906C43.7249 125.173 42.8085 127.045 44.3359 128.114C45.8632 129.183 49.8343 130.787 51.0562 130.787C52.2781 130.787 53.5 130.252 53.5 130.252L52.8891 125.708L47.696 124.906Z" fill="#22543D"/>
<path d="M59.5 125.744L59.7882 129.546C59.7882 129.546 63.5352 130.089 63.8234 129.546C64.1116 129.003 66.9939 127.645 67.2821 127.373C67.5703 127.101 67.8586 124.114 66.1292 123.843C64.3999 123.571 63.8234 124.386 63.8234 124.386L59.5 125.744Z" fill="#22543D"/>
<path d="M65.7141 41.7871C65.7141 41.7871 71.6347 37.6737 71.4977 34.8477C71.3606 32.0217 67.7914 23.1113 67.7914 23.1113C67.7914 23.1113 64.9993 16.8394 63.8893 19.4026C62.7792 21.9657 65.3482 24.6942 65.3482 24.6942L67.0063 33.435L62.5 38.0795L65.7141 41.7871Z" fill="#A0616A"/>
<path d="M50 35.7871C53.0376 35.7871 55.5 33.5485 55.5 30.7871C55.5 28.0257 53.0376 25.7871 50 25.7871C46.9624 25.7871 44.5 28.0257 44.5 30.7871C44.5 33.5485 46.9624 35.7871 50 35.7871Z" fill="#A0616A"/>
<path d="M47.5 34.5345L48.34 39.7871L54.5 38.6813C54.5 38.6813 54.22 33.4287 54.22 32.8758C54.22 32.3229 47.5 34.5345 47.5 34.5345Z" fill="#A0616A"/>
<path d="M47.2673 39.0934C47.2673 39.0934 54.4593 37.3154 55.3223 37.9081C56.1854 38.5008 60.5005 39.0934 60.5005 39.0934L65.3911 46.7984L63.9527 56.5777C63.9527 56.5777 63.665 72.2839 64.2403 74.951C64.8157 77.6181 67.9802 77.9145 61.3636 78.5072C54.747 79.0998 53.5963 78.2108 48.9934 79.3962C44.3905 80.5816 40.6507 78.8035 41.8014 77.6181C42.9521 76.4328 44.9659 57.4668 42.6645 55.6887C40.363 53.9106 39.5 44.724 39.5 44.724C39.5 44.724 47.2673 40.5752 47.2673 39.0934Z" fill="#2F855A"/>
<path d="M59.5 40.3585L60.3715 39.5014L62.1146 37.7871C62.1146 37.7871 67.7797 40.2157 67.4892 41.0728C67.1987 41.93 65.3103 46.93 65.3103 46.93L62.6957 47.7871L59.5 40.3585Z" fill="#2F855A"/>
<path d="M51.8965 25.0992L51.8424 24.6923C51.4839 24.6903 51.1274 24.7442 50.7868 24.852C50.7519 24.6066 50.7742 24.3568 50.8519 24.1207C50.5058 24.2064 50.176 24.3445 49.8748 24.5298L49.6617 23.7871L46.7322 25.1776C45.6807 25.6768 44.572 26.2253 43.9709 27.1947C43.3007 28.2754 43.4173 29.6644 43.8754 30.8433C44.3336 32.0223 45.0948 33.0656 45.705 34.1788C45.9367 34.6574 46.2151 35.1138 46.5365 35.5418C47.6422 36.8694 49.7947 37.1376 51.3537 36.3363C51.9291 36.0406 52.4519 35.5986 52.6886 35.0133C52.8301 34.6633 52.8625 34.2825 52.9552 33.9177C53.1481 33.159 53.372 31.5929 54.0118 31.113C54.2933 30.9018 54.8515 31.6019 55.0848 31.3418C55.6844 30.6735 55.5585 29.6428 55.1862 28.8355C54.8287 28.0248 54.411 27.2401 53.9362 26.4873C53.735 26.1847 51.89 25.0504 51.8965 25.0992Z" fill="#2F2E41"/>
<path d="M34.8484 51.7871C34.8484 51.7871 27.6817 58.3711 28.5775 61.8062C29.4733 65.2413 36.6401 75.2604 36.6401 75.2604C36.6401 75.2604 43.5082 78.6955 44.4041 75.2604C45.2999 71.8253 39.6262 72.6841 39.6262 72.6841L35.147 62.3787L40.2235 55.5085L34.8484 51.7871Z" fill="#A0616A"/>
<path d="M42.4189 45.3918L39.1757 44.7871C39.1757 44.7871 36.7432 47.8104 35.9324 49.0197C35.1216 50.229 33.5 53.2522 33.5 53.2522L39.1757 57.7871L43.5 52.6476L42.4189 45.3918Z" fill="#2F855A"/>
</svg>
