<svg width="111" height="131" viewBox="0 0 111 131" fill="none" xmlns="http://www.w3.org/2000/svg">
<rect x="3.65625" y="0.501953" width="70.8901" height="41.2801" rx="1" fill="white"/>
<path d="M73.2263 0.501953H4.79762C4.47175 0.502425 4.15937 0.627227 3.92894 0.849004C3.69852 1.07078 3.56885 1.37144 3.56836 1.68508V40.5969C3.56885 40.9105 3.69852 41.2112 3.92894 41.433C4.15937 41.6548 4.47175 41.7796 4.79762 41.78H73.2263C73.5522 41.7796 73.8646 41.6548 74.095 41.433C74.3254 41.2112 74.4551 40.9105 74.4556 40.5969V1.68508C74.4551 1.37144 74.3254 1.07078 74.095 0.849004C73.8646 0.627227 73.5522 0.502425 73.2263 0.501953ZM74.1824 40.5969C74.1822 40.8409 74.0813 41.0748 73.9021 41.2473C73.7228 41.4198 73.4798 41.5168 73.2263 41.5171H4.79762C4.54413 41.5168 4.30111 41.4198 4.12187 41.2473C3.94263 41.0748 3.84181 40.8409 3.84153 40.5969V1.68508C3.84181 1.44111 3.94263 1.20721 4.12187 1.03469C4.30111 0.862178 4.54413 0.765141 4.79762 0.764871H73.2263C73.4798 0.765141 73.7228 0.862178 73.9021 1.03469C74.0813 1.20721 74.1822 1.44111 74.1824 1.68508V40.5969Z" fill="#3F3D56"/>
<path d="M73.6974 4.88672H3.56836V5.25201H73.6974V4.88672Z" fill="#3F3D56"/>
<path d="M55.0907 57.4875H21.7964C21.4863 57.4872 21.1891 57.3689 20.9699 57.1587C20.7506 56.9485 20.6273 56.6635 20.627 56.3663V20.6183C20.6273 20.321 20.7506 20.036 20.9699 19.8258C21.1891 19.6156 21.4863 19.4974 21.7964 19.4971H55.0907C55.4007 19.4974 55.698 19.6156 55.9172 19.8258C56.1364 20.036 56.2598 20.321 56.2601 20.6183V56.3663C56.2598 56.6635 56.1364 56.9485 55.9172 57.1587C55.698 57.3689 55.4007 57.4872 55.0907 57.4875Z" fill="#2F855A"/>
<path d="M48.1124 37.7613H28.7728C28.3212 37.7613 27.8882 37.5881 27.5689 37.2798C27.2497 36.9715 27.0703 36.5534 27.0703 36.1174C27.0703 35.6815 27.2497 35.2634 27.5689 34.9551C27.8882 34.6468 28.3212 34.4736 28.7728 34.4736H48.1124C48.564 34.4736 48.997 34.6468 49.3162 34.9551C49.6355 35.2634 49.8149 35.6815 49.8149 36.1174C49.8149 36.5534 49.6355 36.9715 49.3162 37.2798C48.997 37.5881 48.564 37.7613 48.1124 37.7613Z" fill="white"/>
<path d="M48.1124 43.9722H28.7728C28.3212 43.9722 27.8882 43.799 27.5689 43.4907C27.2497 43.1825 27.0703 42.7644 27.0703 42.3284C27.0703 41.8924 27.2497 41.4743 27.5689 41.166C27.8882 40.8578 28.3212 40.6846 28.7728 40.6846H48.1124C48.564 40.6846 48.997 40.8578 49.3162 41.166C49.6355 41.4743 49.8149 41.8924 49.8149 42.3284C49.8149 42.7644 49.6355 43.1825 49.3162 43.4907C48.997 43.799 48.564 43.9722 48.1124 43.9722Z" fill="white"/>
<path d="M48.1124 50.1812H28.7728C28.3212 50.1812 27.8882 50.008 27.5689 49.6997C27.2497 49.3915 27.0703 48.9733 27.0703 48.5374C27.0703 48.1014 27.2497 47.6833 27.5689 47.375C27.8882 47.0667 28.3212 46.8936 28.7728 46.8936H48.1124C48.564 46.8936 48.997 47.0667 49.3162 47.375C49.6355 47.6833 49.8149 48.1014 49.8149 48.5374C49.8149 48.9733 49.6355 49.3915 49.3162 49.6997C48.997 50.008 48.564 50.1812 48.1124 50.1812Z" fill="white"/>
<path d="M42.0924 29.7261H34.7952C34.3553 29.7261 33.9335 29.5721 33.6225 29.2981C33.3114 29.0241 33.1367 28.6524 33.1367 28.2649C33.1367 27.8774 33.3114 27.5057 33.6225 27.2317C33.9335 26.9577 34.3553 26.8037 34.7952 26.8037H42.0924C42.5322 26.8037 42.9541 26.9577 43.2651 27.2317C43.5761 27.5057 43.7509 27.8774 43.7509 28.2649C43.7509 28.6524 43.5761 29.0241 43.2651 29.2981C42.9541 29.5721 42.5322 29.7261 42.0924 29.7261Z" fill="white"/>
<path d="M66.5859 9.63477H10.6787C9.89182 9.63477 9.25391 10.289 9.25391 11.0959V11.0959C9.25391 11.9029 9.89182 12.5571 10.6787 12.5571H66.5859C67.3728 12.5571 68.0107 11.9029 68.0107 11.0959C68.0107 10.289 67.3728 9.63477 66.5859 9.63477Z" fill="#CCCCCC"/>
<path d="M102.094 93.3525C102.465 93.1724 102.791 92.915 103.049 92.5985C103.307 92.282 103.49 91.9142 103.587 91.5209C103.684 91.1276 103.691 90.7184 103.608 90.3221C103.525 89.9259 103.354 89.5521 103.107 89.2273L109.71 53.549L103.548 53.4697L98.9629 88.7509C98.4315 89.192 98.0842 89.808 97.9869 90.4823C97.8895 91.1566 98.049 91.8423 98.4349 92.4095C98.8208 92.9767 99.4064 93.386 100.081 93.5598C100.755 93.7336 101.471 93.6599 102.094 93.3525H102.094Z" fill="#FBBEBE"/>
<path d="M82.9278 91.4609L80.5195 102.408L80.8206 126.894H85.336L87.4432 102.984L90.7546 92.9013L82.9278 91.4609Z" fill="#FBBEBE"/>
<path d="M97.334 91.4609L94.9258 102.408L95.2268 126.894H99.7423L101.849 102.984L105.161 92.9013L97.334 91.4609Z" fill="#FBBEBE"/>
<path d="M79.2663 125.962L86.2471 126.267L86.0475 130.503L74.6716 130.005C74.6978 129.449 74.8374 128.903 75.0825 128.399C75.3276 127.895 75.6733 127.442 76.1 127.066C76.5267 126.691 77.0259 126.4 77.5692 126.211C78.1124 126.021 78.6892 125.937 79.2663 125.962Z" fill="#2F2E41"/>
<path d="M94.0456 125.962L101.026 126.267L100.827 130.503L89.4509 130.005C89.4771 129.449 89.6167 128.903 89.8618 128.399C90.1069 127.895 90.4526 127.442 90.8793 127.066C91.306 126.691 91.8052 126.4 92.3485 126.211C92.8917 126.021 93.4684 125.937 94.0456 125.962Z" fill="#2F2E41"/>
<path d="M93.4095 38.4924C97.3873 38.4924 100.612 35.3851 100.612 31.5519C100.612 27.7187 97.3873 24.6113 93.4095 24.6113C89.4317 24.6113 86.207 27.7187 86.207 31.5519C86.207 35.3851 89.4317 38.4924 93.4095 38.4924Z" fill="#FBBEBE"/>
<path d="M109.492 48.4687C107.118 44.8081 99.2172 35.6867 87.4972 43.2064C87.4972 43.2064 90.2729 66.0278 83.5527 78.3714C83.5527 78.3714 99.0384 82.9644 107.512 78.6585C107.512 78.6585 104.59 59.4254 107.512 55.6936C108.486 54.501 109.275 53.1732 109.853 51.7533C110.056 51.2158 110.129 50.6393 110.066 50.0693C110.004 49.4993 109.807 48.9513 109.492 48.4687Z" fill="#2F855A"/>
<path d="M107.037 48.7207L109.911 49.8538C110.103 49.9293 110.267 50.0548 110.386 50.2157C110.504 50.3766 110.572 50.5662 110.581 50.7621L110.845 56.7571L104.4 56.2029L107.037 48.7207Z" fill="#2F855A"/>
<path d="M84.7893 77.9434C84.7893 77.9434 78.3551 89.4373 79.525 100.09L88.5914 101.492L95.0256 86.6339L93.5633 101.772L102.922 102.053C102.922 102.053 109.064 80.1861 107.017 78.2237L84.7893 77.9434Z" fill="#2F2E41"/>
<path d="M82.8932 90.7959C83.2761 90.6157 83.6125 90.3583 83.8788 90.0419C84.1451 89.7254 84.3348 89.3576 84.4345 88.9643C84.5342 88.571 84.5415 88.1618 84.456 87.7655C84.3704 87.3692 84.194 86.9955 83.9392 86.6707L90.7554 50.9924L84.3948 50.9131L79.6613 86.1943C79.1127 86.6353 78.7542 87.2513 78.6538 87.9256C78.5533 88.5999 78.7179 89.2856 79.1162 89.8528C79.5146 90.42 80.1192 90.8293 80.8153 91.0031C81.5114 91.177 82.2507 91.1032 82.8932 90.7959H82.8932Z" fill="#FBBEBE"/>
<path d="M90.0918 43.5778L87.533 43.2831C87.533 43.2831 85.2586 42.6937 84.4057 45.9356C83.5527 49.1774 83.5527 55.6612 83.5527 55.6612L91.5133 55.3664L90.0918 43.5778Z" fill="#2F855A"/>
<path d="M94.7845 35.1126C95.0431 34.23 94.9684 33.0357 94.0979 32.7018C93.6443 32.5279 93.1382 32.6651 92.6539 32.7138C91.7062 32.8053 90.7575 32.5486 89.9909 31.9933C89.0905 31.3353 88.5343 30.3295 88.0061 29.3564L87.2073 27.8846C87.0295 27.5778 86.8779 27.257 86.7541 26.9256C86.3096 25.6262 86.7922 24.122 87.7802 23.1545C88.8127 22.2103 90.1715 21.6867 91.5817 21.6895C92.9809 21.6993 94.3632 21.9904 95.6437 22.5449C97.9197 23.4568 99.9811 24.8181 101.7 26.5446C102.824 27.6747 103.847 29.1468 103.612 30.7101C103.43 31.927 102.527 32.9015 101.667 33.7945L98.545 37.0337C97.9922 37.6074 97.4014 38.2044 96.6295 38.425C95.8576 38.6456 94.8631 38.3216 94.6526 37.559C94.6526 37.559 94.5258 35.9953 94.7845 35.1126Z" fill="#2F2E41"/>
</svg>
