<svg width="109" height="131" viewBox="0 0 109 131" fill="none" xmlns="http://www.w3.org/2000/svg">
<path d="M10.0033 77.3797C10.436 77.1151 10.7984 76.769 11.065 76.3658C11.3316 75.9627 11.4958 75.5123 11.5462 75.0463C11.5966 74.5804 11.5319 74.1103 11.3566 73.6691C11.1813 73.2279 10.8997 72.8263 10.5317 72.4927L11.9237 44.7686L4.8367 45.4783L5.24843 72.5965C4.6613 73.1853 4.33663 73.9458 4.33594 74.7338C4.33525 75.5219 4.65858 76.2829 5.24468 76.8725C5.83077 77.4621 6.63891 77.8394 7.51595 77.9329C8.39299 78.0264 9.27799 77.8295 10.0033 77.3797Z" fill="#9F616A"/>
<path d="M22.4609 124.747L26.2771 125.367L30.0487 112.059L25.0487 111.144L22.4609 124.747Z" fill="#FFB8B8"/>
<path d="M33.2266 130.188L21.0204 128.177L21.8495 123.757L29.3396 124.991C29.9589 125.094 30.5507 125.309 31.0813 125.625C31.6118 125.942 32.0706 126.353 32.4315 126.836C32.7925 127.318 33.0484 127.863 33.1848 128.438C33.3213 129.013 33.3354 129.608 33.2266 130.188Z" fill="#2F2E41"/>
<path d="M11.9245 126.552H15.9233L17.8255 112.329L11.9238 112.329L11.9245 126.552Z" fill="#FFB8B8"/>
<path d="M23.377 130.188L10.9836 130.188L10.9834 125.7L18.5884 125.7C19.8584 125.7 21.0763 126.173 21.9743 127.014C22.8724 127.856 23.3769 128.997 23.377 130.188Z" fill="#2F2E41"/>
<path d="M28.6008 122.725C28.5398 122.725 28.4789 122.721 28.4183 122.715L23.8201 122.355C23.6108 122.332 23.4086 122.268 23.2259 122.168C23.0432 122.068 22.8838 121.934 22.7574 121.774C22.631 121.614 22.5401 121.431 22.4904 121.236C22.4407 121.041 22.4332 120.839 22.4682 120.642L26.7142 98.0307L23.8452 83.6572C23.8218 83.5404 23.7548 83.4356 23.6564 83.3621C23.5581 83.2886 23.4351 83.2514 23.3102 83.2573C23.1852 83.2632 23.0667 83.3118 22.9765 83.3942C22.8863 83.4766 22.8306 83.5872 22.8195 83.7056L19.2328 122.044C19.1934 122.429 18.9982 122.784 18.6885 123.035C18.3788 123.285 17.9787 123.412 17.5727 123.388L13.2407 123.234C12.861 123.209 12.5044 123.052 12.2381 122.794C11.9717 122.535 11.8142 122.193 11.7951 121.832L11.5039 75.8821L33.963 73.2148L35.5319 96.2373L35.5257 96.2617L30.1115 121.596C30.0291 121.917 29.8354 122.203 29.5615 122.408C29.2875 122.613 28.9493 122.724 28.6008 122.725Z" fill="#2F2E41"/>
<path d="M18.8806 27.1826C23.1876 27.1826 26.6792 23.9102 26.6792 19.8735C26.6792 15.8368 23.1876 12.5645 18.8806 12.5645C14.5736 12.5645 11.082 15.8368 11.082 19.8735C11.082 23.9102 14.5736 27.1826 18.8806 27.1826Z" fill="#9F616A"/>
<path d="M26.1817 79.5349C24.9464 79.5418 23.7349 79.2187 22.6904 78.6038C18.8644 76.3745 14.5189 77.2605 12.269 77.9871C12.0458 78.06 11.8077 78.0849 11.5727 78.0599C11.3377 78.035 11.1117 77.9608 10.9118 77.8429C10.7141 77.7272 10.5471 77.5714 10.4232 77.387C10.2994 77.2026 10.2218 76.9944 10.1965 76.7782L6.10519 42.7126C5.41958 37.005 9.1074 31.6388 14.8739 29.953C15.0905 29.8896 15.3108 29.8295 15.5348 29.7728C17.3293 29.3192 19.2086 29.2377 21.0404 29.5341C22.8723 29.8305 24.6123 30.4976 26.1379 31.4884C27.6918 32.4901 28.9914 33.7972 29.9452 35.3176C30.899 36.838 31.4837 38.5348 31.6583 40.2886L35.1026 74.5825C35.126 74.8045 35.0939 75.0286 35.0087 75.237C34.9234 75.4455 34.7875 75.6327 34.6115 75.7838C33.4041 76.8251 29.8998 79.5346 26.1817 79.5349Z" fill="#2F855A"/>
<path d="M13.6534 49.8946L4.30837 48.9395C4.04248 48.9124 3.78601 48.8322 3.55644 48.7046C3.32687 48.577 3.12959 48.4049 2.97802 48.2001C2.82646 47.9952 2.72418 47.7624 2.67815 47.5175C2.63213 47.2726 2.64343 47.0213 2.7113 46.7808L5.08995 38.3543C5.24724 37.0907 5.93723 35.9366 7.00862 35.145C8.08002 34.3535 9.44539 33.9892 10.8054 34.1319C12.1653 34.2747 13.4089 34.9128 14.2634 35.9065C15.118 36.9001 15.5137 38.1681 15.3638 39.4326L15.717 48.1099C15.727 48.3584 15.6793 48.6059 15.5771 48.8357C15.4749 49.0654 15.3207 49.272 15.1248 49.4414C14.929 49.6108 14.6962 49.7389 14.4423 49.8171C14.1884 49.8953 13.9193 49.9217 13.6534 49.8946V49.8946Z" fill="#2F855A"/>
<path d="M35.2174 76.3441C35.5911 76.0331 35.8882 75.6484 36.0877 75.2171C36.2871 74.7859 36.3842 74.3185 36.3719 73.8479C36.3596 73.3774 36.2384 72.9151 36.0167 72.4936C35.795 72.0722 35.4782 71.7018 35.0888 71.4086L32.8464 43.583L26.2559 44.9855L30.1245 72.0834C29.6468 72.7346 29.4385 73.5288 29.5388 74.3156C29.6392 75.1024 30.0414 75.827 30.6691 76.3522C31.2969 76.8774 32.1066 77.1666 32.9449 77.1651C33.7831 77.1636 34.5917 76.8715 35.2174 76.3441Z" fill="#9F616A"/>
<path d="M23.4781 48.2567C23.2822 48.0874 23.1279 47.8808 23.0258 47.651C22.9236 47.4213 22.8759 47.1737 22.8861 46.9253L23.2392 38.248C23.0894 36.9836 23.4851 35.7155 24.3396 34.7219C25.1942 33.7282 26.4377 33.0901 27.7977 32.9474C29.1577 32.8046 30.523 33.169 31.5944 33.9605C32.6658 34.752 33.3558 35.9061 33.5131 37.1697L35.8917 45.5962C35.9596 45.8366 35.9709 46.0879 35.9249 46.3328C35.8789 46.5777 35.7766 46.8105 35.625 47.0154C35.4735 47.2203 35.2762 47.3924 35.0466 47.52C34.817 47.6476 34.5606 47.7277 34.2947 47.7549L24.9497 48.7099C24.6837 48.7372 24.4146 48.7108 24.1607 48.6326C23.9067 48.5544 23.6739 48.4262 23.4781 48.2567Z" fill="#2F855A"/>
<path d="M18.3727 27.578C18.2322 27.5779 18.0923 27.5627 17.9556 27.5328L17.9155 27.5238C10.9701 26.5365 9.43522 22.7989 9.09828 21.238C8.74956 19.6219 9.14665 18.062 10.0439 17.4562C9.55473 16.021 9.63325 14.7485 10.2778 13.6724C11.4021 11.7958 13.8418 11.1612 14.169 11.0836C16.1175 9.74808 18.4487 10.6396 18.8729 10.8204C22.6419 9.52483 24.0825 10.6032 24.343 10.844C26.0278 11.1252 27.0547 11.7298 27.3957 12.6416C28.036 14.3541 26.0109 16.4844 25.9244 16.5743L25.8795 16.6208L22.8626 16.7543C22.5763 16.767 22.2961 16.8355 22.0401 16.9553C21.7842 17.075 21.5582 17.2435 21.3768 17.4496C21.1954 17.6558 21.0627 17.8951 20.9872 18.152C20.9118 18.4089 20.8953 18.6776 20.9388 18.9408C21.0205 19.2804 21.1236 19.6152 21.2478 19.9435C21.763 21.4395 22.149 22.7175 21.6511 23.2034C21.5383 23.2974 21.3993 23.36 21.25 23.3841C21.1006 23.4081 20.9471 23.3926 20.8068 23.3394C20.3351 23.2224 20.0148 23.2469 19.8552 23.4125C19.6075 23.6693 19.6831 24.3193 20.0682 25.2429C20.189 25.5349 20.2215 25.8521 20.1622 26.1601C20.1029 26.4681 19.9541 26.7551 19.7318 26.9902C19.5644 27.1736 19.3563 27.3211 19.1216 27.4226C18.887 27.5241 18.6315 27.5771 18.3727 27.578Z" fill="#2F2E41"/>
<path d="M45.3273 130.502H0.441705C0.356674 130.502 0.27512 130.482 0.214994 130.445C0.154867 130.408 0.121094 130.357 0.121094 130.305C0.121094 130.253 0.154867 130.202 0.214994 130.165C0.27512 130.128 0.356674 130.107 0.441705 130.107H45.3273C45.4123 130.107 45.4939 130.128 45.554 130.165C45.6141 130.202 45.6479 130.253 45.6479 130.305C45.6479 130.357 45.6141 130.408 45.554 130.445C45.4939 130.482 45.4123 130.502 45.3273 130.502Z" fill="#CCCCCC"/>
<path d="M101.785 81.0991H52.7398C50.8592 81.0971 49.0562 80.3955 47.7264 79.1482C46.3966 77.901 45.6486 76.2099 45.6465 74.446V7.15502C45.6486 5.39113 46.3966 3.70006 47.7264 2.4528C49.0562 1.20554 50.8592 0.503955 52.7398 0.501953H101.785C103.665 0.503955 105.468 1.20554 106.798 2.4528C108.128 3.70006 108.876 5.39113 108.878 7.15502V74.446C108.876 76.2099 108.128 77.901 106.798 79.1482C105.468 80.3955 103.665 81.0971 101.785 81.0991Z" fill="white"/>
<path d="M94.0742 53.8387H60.4541C57.0198 53.8238 57.0055 49.1138 60.4543 49.0977L94.0742 49.0977C97.5061 49.1121 97.5247 53.8225 94.0742 53.8387Z" fill="#CCCCCC"/>
<path d="M94.0742 14.3304H60.4541C57.0198 14.3143 57.0055 9.21182 60.4543 9.19434L94.0742 9.19434C97.5061 9.21001 97.5247 14.3129 94.0742 14.3304Z" fill="#CCCCCC"/>
<path d="M94.0742 62.9256H60.4541C57.0198 62.9107 57.0055 58.2007 60.4543 58.1846L94.0742 58.1846C97.5061 58.1991 97.5247 62.9094 94.0742 62.9256Z" fill="#CCCCCC"/>
<path d="M94.0742 72.4066H60.4541C57.0198 72.3905 57.0055 67.288 60.4543 67.2705L94.0742 67.2705C97.5061 67.2862 97.5247 72.3891 94.0742 72.4066Z" fill="#CCCCCC"/>
<path d="M93.3396 43.1713H61.1886C60.3096 43.1703 59.4668 42.8395 58.8453 42.2514C58.2237 41.6633 57.874 40.8659 57.873 40.0341V22.9985C57.874 22.1667 58.2237 21.3693 58.8453 20.7812C59.4668 20.1931 60.3096 19.8623 61.1886 19.8613H93.3396C94.2186 19.8623 95.0614 20.1931 95.6829 20.7812C96.3045 21.3693 96.6542 22.1667 96.6551 22.9985V40.0341C96.6541 40.8659 96.3045 41.6633 95.6829 42.2514C95.0614 42.8395 94.2186 43.1703 93.3396 43.1713Z" fill="#2F855A"/>
<path d="M101.785 81.0991H52.7398C50.8592 81.0971 49.0562 80.3955 47.7264 79.1482C46.3966 77.901 45.6486 76.2099 45.6465 74.446V7.15502C45.6486 5.39113 46.3966 3.70006 47.7264 2.4528C49.0562 1.20554 50.8592 0.503955 52.7398 0.501953H101.785C103.665 0.503955 105.468 1.20554 106.798 2.4528C108.128 3.70006 108.876 5.39113 108.878 7.15502V74.446C108.876 76.2099 108.128 77.901 106.798 79.1482C105.468 80.3955 103.665 81.0971 101.785 81.0991ZM52.7398 1.64248C51.1816 1.64413 49.6877 2.22545 48.5858 3.25889C47.484 4.29233 46.8642 5.69351 46.8625 7.15502V74.446C46.8642 75.9075 47.484 77.3087 48.5858 78.3421C49.6877 79.3756 51.1816 79.9569 52.7398 79.9585H101.785C103.343 79.9569 104.837 79.3756 105.939 78.3421C107.041 77.3087 107.66 75.9075 107.662 74.446V7.15502C107.66 5.69351 107.041 4.29233 105.939 3.25888C104.837 2.22544 103.343 1.64413 101.785 1.64248H52.7398Z" fill="#E6E6E6"/>
<path d="M66.094 28.5531H64.574L64.294 29.3281H63.814L65.074 25.8631H65.599L66.854 29.3281H66.374L66.094 28.5531ZM65.964 28.1831L65.334 26.4231L64.704 28.1831H65.964ZM67.9732 29.8581H67.5182V25.3531H67.9732V29.8581ZM70.6032 27.5331C70.7299 27.5531 70.8449 27.6048 70.9482 27.6881C71.0549 27.7715 71.1382 27.8748 71.1982 27.9981C71.2616 28.1215 71.2932 28.2531 71.2932 28.3931C71.2932 28.5698 71.2482 28.7298 71.1582 28.8731C71.0682 29.0131 70.9366 29.1248 70.7632 29.2081C70.5932 29.2881 70.3916 29.3281 70.1582 29.3281H68.8582V25.8431H70.1082C70.3449 25.8431 70.5466 25.8831 70.7132 25.9631C70.8799 26.0398 71.0049 26.1448 71.0882 26.2781C71.1716 26.4115 71.2132 26.5615 71.2132 26.7281C71.2132 26.9348 71.1566 27.1065 71.0432 27.2431C70.9332 27.3765 70.7866 27.4731 70.6032 27.5331ZM69.3132 27.3481H70.0782C70.2916 27.3481 70.4566 27.2981 70.5732 27.1981C70.6899 27.0981 70.7482 26.9598 70.7482 26.7831C70.7482 26.6065 70.6899 26.4681 70.5732 26.3681C70.4566 26.2681 70.2882 26.2181 70.0682 26.2181H69.3132V27.3481ZM70.1182 28.9531C70.3449 28.9531 70.5216 28.8998 70.6482 28.7931C70.7749 28.6865 70.8382 28.5381 70.8382 28.3481C70.8382 28.1548 70.7716 28.0031 70.6382 27.8931C70.5049 27.7798 70.3266 27.7231 70.1032 27.7231H69.3132V28.9531H70.1182ZM72.4946 29.8581H72.0396V25.3531H72.4946V29.8581ZM73.2097 27.5831C73.2097 27.2431 73.2864 26.9381 73.4397 26.6681C73.593 26.3948 73.8014 26.1815 74.0647 26.0281C74.3314 25.8748 74.6264 25.7981 74.9497 25.7981C75.3297 25.7981 75.6614 25.8898 75.9447 26.0731C76.228 26.2565 76.4347 26.5165 76.5647 26.8531H76.0197C75.923 26.6431 75.783 26.4815 75.5997 26.3681C75.4197 26.2548 75.203 26.1981 74.9497 26.1981C74.7064 26.1981 74.488 26.2548 74.2947 26.3681C74.1014 26.4815 73.9497 26.6431 73.8397 26.8531C73.7297 27.0598 73.6747 27.3031 73.6747 27.5831C73.6747 27.8598 73.7297 28.1031 73.8397 28.3131C73.9497 28.5198 74.1014 28.6798 74.2947 28.7931C74.488 28.9065 74.7064 28.9631 74.9497 28.9631C75.203 28.9631 75.4197 28.9081 75.5997 28.7981C75.783 28.6848 75.923 28.5231 76.0197 28.3131H76.5647C76.4347 28.6465 76.228 28.9048 75.9447 29.0881C75.6614 29.2681 75.3297 29.3581 74.9497 29.3581C74.6264 29.3581 74.3314 29.2831 74.0647 29.1331C73.8014 28.9798 73.593 28.7681 73.4397 28.4981C73.2864 28.2281 73.2097 27.9231 73.2097 27.5831ZM77.387 29.3581C77.3004 29.3581 77.227 29.3281 77.167 29.2681C77.107 29.2081 77.077 29.1348 77.077 29.0481C77.077 28.9615 77.107 28.8881 77.167 28.8281C77.227 28.7681 77.3004 28.7381 77.387 28.7381C77.4704 28.7381 77.5404 28.7681 77.597 28.8281C77.657 28.8881 77.687 28.9615 77.687 29.0481C77.687 29.1348 77.657 29.2081 77.597 29.2681C77.5404 29.3281 77.4704 29.3581 77.387 29.3581ZM78.4368 29.3581C78.3502 29.3581 78.2768 29.3281 78.2168 29.2681C78.1568 29.2081 78.1268 29.1348 78.1268 29.0481C78.1268 28.9615 78.1568 28.8881 78.2168 28.8281C78.2768 28.7681 78.3502 28.7381 78.4368 28.7381C78.5202 28.7381 78.5902 28.7681 78.6468 28.8281C78.7068 28.8881 78.7368 28.9615 78.7368 29.0481C78.7368 29.1348 78.7068 29.2081 78.6468 29.2681C78.5902 29.3281 78.5202 29.3581 78.4368 29.3581ZM79.4866 29.3581C79.4 29.3581 79.3266 29.3281 79.2666 29.2681C79.2066 29.2081 79.1766 29.1348 79.1766 29.0481C79.1766 28.9615 79.2066 28.8881 79.2666 28.8281C79.3266 28.7681 79.4 28.7381 79.4866 28.7381C79.57 28.7381 79.64 28.7681 79.6966 28.8281C79.7566 28.8881 79.7866 28.9615 79.7866 29.0481C79.7866 29.1348 79.7566 29.2081 79.6966 29.2681C79.64 29.3281 79.57 29.3581 79.4866 29.3581Z" fill="white"/>
</svg>
