<svg width="266" height="362" viewBox="0 0 266 362" fill="none" xmlns="http://www.w3.org/2000/svg">
<path opacity="0.1" d="M200.058 60.5762H183.271V77.3152H200.058V60.5762Z" fill="#2F855A"/>
<path opacity="0.1" d="M200.058 101.866H183.271V118.605H200.058V101.866Z" fill="#2F855A"/>
<path opacity="0.1" d="M200.058 143.148H183.271V159.887H200.058V143.148Z" fill="#2F855A"/>
<path opacity="0.1" d="M200.058 184.436H183.271V201.175H200.058V184.436Z" fill="#2F855A"/>
<path opacity="0.1" d="M200.058 225.724H183.271V242.463H200.058V225.724Z" fill="#2F855A"/>
<path opacity="0.1" d="M183.271 277.802V267.008H200.052V276.266L183.271 277.802Z" fill="#2F855A"/>
<path opacity="0.1" d="M207.489 361.498C239.253 361.498 265.002 357.374 265.002 352.286C265.002 347.199 239.253 343.075 207.489 343.075C175.726 343.075 149.977 347.199 149.977 352.286C149.977 357.374 175.726 361.498 207.489 361.498Z" fill="black"/>
<path opacity="0.1" d="M57.5126 357.395C89.2759 357.395 115.025 353.271 115.025 348.184C115.025 343.097 89.2759 338.973 57.5126 338.973C25.7493 338.973 0 343.097 0 348.184C0 353.271 25.7493 357.395 57.5126 357.395Z" fill="black"/>
<path d="M123.725 104.62C123.711 104.561 123.681 104.508 123.637 104.467C122.757 103.601 111.543 87.7863 111.543 87.7863C111.543 87.7863 110.953 86.0206 109.997 83.7252C110.303 83.3294 110.533 82.8804 110.675 82.4009C110.727 82.1977 110.764 81.9912 110.787 81.7829C110.787 81.7181 110.835 81.6652 110.852 81.6004C111.057 80.8021 111.037 79.9629 110.793 79.1755C110.728 79.3775 110.647 79.5742 110.551 79.764C110.329 79.0784 110.032 78.4192 109.666 77.7982C108.179 75.2438 106.054 73.0896 104.49 70.6C102.121 66.7317 101.18 62.1608 101.828 57.6748C101.828 57.9044 101.828 58.1398 101.828 58.3694C101.887 57.4797 102.005 56.5949 102.182 55.7208C102.428 54.7259 102.758 53.7533 103.168 52.8132C104.572 49.6055 106.845 46.8098 108.226 43.5903C108.689 42.5043 109.041 41.3744 109.276 40.2177C109.763 38.286 109.94 36.2896 109.802 34.3026C109.802 34.7734 109.725 35.2443 109.654 35.7093C109.505 30.9319 107.57 26.3827 104.23 22.9548C99.4077 18.1227 92.4842 16.2451 85.8618 15.2563C83.0789 14.9325 80.4212 13.921 78.1297 12.3134C75.5858 10.6713 72.2981 10.277 69.3233 10.636C65.9043 11.0046 62.7273 12.5709 60.3577 15.0562C57.2117 18.5052 55.8483 23.3904 52.177 26.2979C49.9518 28.0637 47.1305 28.8877 44.5393 30.0884C41.9482 31.2891 39.4987 33.0312 38.6665 35.6092C38.6665 35.6092 38.6665 35.5739 38.6665 35.5562V35.7034L38.6311 35.7975C37.7693 38.8464 39.4338 41.9481 40.3014 44.9911C41.2045 48.1399 41.2635 51.4654 41.3107 54.7202C41.3757 58.699 41.4347 62.6836 41.3698 66.6683C41.3403 68.2339 41.2871 69.8171 41.1691 71.3769C39.772 71.798 38.4151 72.3416 37.1141 73.0013C35.792 73.8606 30.8458 79.1872 30.8458 79.1872L21.1719 116.044L21.3017 116.191L21.1719 116.691L21.6618 116.579C23.0311 118.051 27.1215 122.241 31.5364 124.855L31.9496 132.082C31.9496 132.082 32.4454 139.334 39.1328 142.33C39.2862 144.843 39.7643 155.049 37.5509 159.092C36.0182 162.046 35.2973 165.352 35.4615 168.674C35.4615 168.674 36.2347 174.807 35.3553 178.032C34.8415 180.188 34.8032 182.429 35.2431 184.601C35.2431 184.601 35.2431 185.313 35.2431 186.537C35.2431 193.065 35.3198 213.983 35.2431 216.349C35.131 219.144 35.2431 260.492 35.2431 260.492C35.2431 260.492 34.6942 281.157 32.9353 286.754C31.1764 292.351 31.619 310.885 31.619 310.885C31.619 310.885 30.5153 332.963 34.4168 337.318C34.4168 337.513 34.3814 337.713 34.3755 337.907C34.3755 337.995 34.3755 338.095 34.3755 338.184C34.3282 339.861 34.6529 341.644 36.099 342.192C39.0501 343.322 42.9516 346.712 43.6894 347.683C44.4272 348.654 48.7182 351.073 54.3136 350.426C57.8189 350.033 61.3464 349.872 64.873 349.943C64.873 349.943 67.0805 349.543 66.3663 346.806C65.9059 345.099 64.1824 342.474 62.9547 340.75C63.179 340.809 63.3974 340.856 63.604 340.897L63.8164 340.938H63.9817C64.0721 340.944 64.1628 340.944 64.2532 340.938H64.3713C64.4813 340.947 64.5918 340.947 64.7018 340.938C66.1833 340.797 71.7079 343.363 72.6936 345.058C73.6793 346.753 77.1558 348.042 79.7764 348.366C81.3347 348.554 85.2656 348.236 88.5651 347.813C90.2266 347.642 91.8724 347.342 93.4876 346.918C94.2667 346.624 94.432 345.682 94.2077 344.623C93.9428 343.277 93.2217 342.063 92.1655 341.185C91.2093 340.508 89.9462 338.725 89.0136 337.265L88.7657 336.871C90.4125 335.305 93.3873 330.185 94.2903 329.125C95.3882 327.836 92.5196 280.697 92.5196 280.697V257.066L96.9169 234.7L99.992 222.864L102.63 204.995C102.63 204.995 107.246 184.124 105.824 182.076C105.824 182.035 104.643 160.546 103.404 155.384C102.866 153.083 103.002 147.903 103.321 142.865C103.654 142.535 103.886 142.118 103.991 141.661C104.095 141.205 104.068 140.729 103.911 140.287C103.823 139.985 103.709 139.692 103.569 139.41C103.569 139.322 103.569 139.228 103.569 139.139C106.119 137.97 108.783 137.066 111.519 136.444C115.917 135.584 114.819 133.324 114.819 133.324C114.819 133.324 115.81 131.388 116.466 130.205C117.121 129.022 116.578 118.581 116.466 117.721C116.424 117.374 116.153 115.455 115.84 113.277C117.251 112.277 119.086 111.035 121.087 109.858C124.894 107.61 124.038 105.238 123.725 104.62ZM66.3545 253.841C66.3545 253.841 63.055 262.234 64.3772 264.382C65.6993 266.53 64.1588 274.506 64.1588 274.506L63.055 286.342C63.055 286.342 59.9799 308.296 61.0777 313.458C61.9395 317.507 62.2582 329.602 62.3586 334.646C62.283 334.676 62.21 334.711 62.1402 334.752L61.9926 334.829C62.5002 332.845 62.2877 328.831 59.7674 320.756L59.5549 287.401C59.5549 287.401 59.1654 248.873 62.2169 244.565C65.2684 240.257 66.3486 232.941 66.3486 232.941C66.3486 232.941 65.6875 243.494 65.2566 246.289C64.8258 249.085 66.3545 253.841 66.3545 253.841ZM60.2101 336.747C60.1806 336.818 60.1452 336.889 60.1216 336.953L59.9563 336.742C60.0406 336.75 60.1255 336.752 60.2101 336.747Z" fill="url(#paint0_linear)"/>
<path d="M93.8605 349.966C92.1547 350.62 82.9057 351.732 80.3204 351.42C77.7352 351.108 74.3119 349.802 73.338 348.095C72.3641 346.388 66.9044 343.81 65.4406 343.975C64.8406 343.993 64.2419 343.909 63.6699 343.728C62.66 343.423 61.6737 343.045 60.7187 342.597C60.5854 341.855 60.6075 341.094 60.7836 340.361C60.8176 340.213 60.861 340.068 60.9135 339.925C61.258 338.96 61.9707 338.169 62.8967 337.724L63.1092 337.624C63.5184 337.448 63.946 337.317 64.3841 337.236C69.0233 336.347 88.1647 338.13 88.1647 338.13C88.1647 338.13 88.7018 339.09 89.4396 340.278C90.3604 341.75 91.6116 343.545 92.556 344.222C93.6021 345.114 94.3121 346.334 94.5687 347.683C94.793 348.725 94.6278 349.678 93.8605 349.966Z" fill="white"/>
<path opacity="0.1" d="M93.8608 349.965C92.1551 350.618 82.912 351.731 80.3267 351.419C77.7415 351.107 74.3181 349.794 73.3383 348.093C72.3585 346.392 66.9106 343.808 65.4468 343.973C63.9831 344.138 60.7249 342.596 60.7249 342.596C60.7249 342.596 60.2174 340.242 61.6929 338.635L64.6441 340.724C64.6441 340.724 72.5415 343.167 74.0053 345.433C75.4691 347.699 78.1369 348.964 81.9912 349.194C84.8715 349.382 91.4881 348.264 94.5868 347.705C94.7934 348.723 94.634 349.676 93.8608 349.965Z" fill="black"/>
<path d="M65.602 352.968C62.1204 352.9 58.6382 353.064 55.1784 353.457C49.6361 354.104 45.4041 351.691 44.6663 350.696C43.9285 349.702 40.1097 346.341 37.1762 345.164C35.7419 344.61 35.4055 342.809 35.4704 341.126C35.4704 341.038 35.4704 340.938 35.4704 340.849C35.5248 339.783 35.6829 338.725 35.9426 337.689L58.9087 337.2L60.8978 339.89L61.2047 340.302L62.4147 341.944C62.4147 341.944 62.9636 342.662 63.6837 343.71C64.8996 345.476 66.5994 348.083 67.0539 349.807C67.7799 352.568 65.602 352.968 65.602 352.968Z" fill="white"/>
<path opacity="0.1" d="M65.602 352.968C62.1204 352.9 58.6382 353.064 55.1784 353.457C49.642 354.104 45.4041 351.691 44.6722 350.696C43.9403 349.701 40.1097 346.311 37.1762 345.175C35.7419 344.622 35.4055 342.821 35.4704 341.138C37.1113 341.52 40.5583 342.497 41.9099 344.198C43.6806 346.47 46.8502 350.29 51.3537 350.531C54.9895 350.726 63.843 350.078 67.0893 349.819C67.7858 352.568 65.602 352.968 65.602 352.968Z" fill="black"/>
<path opacity="0.1" d="M62.8736 337.7C62.608 339.665 61.7875 340.195 61.1973 340.313C61.0531 340.341 60.9048 340.341 60.7605 340.313C60.683 340.307 60.606 340.295 60.5303 340.278C60.5303 340.278 39.9075 344.821 35.7404 341.143C35.6346 341.048 35.536 340.946 35.4453 340.837C35.4997 339.77 35.6578 338.712 35.9175 337.676L58.8836 337.188L60.8727 339.877C61.2171 338.912 61.9298 338.121 62.8559 337.676L62.8736 337.7Z" fill="black"/>
<path opacity="0.1" d="M89.4322 340.254C88.9718 340.76 88.5882 341.049 88.3462 340.949C87.2601 340.513 78.3593 339.001 75.5321 340.301C72.7049 341.602 63.1371 340.513 63.1371 340.513C63.1371 340.513 63.1371 339.383 63.084 337.57C63.4932 337.394 63.9208 337.264 64.3589 337.182C68.9982 336.293 88.1396 338.076 88.1396 338.076C88.1396 338.076 88.7003 339.065 89.4322 340.254Z" fill="black"/>
<path d="M102.901 207.119L100.292 225.094L97.2585 237.007L92.9143 259.526V283.363C92.9143 283.363 95.7357 330.791 94.6496 332.085C93.5636 333.38 89.4379 340.755 88.3518 340.326C87.2658 339.896 78.365 338.377 75.5378 339.672C72.7105 340.967 63.1428 339.89 63.1428 339.89C63.1428 339.89 62.9244 321.485 61.8384 316.288C60.7524 311.091 63.7921 289.002 63.7921 289.002L64.8781 277.095C64.8781 277.095 66.4009 269.079 65.0965 266.913C63.7921 264.747 67.0502 256.318 67.0502 256.318C67.0502 256.318 65.5333 251.545 65.9701 248.732C66.4068 245.918 67.0502 235.306 67.0502 235.306C67.0502 235.306 65.9701 242.675 62.954 247.001C59.9378 251.327 60.3215 290.097 60.3215 290.097L60.534 323.645C65.9701 341.408 60.534 339.672 60.534 339.672C60.534 339.672 39.9111 344.222 35.7441 340.537C31.577 336.853 32.7693 313.663 32.7693 313.663C32.7693 313.663 32.3384 295.041 34.0737 289.414C35.809 283.787 36.3579 262.993 36.3579 262.993C36.3579 262.993 36.2458 221.41 36.3579 218.602C36.4405 216.248 36.3579 195.171 36.3579 188.585C36.3579 187.361 36.3579 186.637 36.3579 186.637L38.8487 180.469L68.3605 176.784H82.479C82.479 176.784 103.727 181.764 105.923 183.912C105.97 183.948 106.01 183.991 106.041 184.041C107.464 186.119 102.901 207.119 102.901 207.119Z" fill="#2F855A"/>
<path opacity="0.1" d="M67.0664 301.538C67.0664 301.538 73.559 317.129 76.6224 318.212C79.6857 319.295 67.0664 301.538 67.0664 301.538Z" fill="black"/>
<path opacity="0.1" d="M69.4707 324.493C69.4707 324.493 91.3921 325.576 91.1737 327.96C90.9553 330.344 69.4707 324.493 69.4707 324.493Z" fill="black"/>
<path opacity="0.1" d="M40.1426 318.26C41.0102 319.078 56.864 320.614 55.5595 322.109C54.2551 323.604 41.447 326.512 41.447 326.512L40.1426 318.26Z" fill="black"/>
<path opacity="0.1" d="M37.5371 291.362C37.5371 292.01 40.7952 312.151 41.6688 313.016C42.5423 313.881 49.7019 314.746 49.7019 314.746L37.5371 291.362Z" fill="black"/>
<path d="M61.1793 16.0616C58.0687 19.5283 56.723 24.4429 53.0989 27.374C50.8974 29.1397 48.1114 29.9814 45.5498 31.1821C42.9882 32.3828 40.4502 34.2132 39.6888 36.9325C38.8388 39.993 40.4797 43.1184 41.3414 46.179C42.2327 49.3455 42.2858 52.6533 42.3389 55.9669C42.3979 59.9751 42.4629 63.9833 42.392 67.9915C42.2858 74.2363 41.7664 80.7695 38.4434 86.0608C50.4429 89.8688 63.2038 90.3868 75.7876 90.8753C78.2059 91.0473 80.6351 90.9862 83.0416 90.6928C85.1269 90.2785 87.1895 89.7579 89.2214 89.1331C93.2386 88.0732 97.3782 87.5448 101.534 87.5616C103.346 87.5616 105.193 87.6735 106.94 87.2026C108.687 86.7317 110.37 85.5252 110.842 83.783C111.261 82.2174 110.647 80.5517 109.844 79.145C108.38 76.5788 106.303 74.4364 104.733 71.9056C103.13 69.2322 102.179 66.221 101.957 63.1142C101.734 60.0075 102.246 56.8921 103.452 54.0188C104.845 50.7875 107.088 47.9741 108.457 44.737C109.86 41.2613 110.233 37.4573 109.532 33.7766C108.831 30.0958 107.085 26.693 104.503 23.9721C99.7394 19.1104 92.9044 17.227 86.3646 16.2264C83.6109 15.9021 80.9839 14.8898 78.727 13.2835C76.2185 11.6355 72.9663 11.2353 70.0269 11.6002C66.636 11.9791 63.4952 13.5628 61.1793 16.0616Z" fill="#3F3D56"/>
<g opacity="0.1">
<path opacity="0.1" d="M103.63 50.6239C102.427 53.46 101.911 56.5392 102.125 59.6114C102.258 57.4145 102.767 55.2565 103.63 53.2312C105.017 50 107.26 47.1866 108.63 43.9494C109.749 41.2464 110.22 38.3199 110.005 35.4033C109.883 37.4476 109.418 39.4571 108.63 41.3479C107.26 44.5851 105.017 47.3926 103.63 50.6239Z" fill="black"/>
<path opacity="0.1" d="M42.5144 55.1687C42.5498 57.4759 42.5853 59.789 42.5912 62.0962C42.5912 58.9179 42.5617 55.7455 42.5144 52.5731C42.4672 49.283 42.4082 45.9516 41.5169 42.7792C40.9267 40.7663 40.0531 38.7239 39.7462 36.6934C39.2209 39.5774 40.7142 42.5026 41.5169 45.3807C42.4082 48.5237 42.4672 51.8786 42.5144 55.1687Z" fill="black"/>
<path opacity="0.1" d="M107.137 83.8379C105.367 84.3147 103.549 84.2087 101.737 84.197C97.5844 84.1707 93.4468 84.6891 89.4302 85.739C87.398 86.3611 85.3354 86.8797 83.2504 87.2929C80.8424 87.5911 78.4109 87.6541 75.9905 87.4812C63.8317 87.0045 51.5016 86.4924 39.8563 83.0257C39.5105 83.7953 39.1162 84.5424 38.6758 85.2623C50.6753 89.0645 63.4362 89.5883 76.0141 90.0768C78.4345 90.2497 80.866 90.1867 83.274 89.8885C85.3516 89.4793 87.4065 88.9626 89.4302 88.3405C93.4384 87.2867 97.5679 86.7623 101.713 86.7808C103.525 86.7808 105.367 86.8926 107.114 86.4159C108.861 85.9391 110.543 84.7443 111.015 83.0022C111.214 82.1953 111.194 81.3501 110.956 80.5537C110.431 82.2017 108.808 83.3494 107.137 83.8379Z" fill="black"/>
</g>
<path d="M89.6571 76.8612C89.2204 77.8382 87.3788 86.2784 86.9421 87.1436C86.5053 88.0088 84.1207 101.858 83.9023 102.635C83.6839 103.412 68.1843 99.386 68.1843 99.386L58.8527 91.5874L49.2613 82.0701C49.2613 82.0701 48.978 73.4828 56.0431 70.7283C56.5234 70.5402 57.0165 70.3868 57.5187 70.2692C66.089 68.2151 65.2272 42.2295 65.2272 42.2295L82.8163 49.8044C82.8163 49.8044 79.5582 64.9661 79.6703 67.8913C79.6998 68.8743 80.4731 69.4864 81.4824 69.8572C83.0429 70.2999 84.6675 70.475 86.2869 70.3751C86.2869 70.3751 90.0939 75.8901 89.6571 76.8612Z" fill="#FBBEBE"/>
<path d="M121.146 105.337L123.642 105.99C123.642 105.99 125.49 108.792 121.146 111.399C118.387 113.07 115.74 114.916 113.219 116.926L100.381 120.822L97.9082 113.083L109.855 104.042L121.146 105.337Z" fill="#2F855A"/>
<path opacity="0.1" d="M121.146 105.337L123.642 105.99C123.642 105.99 125.49 108.792 121.146 111.399C118.387 113.07 115.74 114.916 113.219 116.926L100.381 120.822L97.9082 113.083L109.855 104.042L121.146 105.337Z" fill="#22543D"/>
<path d="M27.4563 112.812L22.4629 117.685C22.4629 117.685 31.4699 128.08 38.3993 128.727C45.3287 129.374 49.7968 120.822 49.7968 120.822L43.8 111.405L27.4563 112.812Z" fill="#2F855A"/>
<path opacity="0.1" d="M27.4563 112.812L22.4629 117.685C22.4629 117.685 31.4699 128.08 38.3993 128.727C45.3287 129.374 49.7968 120.822 49.7968 120.822L43.8 111.405L27.4563 112.812Z" fill="#22543D"/>
<path opacity="0.1" d="M74.8902 59.2099C84.4837 59.2099 92.2608 51.4547 92.2608 41.8882C92.2608 32.3216 84.4837 24.5664 74.8902 24.5664C65.2966 24.5664 57.5195 32.3216 57.5195 41.8882C57.5195 51.4547 65.2966 59.2099 74.8902 59.2099Z" fill="black"/>
<path d="M74.8902 57.9101C84.4837 57.9101 92.2608 50.1549 92.2608 40.5883C92.2608 31.0218 84.4837 23.2666 74.8902 23.2666C65.2966 23.2666 57.5195 31.0218 57.5195 40.5883C57.5195 50.1549 65.2966 57.9101 74.8902 57.9101Z" fill="#FBBEBE"/>
<path opacity="0.1" d="M106.053 186.007C102.097 186.458 98.2013 187.328 94.4308 188.603C87.9382 190.757 37.0598 188.638 36.3516 188.603C36.3516 187.378 36.3516 186.654 36.3516 186.654L38.8424 180.486L68.3542 176.802H82.4726C82.4726 176.802 103.721 181.781 105.917 183.929C106.005 185.224 106.053 186.007 106.053 186.007Z" fill="black"/>
<path opacity="0.1" d="M89.6571 76.8634C89.2204 77.8404 87.3788 86.2806 86.9421 87.1458C86.5053 88.011 84.1207 101.86 83.9023 102.637C83.6839 103.414 68.1843 99.3881 68.1843 99.3881L58.8527 91.5895L49.2613 82.0723C49.2613 82.0723 48.978 73.485 56.0431 70.7305L73.585 90.842L81.4824 69.8594C83.0429 70.3021 84.6675 70.4772 86.2869 70.3773C86.2869 70.3773 90.0939 75.8923 89.6571 76.8634Z" fill="black"/>
<path d="M73.5841 91.4877L55.6292 70.8876C54.5781 70.2185 53.3769 69.8204 52.1334 69.729C50.8899 69.6376 49.6431 69.8557 48.505 70.3637C44.4855 72.1 39.4921 73.5067 38.1877 74.3719C36.8832 75.2371 31.9961 80.5931 31.9961 80.5931L46.5513 118.562L40.1413 143.571C40.1413 143.571 41.1212 156.349 38.6245 161.004C37.1042 163.981 36.392 167.303 36.5586 170.639C36.5586 170.639 37.32 176.813 36.4524 180.056C35.9454 182.225 35.9072 184.476 36.3402 186.66C36.3402 186.66 87.921 188.826 94.4313 186.66C98.2008 185.382 102.097 184.512 106.053 184.065C106.053 184.065 104.873 162.405 103.692 157.208C102.512 152.011 104.672 132.199 104.672 132.199L103.261 110.975L111.725 89.1981C111.725 89.1981 107.139 75.2371 102.358 73.8304C102.358 73.8304 93.6758 71.7704 91.8283 70.7993C89.9809 69.8281 84.5507 68.957 84.5507 68.957L81.6999 69.9105L73.5841 91.4877Z" fill="#2F855A"/>
<path opacity="0.1" d="M98.6367 110.259L60.8543 107.697C59.8982 107.633 59.0703 108.353 59.0053 109.307L54.949 168.792C54.884 169.745 55.6064 170.571 56.5626 170.636L94.345 173.197C95.3011 173.262 96.129 172.542 96.194 171.588L100.25 112.103C100.315 111.15 99.5929 110.324 98.6367 110.259Z" fill="black"/>
<path d="M99.9355 108.967L62.1532 106.405C61.197 106.341 60.3692 107.061 60.3042 108.015L56.2479 167.5C56.1828 168.453 56.9053 169.279 57.8614 169.344L95.6438 171.905C96.5999 171.97 97.4278 171.25 97.4928 170.296L101.549 110.811C101.614 109.858 100.892 109.032 99.9355 108.967Z" fill="#3F3D56"/>
<path d="M98.689 113.63L62.7559 111.193L59.0632 165.347L94.9963 167.783L98.689 113.63Z" fill="white"/>
<path opacity="0.1" d="M95.4676 127.452L66.1152 125.403L65.5426 133.561L94.895 135.61L95.4676 127.452Z" fill="black"/>
<path opacity="0.1" d="M94.4061 159.871L89.748 159.555L89.4581 163.806L94.1162 164.122L94.4061 159.871Z" fill="black"/>
<path opacity="0.1" d="M89.8104 149.61L65.9668 147.993L65.6769 152.245L89.5205 153.861L89.8104 149.61Z" fill="black"/>
<path d="M94.241 111.605L69.4141 109.922L68.9684 116.458L93.7954 118.141L94.241 111.605Z" fill="#3F3D56"/>
<path opacity="0.1" d="M94.241 111.605L69.4141 109.922L68.9684 116.458L93.7954 118.141L94.241 111.605Z" fill="black"/>
<path opacity="0.1" d="M75.7547 184.813C75.7547 184.813 75.5363 216.867 67.0664 235.272C67.0664 235.272 77.2775 211.017 77.2775 210.046C77.2775 209.075 82.9202 198.892 81.4092 195.861C79.8982 192.83 75.7547 184.813 75.7547 184.813Z" fill="black"/>
<path opacity="0.1" d="M76.2176 36.2579C75.8931 33.4209 76.5897 30.5611 78.1831 28.1886C77.9936 30.5666 78.668 32.9333 80.0832 34.8566C81.4983 36.78 83.5599 38.1318 85.8916 38.6652C85.6926 38.493 85.5506 38.2648 85.4842 38.0105C85.4178 37.7563 85.4302 37.4879 85.5197 37.2408C86.7297 38.6063 87.6564 40.2249 89.0257 41.4256C90.3951 42.6263 92.4491 43.3444 94.0604 42.4909C96.2502 41.3138 96.2738 38.212 95.7072 35.7989C94.4912 30.6597 91.9964 25.9089 88.4532 21.985C87.5692 20.7989 86.4217 19.8331 85.1007 19.1632C83.7797 18.4933 82.3211 18.1376 80.8392 18.124C77.4866 17.865 74.0042 18.1593 70.9999 19.6601C69.3092 20.5801 67.7257 21.6835 66.278 22.9503L58.0147 29.6718C57.2197 30.243 56.539 30.9577 56.0079 31.7789C55.6533 32.4654 55.4406 33.216 55.3823 33.986C55.1712 36.1874 55.5797 38.4038 56.5618 40.3865C57.5439 42.3692 59.0609 44.0396 60.9423 45.2102C60.9025 43.4703 61.3824 41.758 62.3209 40.2907C63.2594 38.8235 64.6142 37.6676 66.2131 36.9701C66.4636 37.1789 66.6663 37.4388 66.8078 37.7321C66.9493 38.0255 67.0263 38.3456 67.0335 38.6711L68.7747 35.5752C69.0337 35.0118 69.4418 34.5296 69.9552 34.1803C71.0294 33.5917 72.3693 34.2862 73.2841 35.1161C74.199 35.946 75.0903 36.9819 76.3179 37.1114L76.3652 32.5028" fill="black"/>
<path d="M76.2172 35.6082C75.8918 32.7692 76.5884 29.9073 78.1827 27.533C77.6515 32.2416 81.2106 37.1032 85.8971 38.0096C85.6979 37.8388 85.5557 37.6116 85.4892 37.3582C85.4228 37.1048 85.4354 36.8372 85.5253 36.5911C86.7352 37.9566 87.6619 39.5693 89.0313 40.7759C90.4006 41.9825 92.4546 42.6946 94.066 41.8353C96.2557 40.6582 96.2794 37.5564 95.7127 35.1491C94.4968 30.01 92.002 25.2592 88.4587 21.3353C87.3593 19.9989 85.9738 18.925 84.4038 18.1923C83.2673 17.7731 82.0728 17.5309 80.8624 17.4742C77.5099 17.2153 74.0275 17.5037 71.0232 19.0045C69.3336 19.9286 67.7503 21.0338 66.3013 22.3005L58.038 29.022C57.2416 29.5918 56.5607 30.3067 56.0312 31.1292C55.6758 31.8154 55.463 32.5661 55.4055 33.3363C55.1949 35.5368 55.6036 37.7522 56.5857 39.7339C57.5679 41.7155 59.0846 43.3849 60.9655 44.5545C60.9273 42.815 61.4078 41.1033 62.3461 39.6364C63.2845 38.1694 64.6384 37.0133 66.2364 36.3145C66.4859 36.5241 66.6881 36.784 66.8295 37.0772C66.9709 37.3704 67.0484 37.6902 67.0568 38.0155L68.7921 34.9313C69.0495 34.367 69.458 33.8844 69.9725 33.5364C71.0468 32.9478 72.3866 33.6424 73.3015 34.4723C74.2163 35.3021 75.1076 36.3321 76.3353 36.4675L76.3825 31.8531" fill="#3F3D56"/>
<path d="M84.4444 144.866C82.9275 144.101 57.8425 148.003 57.8425 148.003C57.8425 148.003 53.7108 146.826 43.724 145.189C33.7372 143.553 33.0998 133.818 33.0998 133.818L32.0078 114.331L35.3781 111.388L49.8153 120.805C49.8153 120.805 50.0395 125.566 49.8153 126.426C49.6736 127.014 49.2958 127.715 49.3313 128.191C49.3422 128.321 49.3956 128.442 49.4831 128.538C49.5706 128.634 49.6874 128.698 49.8153 128.721C50.795 128.968 64.1462 131.123 64.1462 131.123C64.1462 131.123 95.0923 129.01 102.807 139.404C103.418 140.167 103.88 141.037 104.17 141.97C106.082 149.074 85.8197 145.543 84.4444 144.866Z" fill="#FBBEBE"/>
<path opacity="0.1" d="M104.19 142.011C103.01 142.535 102.278 142.911 102.278 142.911C102.278 142.911 91.2051 142.588 84.984 140.339C78.763 138.091 71.202 138.491 71.202 138.491C71.202 138.491 45.2789 134.042 49.2984 128.232C49.3094 128.362 49.3627 128.483 49.4502 128.579C49.5377 128.675 49.6545 128.739 49.7824 128.762C50.7622 129.009 64.1133 131.164 64.1133 131.164C64.1133 131.164 95.0594 129.051 102.774 139.445C103.404 140.204 103.885 141.074 104.19 142.011Z" fill="black"/>
<path d="M114.954 107.722C114.954 107.722 116.477 118.44 116.584 119.311C116.69 120.182 117.239 130.676 116.584 131.871C115.928 133.066 114.954 135.008 114.954 135.008C114.954 135.008 116.041 137.28 111.696 138.151C107.352 139.022 102.253 141.612 102.253 141.612C102.253 141.612 91.1739 141.288 84.9882 139.016C78.8025 136.744 71.2003 137.174 71.2003 137.174C71.2003 137.174 38.2946 131.541 52.4131 124.667C66.5315 117.792 76.5183 127.103 76.5183 127.103L92.2599 126.132C92.2599 126.132 98.1269 122.554 99.7559 122.883C100.906 123.029 102.074 122.841 103.12 122.342L103.232 110.971L114.954 107.722Z" fill="#FBBEBE"/>
<path opacity="0.1" d="M35.1316 81.4119L31.9797 81.2471L22.4297 118.327C22.4297 118.327 32.7411 115.726 37.1856 118.327C41.6301 120.929 49.7812 121.464 49.7812 121.464L46.7415 91.9061L35.1316 81.4119Z" fill="black"/>
<path d="M35.1316 80.7586L31.9797 80.5938L22.4297 117.674C22.4297 117.674 32.7411 115.072 37.1856 117.674C41.6301 120.275 49.7812 120.811 49.7812 120.811L46.7415 91.2528L35.1316 80.7586Z" fill="#2F855A"/>
<path opacity="0.1" d="M107.362 88.8809L111.7 89.8579C111.7 89.8579 122.779 105.749 123.646 106.638C124.514 107.527 119.515 110.758 117.455 110.758C115.395 110.758 105.296 111.935 102.362 114.655C99.429 117.374 100.651 103.689 100.651 103.377C100.651 103.066 104.293 94.4311 104.293 94.4311L107.362 88.8809Z" fill="black"/>
<path d="M107.362 88.2344L111.7 89.2055C111.7 89.2055 122.779 105.126 123.646 105.992C124.514 106.857 119.515 110.112 117.455 110.112C115.395 110.112 105.296 111.289 102.362 114.008C99.429 116.727 100.651 103.043 100.651 102.731C100.651 102.419 104.316 93.7552 104.316 93.7552L107.362 88.2344Z" fill="#2F855A"/>
<g opacity="0.1">
<path opacity="0.1" d="M78.1545 27.5881C78.129 27.1368 78.1388 26.6842 78.184 26.2344C77.2853 27.5791 76.667 29.0903 76.366 30.6781V32.0436C76.366 32.0436 76.366 32.0142 76.366 31.9965V32.3202C76.366 33.2737 76.3661 34.2331 76.3365 35.1866H76.2539V35.628C76.2539 35.475 76.2539 35.3278 76.2244 35.1748C75.0439 34.9865 74.1999 33.9977 73.3205 33.209C72.441 32.4203 71.0658 31.6669 69.9915 32.2732C69.4769 32.6211 69.0685 33.1037 68.8111 33.6681L67.0581 36.7522C67.0503 36.4277 66.9731 36.1085 66.8316 35.8162C66.6901 35.5238 66.4876 35.265 66.2376 35.0571C64.6387 35.7546 63.2839 36.9105 62.3454 38.3777C61.4069 39.8449 60.927 41.5573 60.9668 43.2971C59.3542 42.2895 58.0051 40.9137 57.0312 39.2834C56.0572 37.6531 55.4862 35.815 55.3655 33.9212C55.2629 36.0359 55.7279 38.1396 56.7125 40.0153C57.6971 41.8911 59.1657 43.471 60.9668 44.592C60.9286 42.8525 61.4091 41.1408 62.3474 39.6739C63.2858 38.2069 64.6397 37.0508 66.2376 36.352C66.4872 36.5616 66.6894 36.8215 66.8308 37.1147C66.9722 37.4079 67.0497 37.7277 67.0581 38.0529L68.7933 34.9688C69.0508 34.4045 69.4592 33.9218 69.9738 33.5739C71.048 32.9853 72.3879 33.6798 73.3027 34.5097C74.2176 35.3396 75.1089 36.3696 76.3365 36.505C76.3365 34.9982 76.3523 33.4954 76.3838 31.9965C76.6733 30.424 77.2754 28.9251 78.1545 27.5881Z" fill="black"/>
<path opacity="0.1" d="M76.1557 33.5145C76.1854 33.1143 76.2327 32.714 76.292 32.3374L76.3571 30.7129C76.179 31.6356 76.1114 32.576 76.1557 33.5145Z" fill="black"/>
<path opacity="0.1" d="M94.0676 40.5362C92.4562 41.3955 90.4022 40.6775 89.0329 39.4768C87.6635 38.2761 86.7368 36.6575 85.5268 35.292C85.4373 35.5391 85.4249 35.8074 85.4913 36.0617C85.5577 36.3159 85.6997 36.5442 85.8987 36.7164C85.7806 36.7164 85.6685 36.6575 85.5563 36.6281C86.7368 37.9818 87.6753 39.5709 89.0329 40.7481C90.3904 41.9252 92.4562 42.6668 94.0676 41.8075C95.6789 40.9482 96.1393 38.9353 95.9977 36.9753C95.8914 38.5174 95.3366 39.8535 94.0676 40.5362Z" fill="black"/>
<path opacity="0.1" d="M85.5213 36.6163C83.5475 36.0799 81.7852 34.9547 80.4708 33.3915C79.1563 31.8283 78.3525 29.9017 78.1669 27.8701C77.8305 32.4904 81.3247 37.1225 85.899 38.0113C85.7042 37.8425 85.5642 37.6197 85.4969 37.3712C85.4296 37.1228 85.4381 36.8599 85.5213 36.6163Z" fill="black"/>
</g>
<path d="M246.553 172.106L245.278 177.52C245.278 177.52 235.067 172.312 233.231 165.719C231.395 159.127 236.306 156.614 236.306 156.614L245.827 160.628L246.553 172.106Z" fill="white"/>
<path opacity="0.1" d="M246.553 172.106L245.278 177.52C245.278 177.52 235.067 172.312 233.231 165.719C231.395 159.127 236.306 156.614 236.306 156.614L245.827 160.628L246.553 172.106Z" fill="black"/>
<path d="M189.244 356.395C189.244 356.395 179.801 359.856 173.308 360.291C169.861 360.521 168.049 358.413 167.116 356.383C166.61 355.263 166.279 354.072 166.137 352.851L166.993 343.523L167.441 338.561L181.235 334.982L183.189 340.945L183.372 341.392C184.151 343.387 187.303 351.474 187.208 353.163C187.201 353.6 187.282 354.034 187.447 354.439C187.613 354.844 187.859 355.211 188.17 355.518C188.49 355.854 188.851 356.149 189.244 356.395Z" fill="white"/>
<path d="M253.725 351.651C253.75 351.936 253.722 352.223 253.643 352.498C253.643 352.498 233.445 355.853 229.313 352.498C228.152 351.518 226.798 350.791 225.339 350.362C223.879 349.933 222.346 349.813 220.838 350.009C220.838 350.009 213.023 350.221 211.718 347.654C211.175 346.577 211.317 344.488 211.653 342.434C211.997 340.502 212.454 338.591 213.023 336.713L213.336 336.466L215.195 334.976L236.963 334.335H237.128C237.022 338.773 244.512 343.864 244.512 343.864C252.486 346.807 253.661 350.132 253.725 351.651Z" fill="white"/>
<path opacity="0.1" d="M253.731 351.65C253.752 351.935 253.722 352.222 253.643 352.497C253.643 352.497 233.445 355.852 229.319 352.497C228.157 351.516 226.802 350.788 225.342 350.36C223.881 349.931 222.347 349.811 220.837 350.008C220.837 350.008 213.017 350.219 211.712 347.653C211.175 346.576 211.311 344.487 211.647 342.427C214.657 342.727 219.409 343.474 221.274 345.264C224.095 347.971 228.876 350.679 231.804 350.896C234.118 351.038 247.876 351.473 253.731 351.65Z" fill="black"/>
<path opacity="0.1" d="M189.245 356.394C189.245 356.394 179.801 359.855 173.309 360.29C169.862 360.52 168.05 358.413 167.117 356.382C169.525 357.188 172.86 358.03 174.613 357.259C176.691 356.335 184.057 355.746 188.189 355.493C188.5 355.838 188.855 356.14 189.245 356.394Z" fill="black"/>
<path d="M203.26 77.4746C195.469 74.4553 185.447 64.4789 187.95 59.8174C188.503 58.6401 188.833 57.371 188.924 56.0741C189.085 54.3129 189.108 52.5418 188.995 50.7769C188.819 47.8845 188.47 45.0052 187.95 42.1543C187.95 42.1543 212.273 42.7017 210.857 46.2743C210.444 47.3279 210.373 49.1466 210.491 51.1772C210.609 53.2077 210.898 55.5208 211.205 57.469C211.624 60.1353 212.055 62.1776 212.055 62.1776C212.055 62.1776 210.562 64.2553 209.694 64.3671C208.826 64.4789 214.44 81.8007 203.26 77.4746Z" fill="#FBBEBE"/>
<path opacity="0.1" d="M183.348 341.362L183.165 341.562C175.893 332.792 167.099 343.728 167.099 343.728L166.969 343.492L167.417 338.531L181.211 334.952L183.165 340.914L183.348 341.362Z" fill="black"/>
<path opacity="0.1" d="M237.139 334.953C237.139 334.953 231.827 334.847 228.994 337.343C226.161 339.838 212.467 337.878 213.058 337.343C213.23 337.071 213.335 336.762 213.365 336.442L215.224 334.953L236.992 334.312C237.074 334.724 237.139 334.953 237.139 334.953Z" fill="black"/>
<path d="M192.4 266.084C192.005 267.06 191.705 268.071 191.503 269.104C191.011 271.932 190.874 274.811 191.096 277.673C191.314 281.793 191.096 309.403 191.096 309.403C191.096 309.403 186.427 316.766 183.818 319.362C181.209 321.958 189.13 326.619 189.13 326.619C190.311 333.335 183.157 340.916 183.157 340.916C175.885 332.146 167.091 343.076 167.091 343.076C167.091 343.076 162.31 334.836 161.117 331.893C159.925 328.95 165.786 326.919 167.846 325.719C169.906 324.518 167.74 317.479 167.74 317.479C167.74 317.479 166.005 311.304 163.939 305.672C161.873 300.039 166.217 272.005 166.217 272.005C166.217 272.005 166.441 267.02 166.978 265.284C167.247 264.031 167.3 262.741 167.138 261.47C167.102 261.04 167.061 260.687 167.032 260.44C167.002 260.193 166.978 260.087 166.978 260.087L167.061 259.945L170.012 254.46C170.012 254.46 193.817 262.629 192.4 266.084Z" fill="#2F855A"/>
<path d="M237.14 334.304C237.14 334.304 231.828 334.193 228.995 336.659C226.162 339.125 212.468 337.2 213.058 336.659C213.649 336.117 213.595 332.115 213.595 332.115C205.562 321.173 212.415 316.735 212.415 316.735C212.415 316.735 208.832 299.52 208.183 293.134C207.728 288.678 207.168 276.654 206.867 269.844C206.737 266.901 206.66 264.87 206.66 264.87L213.165 263.581L214.009 263.417L229.839 260.244C229.839 260.244 230.276 263.187 230.571 265.594C230.72 266.622 230.801 267.658 230.813 268.696C230.712 269.873 230.813 273.564 230.813 273.564L231.356 284.605C231.005 285.764 230.822 286.967 230.813 288.178C230.925 289.59 232.985 309.726 232.985 309.726C232.985 309.726 236.567 321.744 235.346 322.609C234.124 323.475 237.14 334.304 237.14 334.304Z" fill="#2F855A"/>
<path opacity="0.1" d="M210.856 46.2909C210.443 47.3445 210.372 49.1632 210.49 51.1938C207.232 53.1502 203.487 54.1504 199.684 54.0796C195.882 54.0088 192.176 52.8699 188.994 50.7935C188.818 47.9011 188.469 45.0218 187.949 42.1709C187.949 42.1709 212.273 42.7183 210.856 46.2909Z" fill="black"/>
<path d="M220.247 33.2963C220.311 38.6364 218.246 43.7833 214.504 47.6046C210.763 51.426 205.653 53.6087 200.297 53.6727C194.942 53.7367 189.781 51.6767 185.948 47.9459C182.116 44.2151 179.927 39.1191 179.863 33.7789C179.863 33.6141 179.863 33.4611 179.863 33.2963C179.863 27.9546 181.991 22.8316 185.779 19.0544C189.567 15.2773 194.704 13.1553 200.061 13.1553C205.418 13.1553 210.555 15.2773 214.343 19.0544C218.131 22.8316 220.259 27.9546 220.259 33.2963H220.247Z" fill="#FBBEBE"/>
<path opacity="0.1" d="M203.26 77.4748C195.469 74.4554 185.447 64.4791 187.95 59.8175C188.503 58.6402 188.833 57.3712 188.924 56.0742L199.589 64.8204L206.188 70.2177L211.205 57.4868C211.624 60.153 212.055 62.1954 212.055 62.1954C212.055 62.1954 210.562 64.2731 209.694 64.3849C208.826 64.4967 214.44 81.8008 203.26 77.4748Z" fill="black"/>
<path d="M230.843 116.126L221.937 265.329L210.321 266.089L180.236 179.574L185.171 76.8619L186.215 55.1611L199.59 66.1145L206.189 71.5117L211.354 58.4042L220.957 66.7502L230.843 116.126Z" fill="#2F855A"/>
<path opacity="0.1" d="M192.4 266.084C192.005 267.06 191.705 268.071 191.503 269.103C183.043 267.804 174.826 265.247 167.126 261.517L166.967 261.434L167.02 260.487V259.992L169.971 254.507C169.971 254.507 193.817 262.629 192.4 266.084Z" fill="black"/>
<path opacity="0.1" d="M213.356 269.127C211.195 269.496 209.016 269.745 206.828 269.875C206.698 266.932 206.621 264.901 206.621 264.901L213.161 263.583L213.356 269.127Z" fill="black"/>
<path opacity="0.1" d="M230.595 265.594C226.399 266.683 219.912 267.907 214.116 267.142L214.033 263.417L229.863 260.244C229.863 260.244 230.282 263.163 230.595 265.594Z" fill="black"/>
<path opacity="0.1" d="M214.011 267.825C189.811 271.945 167.648 260.132 167.648 260.132L167.86 256.13C167.86 256.13 168.409 210.757 166.886 207.278C165.363 203.8 164.177 186.184 165.039 183.494C165.9 180.804 161.893 140.193 161.893 140.193L161.244 123.712L137.463 114.078L148.087 91.9883C149.522 88.892 150.756 85.7072 151.782 82.4534C153.629 76.7148 162.206 71.0822 162.206 71.0822C162.206 71.0822 171 65.4554 174.477 65.6673C177.953 65.8792 182.51 60.6879 182.51 60.6879C185.874 52.136 188.92 55.9794 188.92 55.9794C188.92 56.3914 188.92 55.9793 188.754 57.2448C187.574 66.6325 207.843 96.2967 208.132 96.8264L210.086 143.712L212.039 203.046L214.011 267.825Z" fill="black"/>
<path d="M213.356 267.825C189.157 271.945 166.988 260.132 166.988 260.132L167.206 256.13C167.206 256.13 167.749 210.757 166.226 207.278C164.703 203.8 163.517 186.166 164.385 183.453C165.252 180.739 161.221 140.169 161.221 140.169L160.566 123.689L136.791 114.054L147.415 91.9648C148.847 88.8691 150.081 85.6864 151.11 82.4358C152.958 76.7148 161.563 71.0763 161.563 71.0763C161.563 71.0763 170.358 65.4495 173.828 65.6614C177.299 65.8733 181.879 60.6879 181.879 60.6879C185.249 52.136 188.962 55.9794 188.962 55.9794C188.962 56.3914 188.608 56.5679 188.797 57.2448C191.394 66.35 207.236 96.2967 207.525 96.8264L209.479 143.712L211.391 203.076L213.356 267.825Z" fill="white"/>
<path opacity="0.1" d="M206.838 98.1506C204.235 97.0677 190.447 81.3704 190.447 81.3704V77.7977C189.946 76.6206 186.959 77.3386 184.545 78.1626L185.584 56.4619L186.764 57.4389C189.344 66.5383 206.555 97.6268 206.838 98.1506Z" fill="black"/>
<path d="M207.491 96.8547C204.882 95.7658 191.094 80.0744 191.094 80.0744V76.4959C190.592 75.3187 187.611 76.0368 185.191 76.8608L186.213 55.1836L187.393 56.1547C189.996 65.2423 207.201 96.3249 207.491 96.8547Z" fill="white"/>
<path opacity="0.1" d="M167.646 175.138C167.971 175.138 184.474 173.407 184.474 173.407C184.474 173.407 194.467 193.007 193.812 197.768C193.156 202.53 191.97 206.756 187.951 206.008C183.931 205.261 166.318 206.597 166.318 206.597L167.646 175.138Z" fill="black"/>
<path d="M166.988 173.836C167.319 173.836 183.822 172.105 183.822 172.105C183.822 172.105 193.809 191.734 193.159 196.443C192.51 201.152 191.312 205.431 187.298 204.683C183.285 203.936 165.66 205.272 165.66 205.272L166.988 173.836Z" fill="white"/>
<path d="M179.429 164.659C179.429 164.659 194.574 172.781 194.899 175.253C195.224 177.725 187.191 174.17 185.455 173.735C184.312 173.464 183.15 173.283 181.979 173.193L170.404 173.505L179.429 164.659Z" fill="#FBBEBE"/>
<path opacity="0.1" d="M202.607 99.1636C203.487 99.1636 204.201 98.4521 204.201 97.5745C204.201 96.6968 203.487 95.9854 202.607 95.9854C201.727 95.9854 201.014 96.6968 201.014 97.5745C201.014 98.4521 201.727 99.1636 202.607 99.1636Z" fill="black"/>
<path d="M202.607 98.5162C203.487 98.5162 204.201 97.8047 204.201 96.927C204.201 96.0494 203.487 95.3379 202.607 95.3379C201.727 95.3379 201.014 96.0494 201.014 96.927C201.014 97.8047 201.727 98.5162 202.607 98.5162Z" fill="#3F3D56"/>
<path opacity="0.1" d="M205.539 167.956C206.419 167.956 207.133 167.244 207.133 166.366C207.133 165.489 206.419 164.777 205.539 164.777C204.659 164.777 203.945 165.489 203.945 166.366C203.945 167.244 204.659 167.956 205.539 167.956Z" fill="black"/>
<path d="M205.539 167.303C206.419 167.303 207.133 166.592 207.133 165.714C207.133 164.836 206.419 164.125 205.539 164.125C204.659 164.125 203.945 164.836 203.945 165.714C203.945 166.592 204.659 167.303 205.539 167.303Z" fill="#3F3D56"/>
<path opacity="0.1" d="M204.197 133.56C205.077 133.56 205.791 132.849 205.791 131.971C205.791 131.093 205.077 130.382 204.197 130.382C203.317 130.382 202.604 131.093 202.604 131.971C202.604 132.849 203.317 133.56 204.197 133.56Z" fill="black"/>
<path d="M204.197 132.913C205.077 132.913 205.791 132.201 205.791 131.324C205.791 130.446 205.077 129.734 204.197 129.734C203.317 129.734 202.604 130.446 202.604 131.324C202.604 132.201 203.317 132.913 204.197 132.913Z" fill="#3F3D56"/>
<path d="M240.933 172.866C240.933 172.866 242.019 174.491 240.933 175.221C239.847 175.951 241.04 177.822 241.04 177.822C241.04 177.822 238.33 179.4 239.523 180.83C240.715 182.26 239.96 188.681 239.96 188.681L236.701 194.09C236.701 194.09 236.896 197.557 236.908 202.242C236.908 209.552 236.477 219.829 234.093 224.514L234.411 262.954C234.411 262.954 223.002 267.115 213.452 265.844L212.035 204.161C212.035 204.161 214.101 169.182 214.863 162.472C215.308 158.989 215.49 155.477 215.406 151.966C215.406 151.966 215.081 141.466 213.989 136.598C213.989 136.598 212.809 115.48 212.691 109.636C212.638 106.84 212.785 98.6825 212.95 90.9251C213.133 82.4437 213.34 74.445 213.34 74.445L211.186 57.4411C211.186 57.4411 213.34 57.2292 213.989 58.0885C214.28 58.3594 214.596 58.6019 214.934 58.8125C218.658 61.3198 231.797 69.0301 231.797 69.0301C231.797 69.0301 239.068 71.9141 240.809 76.0459C242.551 80.1777 243.761 83.1088 244.605 84.286C245.449 85.4631 245.909 90.9957 245.909 90.9957C245.909 90.9957 248.412 101.178 250.365 102.903C252.319 104.627 253.724 115.575 253.724 115.575L236.459 129.112C236.459 129.112 234.943 151.631 234.618 152.502C234.293 153.373 240.933 172.866 240.933 172.866Z" fill="white"/>
<path d="M241.587 172.866C241.587 172.866 242.667 174.49 241.587 175.22C240.507 175.95 241.687 177.822 241.687 177.822C241.687 177.822 238.978 179.399 240.17 180.829C241.362 182.259 240.607 188.681 240.607 188.681L237.361 194.09C237.361 194.09 237.555 197.556 237.573 202.242C237.573 209.552 237.142 219.828 234.758 224.513L235.082 262.953C235.082 262.953 223.673 267.114 214.123 265.843L212.712 204.16C212.712 204.16 214.772 169.181 215.54 162.472C215.986 158.988 216.165 155.476 216.077 151.966C216.077 151.966 215.752 141.465 214.666 136.598C214.666 136.598 213.486 115.48 213.362 109.635C213.309 106.84 213.456 98.6819 213.621 90.9245C213.804 82.4431 214.011 74.4444 214.011 74.4444L211.166 57.2109C211.166 57.2109 214.011 57.2109 214.666 58.0879C214.954 58.362 215.271 58.6047 215.611 58.8119C219.329 61.3192 232.468 69.0295 232.468 69.0295C232.468 69.0295 239.722 71.9135 241.492 76.0453C243.263 80.1771 244.444 83.1082 245.288 84.2854C246.132 85.4625 246.592 90.9951 246.592 90.9951C246.592 90.9951 249.095 101.177 251.048 102.902C253.002 104.626 254.413 115.574 254.413 115.574L237.148 129.111C237.148 129.111 235.631 151.63 235.301 152.501C234.97 153.372 241.587 172.866 241.587 172.866Z" fill="white"/>
<path opacity="0.1" d="M220.912 79.4405L222.476 83.9725L214.266 92.2125C214.449 83.7312 214.655 75.7324 214.655 75.7324L211.811 58.5049C211.811 58.5049 214.655 58.5049 215.311 59.3819C215.599 59.656 215.915 59.8986 216.255 60.1058L223.232 80.1703L220.912 79.4405Z" fill="black"/>
<path d="M220.248 78.1397L221.812 82.6659L213.608 90.9059C213.785 82.4246 213.997 74.4258 213.997 74.4258L211.146 57.1924C211.146 57.1924 213.997 57.1924 214.647 58.0694C214.936 58.3418 215.252 58.5844 215.591 58.7933L222.609 78.8755L220.248 78.1397Z" fill="white"/>
<path opacity="0.1" d="M220.247 33.2963C220.25 35.417 219.915 37.5248 219.256 39.5411C219.145 39.5596 219.031 39.5556 218.921 39.5293C218.812 39.503 218.709 39.4549 218.618 39.388C218.459 34.0909 215.85 29.1115 212.633 24.8797C211.729 23.6033 210.634 22.472 209.387 21.5248C208.125 20.5802 206.555 20.1375 204.984 20.2829C203.213 20.5242 201.649 21.7249 199.861 21.8779C197.5 22.0722 195.386 20.4418 193.043 20.3653C192.09 20.3732 191.15 20.5842 190.286 20.9842C189.422 21.3841 188.653 21.9638 188.032 22.6843C186.8 24.1335 185.885 25.8235 185.347 27.646C184.419 30.4113 183.913 33.3002 183.847 36.2156C183.818 37.8636 183.658 39.9295 182.124 40.5299C182.24 39.3187 182.102 38.0967 181.719 36.9416C181.336 35.7864 180.716 34.7234 179.899 33.8201L179.863 33.7789C179.863 33.6141 179.863 33.4611 179.863 33.2963C179.863 27.9546 181.991 22.8316 185.779 19.0544C189.567 15.2773 194.704 13.1553 200.061 13.1553C205.418 13.1553 210.555 15.2773 214.343 19.0544C218.131 22.8316 220.259 27.9546 220.259 33.2963H220.247Z" fill="black"/>
<path d="M208.441 1.31894C205.374 -0.119751 201.886 -0.391857 198.632 0.553787C196.997 1.03642 195.456 1.81923 193.797 2.21357C190.256 3.067 186.124 2.14295 183.085 4.20885C181.397 5.386 180.381 7.24589 179.437 9.0587L177.076 13.5377C175.789 15.9921 174.491 18.4877 173.954 21.1892C173.417 23.8908 173.741 26.9161 175.459 29.0938C176.704 30.6712 178.558 31.6659 179.915 33.1549C180.731 34.0628 181.349 35.1292 181.731 36.287C182.113 37.4448 182.25 38.669 182.134 39.8824C183.669 39.2938 183.822 37.2161 183.858 35.5681C183.924 32.6528 184.43 29.7639 185.357 26.9984C185.896 25.176 186.811 23.486 188.043 22.0368C188.664 21.3155 189.432 20.7349 190.296 20.334C191.16 19.933 192.101 19.7209 193.054 19.7119C195.415 19.7943 197.534 21.4246 199.871 21.2245C201.642 21.0774 203.212 19.8767 204.994 19.6354C206.566 19.4871 208.136 19.93 209.397 20.8773C210.645 21.8215 211.738 22.9533 212.638 24.2322C215.86 28.4699 218.475 33.4257 218.629 38.7405C219.296 39.2231 220.258 38.5875 220.588 37.8341C220.919 37.0807 220.931 36.1979 221.35 35.4798C221.834 34.6499 222.76 34.2026 223.486 33.5787C225.328 31.9955 225.788 29.3292 225.717 26.9102C225.647 24.4911 225.174 22.0368 225.635 19.6589C225.912 18.2052 226.538 16.8338 226.88 15.3918C227.223 13.9498 227.264 12.3312 226.455 11.0893C225.275 9.27057 222.79 8.90566 220.624 8.73497C218.162 8.52308 215.961 8.79384 214.391 6.72795C213.652 5.65126 212.823 4.63918 211.912 3.70266C211.587 3.39072 208.441 1.44843 208.441 1.31894Z" fill="#2D2C3D"/>
<path opacity="0.1" d="M144.274 125.438L138.112 114.072L136.158 131.612C136.158 131.612 137.244 139.404 137.026 140.599C136.807 141.794 141.476 152.506 141.476 152.506C141.476 152.506 156.899 179.904 163.197 181.311L184.445 166.149L178.803 159.004C178.803 159.004 176.849 158.245 176.359 159.004C176.359 159.004 165.877 141.029 164.796 139.734C163.716 138.439 163.923 135.832 163.923 135.832C163.923 135.832 162.294 134.101 162.837 132.477C163.38 130.853 159.72 125.226 159.72 125.226L163.085 122.089L144.274 125.438Z" fill="black"/>
<path d="M138.432 112.771L136.803 114.072L134.85 131.612C134.85 131.612 135.936 139.404 135.717 140.599C135.499 141.794 140.174 152.506 140.174 152.506C140.174 152.506 155.59 179.904 161.888 181.311L183.172 166.149L177.524 159.004C177.524 159.004 175.57 158.245 175.08 159.004C175.08 159.004 164.603 141.029 163.517 139.734C162.431 138.439 162.65 135.832 162.65 135.832C162.65 135.832 161.021 134.101 161.564 132.477C162.107 130.852 158.412 125.226 158.412 125.226L161.776 122.089L138.432 112.771Z" fill="white"/>
<path opacity="0.1" d="M239.523 181.505C240.703 182.935 239.96 189.362 239.96 189.362L236.702 194.736C236.702 194.736 236.896 198.209 236.908 202.894L231.431 204.601C230.935 204.755 230.409 204.788 229.898 204.699C229.386 204.609 228.904 204.399 228.49 204.086C228.077 203.773 227.744 203.365 227.521 202.898C227.297 202.43 227.189 201.916 227.205 201.399L228.155 171.028L240.934 175.896C239.848 176.649 241.04 178.497 241.04 178.497C241.04 178.497 238.331 180.075 239.523 181.505Z" fill="black"/>
<path d="M240.173 180.857C241.354 182.281 240.61 188.708 240.61 188.708L237.364 194.088C237.364 194.088 237.558 197.554 237.576 202.239L231.998 203.976C231.514 204.127 231 204.161 230.5 204.074C230 203.987 229.528 203.782 229.124 203.476C228.72 203.17 228.394 202.772 228.176 202.315C227.957 201.859 227.851 201.356 227.867 200.85L228.817 170.374L241.59 175.253C240.498 176.007 241.69 177.855 241.69 177.855C241.69 177.855 238.981 179.426 240.173 180.857Z" fill="white"/>
<path d="M244.413 166.365C244.413 166.365 243.545 171.892 241.373 172.216C239.201 172.539 238.227 181.156 236.061 180.856C233.895 180.556 235.329 172.84 235.406 171.345C235.482 169.85 233.045 163.658 234.863 162.251C236.681 160.844 242.465 162.251 242.465 162.251L244.413 166.365Z" fill="#FBBEBE"/>
<path opacity="0.1" d="M249.005 123.813L253.095 115.573C253.095 115.573 254.73 121.853 254.73 125.208C254.73 128.563 257.008 128.893 257.008 128.893C257.008 128.893 259.505 131.836 258.189 133.984C256.873 136.132 256.347 141.453 256.347 141.453C256.347 141.453 256.778 151.629 254.824 153.036C252.871 154.443 252.434 157.803 252.434 157.803C252.434 157.803 248.851 164.189 248.963 165.708C249.076 167.227 243.97 177.509 243.97 177.509C243.97 177.509 246.467 164.731 231.917 159.21C231.917 159.21 231.805 154.878 232.891 153.689C233.977 152.5 235.671 151.924 234.609 145.944C233.546 139.964 234.302 132.754 234.302 131.312C234.302 129.87 237.56 120.882 237.56 120.882L249.005 123.813Z" fill="black"/>
<path d="M250.822 114.396L254.399 115.573C254.399 115.573 256.034 121.853 256.034 125.208C256.034 128.562 258.312 128.892 258.312 128.892C258.312 128.892 260.809 131.835 259.493 133.983C258.177 136.132 257.645 141.452 257.645 141.452C257.645 141.452 258.082 151.629 256.128 153.035C254.175 154.442 253.768 157.803 253.768 157.803C253.768 157.803 250.185 164.189 250.297 165.707C250.409 167.226 245.298 177.508 245.298 177.508C245.298 177.508 247.794 164.73 233.245 159.21C233.245 159.21 233.139 154.878 234.225 153.689C235.311 152.5 237.005 151.923 235.942 145.943C234.88 139.963 235.635 132.753 235.635 131.311C235.635 129.869 238.894 120.882 238.894 120.882L250.822 114.396Z" fill="white"/>
<path opacity="0.1" d="M171.801 327.971C171.801 327.971 177.502 324.399 181.245 326.994C184.987 329.59 171.801 327.971 171.801 327.971Z" fill="black"/>
<path opacity="0.1" d="M216.113 316.923C216.113 316.923 221.16 316.276 225.398 320.826C229.636 325.375 216.113 316.923 216.113 316.923Z" fill="black"/>
<g opacity="0.1">
<path opacity="0.1" d="M223.487 32.2822C222.761 32.912 221.828 33.3534 221.344 34.1833C220.931 34.8955 220.919 35.7783 220.589 36.5376C220.258 37.2969 219.296 37.9266 218.623 37.444C218.47 32.1468 215.855 27.1734 212.638 22.9356C211.739 21.6585 210.645 20.5287 209.398 19.5866C208.135 18.6375 206.563 18.1925 204.989 18.3389C203.218 18.5802 201.66 19.7809 199.871 19.9339C197.51 20.1281 195.391 18.4978 193.048 18.4213C192.096 18.4285 191.157 18.6392 190.293 19.0392C189.43 19.4393 188.662 20.0193 188.043 20.7403C186.811 22.1895 185.896 23.8795 185.357 25.7019C184.43 28.4674 183.924 31.3563 183.858 34.2716C183.823 35.9137 183.669 37.9619 182.146 38.5741C182.182 39.0108 182.182 39.4498 182.146 39.8866C183.687 39.298 183.84 37.2203 183.876 35.5723C183.942 32.657 184.448 29.7682 185.375 27.0027C185.914 25.1802 186.828 23.4902 188.061 22.041C188.681 21.3202 189.448 20.7398 190.311 20.3389C191.174 19.9379 192.114 19.7256 193.066 19.7161C195.427 19.7985 197.552 21.4289 199.889 21.2288C201.66 21.0816 203.23 19.8809 205.006 19.6396C206.58 19.4915 208.152 19.9344 209.415 20.8815C210.663 21.8257 211.756 22.9575 212.656 24.2364C215.873 28.4741 218.487 33.4299 218.641 38.7447C219.314 39.2274 220.276 38.5917 220.606 37.8383C220.937 37.085 220.949 36.2021 221.362 35.484C221.846 34.6542 222.778 34.2068 223.504 33.5829C225.346 31.9997 225.806 29.3334 225.735 26.9144C225.735 26.8379 225.735 26.7673 225.735 26.6907C225.617 28.7978 225.057 30.9344 223.487 32.2822Z" fill="black"/>
<path opacity="0.1" d="M179.909 31.8708C178.558 30.3818 176.705 29.3812 175.459 27.8038C174.407 26.4114 173.808 24.7313 173.742 22.9893C173.556 25.1675 174.166 27.3391 175.459 29.1045C176.705 30.6819 178.558 31.6766 179.909 33.1657C181.215 34.6215 182 36.4678 182.141 38.4158C182.229 37.2313 182.078 36.0411 181.694 34.9165C181.311 33.7919 180.704 32.756 179.909 31.8708Z" fill="black"/>
<path opacity="0.1" d="M226.88 14.0959C226.532 15.5379 225.912 16.9093 225.629 18.3631C225.459 19.3461 225.397 20.3448 225.446 21.3412C225.465 20.7784 225.526 20.2177 225.629 19.6638C225.912 18.21 226.532 16.8386 226.88 15.3966C227.08 14.6008 227.146 13.7773 227.075 12.96C227.037 13.3427 226.972 13.7223 226.88 14.0959Z" fill="black"/>
</g>
<defs>
<linearGradient id="paint0_linear" x1="72.5992" y1="350.532" x2="72.5992" y2="10.5418" gradientUnits="userSpaceOnUse">
<stop stop-color="#808080" stop-opacity="0.25"/>
<stop offset="0.54" stop-color="#808080" stop-opacity="0.12"/>
<stop offset="1" stop-color="#808080" stop-opacity="0.1"/>
</linearGradient>
</defs>
</svg>
