<svg width="251" height="216" viewBox="0 0 251 216" fill="none" xmlns="http://www.w3.org/2000/svg">
<path d="M0.716797 210.229V85.3789H209.192V210.229H0.716797Z" fill="white" stroke="black" stroke-width="0.5"/>
<path d="M52.7106 85.1289C52.4948 98.4372 47.0826 111.127 37.6411 120.462C28.1996 129.797 15.4853 135.03 2.23976 135.031C1.64647 135.031 1.05663 135.021 0.466797 135V85.1289H52.7106Z" fill="#2F855A"/>
<path d="M115.047 210.478H95.4551C96.1922 208.388 97.5268 206.583 99.2785 205.308C101.03 204.033 103.115 203.35 105.251 203.35C107.387 203.35 109.471 204.033 111.223 205.308C112.975 206.583 114.309 208.388 115.047 210.478Z" fill="#2F855A"/>
<path d="M209.441 145.725V187.904C204.159 187.639 199.178 185.302 195.531 181.376C191.884 177.45 189.85 172.236 189.85 166.814C189.85 161.393 191.884 156.179 195.531 152.253C199.178 148.327 204.159 145.989 209.441 145.725Z" fill="#2F855A"/>
<path d="M171.221 130.873H39.2812C35.878 130.873 33.1191 133.666 33.1191 137.111V137.111C33.1191 140.556 35.878 143.349 39.2812 143.349H171.221C174.624 143.349 177.383 140.556 177.383 137.111C177.383 133.666 174.624 130.873 171.221 130.873Z" fill="#C6C6C6"/>
<path d="M171.221 155.229H39.2812C35.878 155.229 33.1191 157.889 33.1191 161.17V161.17C33.1191 164.451 35.878 167.111 39.2812 167.111H171.221C174.624 167.111 177.383 164.451 177.383 161.17C177.383 157.889 174.624 155.229 171.221 155.229Z" fill="#C6C6C6"/>
<path d="M171.164 179.587H132.548C129.113 179.587 126.328 182.247 126.328 185.528C126.328 188.809 129.113 191.468 132.548 191.468H171.164C174.6 191.468 177.385 188.809 177.385 185.528C177.385 182.247 174.6 179.587 171.164 179.587Z" fill="#C6C6C6"/>
<path d="M242.69 39.394C242.69 39.394 248.568 41.6141 248.895 48.9087C249.222 56.2033 247.262 76.5013 247.262 76.5013C247.262 76.5013 254.447 86.6502 248.895 89.5046C243.343 92.359 242.69 78.087 242.69 78.087L236.158 47.9572C236.158 47.9572 240.077 39.0769 242.69 39.394Z" fill="#FBBEBE"/>
<path d="M183.787 62.722C183.787 62.722 170.347 71.6182 169.721 64.6283C169.096 57.6384 173.785 30.3143 173.785 30.3143C173.785 30.3143 174.41 18.5585 180.974 21.418C187.537 24.2775 179.098 34.1269 179.098 34.1269L180.036 56.3675L186.287 56.0498L183.787 62.722Z" fill="#FBBEBE"/>
<path d="M205.871 71.2006C205.871 71.2006 163.967 55.516 166.189 73.7613C168.411 92.0066 179.204 115.053 179.204 115.053L183.014 121.135H190.95L185.871 88.1655C185.871 88.1655 203.966 98.4084 209.363 96.808C209.363 96.808 216.347 143.862 218.886 147.383C221.426 150.904 225.87 193.476 225.87 193.476L229.997 198.597H237.933V126.577C237.933 126.577 251.584 81.7636 241.108 79.523C230.632 77.2823 205.871 71.2006 205.871 71.2006Z" fill="#2F2E41"/>
<path d="M182.074 116.949C182.074 116.949 180.167 113.524 176.988 116.949C173.809 120.374 166.179 124.421 166.179 124.421C166.179 124.421 149.648 128.158 163 131.271C176.352 134.385 177.942 131.271 177.942 131.271C177.942 131.271 180.167 131.894 182.074 132.517C183.982 133.139 196.38 130.96 196.38 129.092C196.38 127.224 192.171 116.059 190.461 117.749C188.75 119.44 182.074 116.949 182.074 116.949Z" fill="#2F2E41"/>
<path d="M230.717 195.045C230.717 195.045 226.003 191.149 224.893 192.262C223.784 193.375 217.961 200.888 217.961 200.888C217.961 200.888 202.432 212.853 216.574 214.801C230.717 216.748 229.885 211.462 229.885 211.462H234.322C234.876 211.462 242.364 208.123 242.086 206.731C241.809 205.34 238.481 193.996 237.372 194.798C236.263 195.601 230.717 195.045 230.717 195.045Z" fill="#2F2E41"/>
<path d="M188.071 26.9104C193.973 26.9104 198.757 21.9899 198.757 15.9201C198.757 9.85025 193.973 4.92969 188.071 4.92969C182.169 4.92969 177.385 9.85025 177.385 15.9201C177.385 21.9899 182.169 26.9104 188.071 26.9104Z" fill="#FBBEBE"/>
<path d="M195.912 15.0283C195.912 15.0283 204.15 22.0818 209.854 22.0818C215.557 22.0818 201.615 35.2269 201.615 35.2269L189.258 24.0055L195.912 15.0283Z" fill="#FBBEBE"/>
<path d="M199.084 34.9556L198.835 32.4311C198.835 32.4311 205.169 21.1768 207.09 20.2154C209.011 19.2541 210.292 19.2541 210.292 19.2541C210.292 19.2541 216.696 12.5249 223.741 16.0498C230.786 19.5746 247.437 42.0052 247.437 42.0052C247.437 42.0052 235.589 42.9665 237.19 52.2592C237.19 52.2592 249.038 82.7009 245.836 83.0213C242.634 83.3417 233.028 81.0987 223.101 85.5848C213.174 90.0709 208.691 87.187 208.691 87.187L203.567 70.5242C203.567 70.5242 193.961 65.0768 194.281 60.2702L180.352 66.5187L181.632 54.6625L190.118 44.8892C190.118 44.8892 188.517 43.6074 199.084 34.9556Z" fill="#2F855A"/>
<path d="M178.082 17.1509C177.65 17.6277 177.108 17.9939 176.502 18.2184C175.882 18.3918 175.102 18.1791 174.855 17.5893L175.315 16.9952L173.935 16.145L174.536 15.4455L173.425 14.2488L174.302 13.5587L172.633 12.3744C174.797 8.872 177.137 5.32579 180.553 3.00406C183.969 0.682333 188.742 -0.142658 192.241 2.05338C194.058 3.19354 195.343 5.00315 196.372 6.8756C198.442 10.6413 200.266 14.312 200.536 18.5927C199.236 17.3368 197.338 16.6291 196.037 15.3732C195.462 14.7672 194.809 14.2376 194.097 13.7975C192.737 13.0368 191.11 12.9695 189.588 12.6263C188.308 12.3378 187.477 11.7655 186.509 10.9472C185.356 9.97388 185.31 10.3502 184.146 11.4461C182.126 13.3491 180.105 15.2507 178.082 17.1509Z" fill="#2F2E41"/>
</svg>
