<svg width="223" height="152" viewBox="0 0 223 152" fill="none" xmlns="http://www.w3.org/2000/svg">
<g clip-path="url(#clip0)">
<path d="M137.4 39.9092H173.655H173.655C174.51 39.9102 175.331 40.2464 175.936 40.8444C176.541 41.4424 176.882 42.2535 176.883 43.0998V43.0999V122.941L177.229 123.045L177.229 123.045L186.156 125.746C186.554 125.866 186.984 125.825 187.351 125.632C187.718 125.439 187.993 125.11 188.115 124.718C188.115 124.718 188.115 124.718 188.115 124.718L214.669 39.0133C214.79 38.6209 214.749 38.197 214.554 37.8345C214.359 37.4721 214.026 37.2006 213.628 37.0801L199.871 32.918L159.99 20.8561L160.019 20.7604L159.99 20.8561L146.234 16.6939L146.233 16.6939C146.037 16.634 145.83 16.6131 145.624 16.6323C145.419 16.6515 145.22 16.7106 145.038 16.8059C144.856 16.9013 144.695 17.0311 144.564 17.188C144.433 17.3448 144.335 17.5255 144.275 17.7198L144.275 17.7199L137.487 39.6266L137.487 39.6267L137.4 39.9092Z" fill="#C6F6D5" stroke="black" stroke-width="0.2"/>
<path d="M129.323 39.5974L137.503 13.1946C137.64 12.7547 137.862 12.3456 138.158 11.9907C138.454 11.6358 138.818 11.342 139.23 11.1262C139.641 10.9103 140.091 10.7766 140.554 10.7328C141.018 10.6889 141.485 10.7357 141.931 10.8704L161.272 16.7201L201.15 28.7841L220.491 34.6358C221.39 34.9084 222.142 35.5221 222.583 36.3423C223.024 37.1624 223.118 38.1219 222.844 39.0102L194.884 129.244C194.661 129.961 194.212 130.589 193.602 131.035C192.991 131.481 192.253 131.722 191.493 131.723C191.142 131.723 190.793 131.671 190.457 131.568L177.199 127.559L176.782 127.431V127L177.199 127.126L190.58 131.175C191.373 131.414 192.23 131.332 192.962 130.947C193.694 130.563 194.242 129.908 194.486 129.124L222.443 38.8886C222.564 38.5006 222.606 38.0929 222.567 37.6888C222.528 37.2847 222.409 36.8922 222.216 36.5337C222.023 36.1752 221.761 35.8578 221.444 35.5997C221.127 35.3415 220.761 35.1477 220.368 35.0294L201.027 29.1777L161.148 17.1157L141.807 11.264C141.509 11.1741 141.199 11.1283 140.888 11.128C140.219 11.1295 139.568 11.3425 139.031 11.7359C138.494 12.1293 138.098 12.6824 137.902 13.3142L129.759 39.5974L129.629 40.0095H129.196L129.323 39.5974Z" fill="#3F3D56"/>
<path d="M197.418 37.052C197.819 37.0517 198.211 36.9242 198.534 36.6881C198.857 36.452 199.095 36.1198 199.213 35.7402L201.899 27.0714C201.971 26.8386 201.996 26.5939 201.973 26.3515C201.949 26.1091 201.878 25.8736 201.762 25.6586C201.646 25.4435 201.489 25.253 201.299 25.0981C201.109 24.9431 200.89 24.8267 200.654 24.7554L163.966 13.657C163.49 13.5135 162.976 13.5624 162.536 13.7931C162.097 14.0237 161.768 14.4172 161.622 14.8872L158.936 23.5561C158.791 24.0263 158.84 24.5343 159.074 24.9685C159.307 25.4027 159.705 25.7277 160.181 25.8722L196.869 36.9706C197.047 37.0245 197.232 37.0519 197.418 37.052Z" fill="#2F855A"/>
<path d="M183.347 19.9772C181.044 19.9772 179.176 18.1322 179.176 15.8563C179.176 13.5804 181.044 11.7354 183.347 11.7354C185.65 11.7354 187.518 13.5804 187.518 15.8563C187.518 18.1322 185.65 19.9772 183.347 19.9772Z" fill="#2F855A"/>
<path d="M183.347 18.4661C181.889 18.4661 180.706 17.2978 180.706 15.8566C180.706 14.4154 181.889 13.2471 183.347 13.2471C184.806 13.2471 185.988 14.4154 185.988 15.8566C185.988 17.2978 184.806 18.4661 183.347 18.4661Z" fill="white"/>
<path d="M95.6613 128.918C95.6619 129.355 95.838 129.775 96.1514 130.085C96.4649 130.394 96.8901 130.569 97.334 130.569H167.816C168.26 130.569 168.685 130.394 168.999 130.085L169.069 130.156M95.6613 128.918V128.918H95.5613M95.6613 128.918V45.4693C95.6619 45.0318 95.838 44.6122 96.1514 44.3025C96.4648 43.9927 96.89 43.8183 97.3338 43.8178L167.816 43.8178C168.26 43.8183 168.685 43.9927 168.999 44.3024C169.312 44.6121 169.488 45.0318 169.489 45.4692L169.489 128.918M95.6613 128.918L95.5613 128.918M95.5613 128.918C95.5619 129.382 95.7488 129.827 96.0811 130.156C96.4134 130.484 96.8639 130.669 97.3338 130.669H167.816C168.286 130.669 168.737 130.484 169.069 130.156M95.5613 128.918V45.4692C95.5619 45.0048 95.7488 44.5597 96.0811 44.2313C96.4134 43.903 96.8639 43.7183 97.3338 43.7178L169.489 128.918M169.069 130.156L168.999 130.085C169.312 129.775 169.488 129.355 169.489 128.918M169.069 130.156L169.489 128.918" fill="#C6F6D5" stroke="black" stroke-width="0.2"/>
<path d="M129.759 39.5977H173.654C174.594 39.599 175.495 39.9684 176.159 40.6251C176.824 41.2817 177.198 42.1718 177.199 43.1004V127.126L176.782 127V43.1004C176.781 42.281 176.451 41.4955 175.865 40.9161C175.279 40.3367 174.484 40.0107 173.654 40.0097H129.63L129.759 39.5977ZM91.4941 39.5977H173.654C174.594 39.599 175.495 39.9684 176.159 40.6251C176.824 41.2817 177.198 42.1718 177.199 43.1004V137.47C177.198 138.398 176.824 139.288 176.159 139.945C175.495 140.602 174.594 140.971 173.654 140.972H91.4941C90.5543 140.971 89.6534 140.602 88.9889 139.945C88.3244 139.288 87.9505 138.398 87.9491 137.47V43.1004C87.9505 42.1718 88.3244 41.2817 88.9889 40.6251C89.6534 39.9684 90.5543 39.599 91.4941 39.5977ZM88.3662 137.47C88.3672 138.289 88.6971 139.075 89.2835 139.654C89.8698 140.233 90.6649 140.559 91.4941 140.56H173.654C174.484 140.559 175.279 140.233 175.865 139.654C176.451 139.075 176.781 138.289 176.782 137.47V43.1004C176.781 42.281 176.451 41.4955 175.865 40.9161C175.279 40.3367 174.484 40.0107 173.654 40.0097H91.4941C90.6649 40.0107 89.8698 40.3367 89.2835 40.9161C88.6971 41.4955 88.3672 42.281 88.3662 43.1004V137.47Z" fill="#3F3D56"/>
<path d="M113.39 48.6635H151.759C152.257 48.663 152.734 48.4674 153.085 48.1198C153.437 47.7721 153.635 47.3008 153.636 46.8091V37.7431C153.635 37.2514 153.437 36.7801 153.085 36.4324C152.734 36.0848 152.257 35.8892 151.759 35.8887H113.39C112.892 35.8892 112.415 36.0848 112.063 36.4324C111.712 36.7801 111.514 37.2514 111.513 37.7431V46.8091C111.514 47.3008 111.711 47.7721 112.063 48.1198C112.415 48.4674 112.892 48.663 113.39 48.6635Z" fill="#2F855A"/>
<path d="M132.575 36.5065C130.271 36.5065 128.404 34.6615 128.404 32.3856C128.404 30.1096 130.271 28.2646 132.575 28.2646C134.878 28.2646 136.745 30.1096 136.745 32.3856C136.745 34.6615 134.878 36.5065 132.575 36.5065Z" fill="#2F855A"/>
<path d="M132.574 34.896C131.171 34.896 130.034 33.7723 130.034 32.386C130.034 30.9998 131.171 29.876 132.574 29.876C133.977 29.876 135.114 30.9998 135.114 32.386C135.114 33.7723 133.977 34.896 132.574 34.896Z" fill="white"/>
</g>
<path d="M95.8828 107.855C95.8828 107.855 116.097 108.889 111.389 115.181C106.68 121.473 94.3086 111.49 94.3086 111.49L95.8828 107.855Z" fill="#FFB8B8"/>
<path d="M58.6318 47.9268L62.7462 48.9438C62.7462 48.9438 65.1463 56.0633 66.8607 62.5047C68.5751 68.9461 72.0038 88.2704 72.0038 88.2704L98.5857 106.69L95.4153 113.703L60.0033 99.9034L52.1172 69.2851L58.6318 47.9268Z" fill="#2F855A"/>
<path opacity="0.2" d="M62.5022 60.5635L60.9687 92.3163L64.1687 101.757L54.7949 94.9598L62.5022 60.5635Z" fill="black"/>
<path d="M68.0596 116.917C68.0596 116.917 72.517 128.783 73.2027 136.919C73.8885 145.056 74.5742 151.497 74.5742 151.497H53.659L49.5445 145.395V151.497H25.2006C25.2006 151.497 18.3431 129.461 21.0861 126.749C23.8291 124.037 49.8874 112.51 49.8874 112.51L68.0596 116.917Z" fill="#2F2E41"/>
<path d="M41.8299 35.043C49.0257 35.043 54.8591 29.2752 54.8591 22.1602C54.8591 15.0452 49.0257 9.27734 41.8299 9.27734C34.6341 9.27734 28.8008 15.0452 28.8008 22.1602C28.8008 29.2752 34.6341 35.043 41.8299 35.043Z" fill="#FFB8B8"/>
<path d="M31.888 27.584L30.8594 42.5009L43.8885 59.7911L50.4031 43.518C50.4031 43.518 44.5743 39.7888 48.003 31.9913L31.888 27.584Z" fill="#FFB8B8"/>
<path d="M69.9458 119.798C69.9458 122.85 61.374 127.596 61.374 127.596V129.291L57.9453 130.986L50.4026 116.07L48.3466 132.341C48.3466 132.341 33.259 134.716 28.4597 132.341C23.6582 129.968 21.2586 130.986 14.4011 128.613C7.54373 126.24 17.1445 94.3713 17.1445 94.3713L10.2871 45.2133L25.2684 37.8068L26.0579 37.4154L28.1181 37.0406L31.276 36.4639L41.8308 43.5182L42.6807 47.9259L43.2036 50.6385L45.9449 47.586L48.0154 40.853L62.7468 48.9434L58.6327 81.4881C58.6327 81.4881 69.9458 116.747 69.9458 119.798Z" fill="#2F855A"/>
<path d="M19.544 130.309C19.544 130.309 35.3161 142.852 27.7729 145.226C20.2297 147.599 16.1152 132.343 16.1152 132.343L19.544 130.309Z" fill="#FFB8B8"/>
<path d="M13.7149 45.8929L10.2862 45.2148C10.2862 45.2148 5.14309 47.927 4.80021 53.3514C4.45734 58.7757 0 96.7461 0 96.7461L14.4006 135.056L26.0583 130.648L14.7435 94.712L23.3153 63.522L13.7149 45.8929Z" fill="#2F855A"/>
<path d="M43.3387 56.2372C44.029 56.2372 44.5885 55.6839 44.5885 55.0014C44.5885 54.3189 44.029 53.7656 43.3387 53.7656C42.6484 53.7656 42.0889 54.3189 42.0889 55.0014C42.0889 55.6839 42.6484 56.2372 43.3387 56.2372Z" fill="#2F2E41"/>
<path d="M43.3387 64.2704C44.029 64.2704 44.5885 63.7171 44.5885 63.0346C44.5885 62.3521 44.029 61.7988 43.3387 61.7988C42.6484 61.7988 42.0889 62.3521 42.0889 63.0346C42.0889 63.7171 42.6484 64.2704 43.3387 64.2704Z" fill="#2F2E41"/>
<path d="M50.4198 117.202C51.11 117.202 51.6696 116.649 51.6696 115.966C51.6696 115.284 51.11 114.73 50.4198 114.73C49.7295 114.73 49.1699 115.284 49.1699 115.966C49.1699 116.649 49.7295 117.202 50.4198 117.202Z" fill="#2F2E41"/>
<path d="M30.8299 8.96243L28.4214 8.00902C28.4214 8.00902 33.4574 2.52697 40.464 3.00368L38.4934 0.858515C38.4934 0.858515 43.3104 -1.04827 47.6895 3.95707C49.9915 6.58826 52.655 9.6811 54.3153 13.1651H56.8947L55.8182 15.5089L59.586 17.8527L55.7187 17.4317C55.9491 18.7151 55.9845 20.0254 55.8236 21.3192C55.6577 22.6134 54.9898 23.7933 53.9608 24.6097C53.9608 24.6097 50.9738 18.4964 50.9738 17.543V19.9265C50.9738 19.9265 48.5653 17.7814 48.5653 16.3513L47.2515 18.0197H38.4934L39.8071 15.8746L34.7711 16.5896L36.7417 13.9678L28.9447 24.7943C28.9447 24.7943 24.4802 12.5377 30.8299 8.96243Z" fill="#2F2E41"/>
<path opacity="0.2" d="M17.8213 104.488L26.1525 130.22L19.4867 103.444L17.8213 104.488Z" fill="black"/>
<defs>
<clipPath id="clip0">
<rect width="135.05" height="130.257" fill="white" transform="matrix(-1 0 0 1 223 10.7148)"/>
</clipPath>
</defs>
</svg>
