<svg width="28" height="28" viewBox="0 0 28 28" fill="none" xmlns="http://www.w3.org/2000/svg">
<path d="M8.75 5.25C8.75 3.85761 9.30312 2.52226 10.2877 1.53769C11.2723 0.553123 12.6076 0 14 0C15.3924 0 16.7277 0.553123 17.7123 1.53769C18.6969 2.52226 19.25 3.85761 19.25 5.25V14C19.25 15.3924 18.6969 16.7277 17.7123 17.7123C16.7277 18.6969 15.3924 19.25 14 19.25C12.6076 19.25 11.2723 18.6969 10.2877 17.7123C9.30312 16.7277 8.75 15.3924 8.75 14V5.25Z" fill="#2F855A"/>
<path fill-rule="evenodd" clip-rule="evenodd" d="M6.125 11.375C6.35706 11.375 6.57962 11.4672 6.74372 11.6313C6.90781 11.7954 7 12.0179 7 12.25V14C7 15.8565 7.7375 17.637 9.05025 18.9497C10.363 20.2625 12.1435 21 14 21C15.8565 21 17.637 20.2625 18.9497 18.9497C20.2625 17.637 21 15.8565 21 14V12.25C21 12.0179 21.0922 11.7954 21.2563 11.6313C21.4204 11.4672 21.6429 11.375 21.875 11.375C22.1071 11.375 22.3296 11.4672 22.4937 11.6313C22.6578 11.7954 22.75 12.0179 22.75 12.25V14C22.75 16.1692 21.9443 18.261 20.4892 19.8697C19.0341 21.4785 17.0333 22.4893 14.875 22.7063V26.25H20.125C20.3571 26.25 20.5796 26.3422 20.7437 26.5063C20.9078 26.6704 21 26.8929 21 27.125C21 27.3571 20.9078 27.5796 20.7437 27.7437C20.5796 27.9078 20.3571 28 20.125 28H7.875C7.64294 28 7.42038 27.9078 7.25628 27.7437C7.09219 27.5796 7 27.3571 7 27.125C7 26.8929 7.09219 26.6704 7.25628 26.5063C7.42038 26.3422 7.64294 26.25 7.875 26.25H13.125V22.7063C10.9667 22.4893 8.96591 21.4785 7.51079 19.8697C6.05567 18.261 5.24997 16.1692 5.25 14V12.25C5.25 12.0179 5.34219 11.7954 5.50628 11.6313C5.67038 11.4672 5.89294 11.375 6.125 11.375Z" fill="#2F855A"/>
</svg>
