<svg width="245" height="223" viewBox="0 0 245 223" fill="none" xmlns="http://www.w3.org/2000/svg">
<g opacity="0.5">
<path opacity="0.5" d="M81.1236 148.119C81.1236 148.119 35.3755 125.107 54.9264 73.7085C74.4774 22.3098 3.69235 4.48145 3.69235 4.48145C3.69235 4.48145 -10.1733 54.5286 15.8771 87.8567C41.9275 121.185 51.9772 176.517 81.1236 148.119Z" fill="#48BB78"/>
<path opacity="0.5" d="M3.69336 4.48145C3.69336 4.48145 22.9951 37.7242 32.7346 80.967C42.4741 124.21 58.3309 159.894 80.8892 147.304" stroke="white" stroke-miterlimit="10"/>
</g>
<g opacity="0.5">
<path opacity="0.5" d="M71.2963 156.525C71.2963 156.525 53.0025 130.423 77.2723 105.262C101.542 80.1003 68.4578 50.2598 68.4578 50.2598C68.4578 50.2598 47.5914 76.1669 52.5733 103.024C57.5552 129.881 48.076 165.424 71.2963 156.525Z" fill="#88A494"/>
<path opacity="0.5" d="M68.4612 50.2598C68.4612 50.2598 69.8458 75.231 63.4488 103.527C57.0519 131.824 55.9358 157.307 71.3883 155.983" stroke="white" stroke-miterlimit="10"/>
</g>
<g opacity="0.1">
<path opacity="0.1" d="M17.3705 197.674C17.6918 199.636 18.8355 201.131 19.921 202.502L32.8396 218.78C33.8781 220.09 34.9941 221.453 36.3898 221.808C39.3058 222.576 41.6514 218.855 44.1437 216.677C53.0054 208.937 65.1153 220.721 75.1317 216.215C79.1389 214.412 82.3844 210.129 86.4691 208.678C97.2831 204.825 106.447 221.849 117.612 222.716C121.279 222.992 124.876 221.494 128.379 220.005L151.746 210.063C153.369 209.372 155.019 208.687 156.731 208.645C159.605 208.596 162.283 210.434 164.989 211.758C175.88 217.093 187.974 214.214 199.161 210.173C210.349 206.132 221.617 200.933 233.182 201.794C236.192 202.02 240.169 201.83 240.991 197.905C241.481 195.571 234.865 198.018 233.334 196.76C231.803 195.502 235.447 190.253 233.661 190.03C223.268 188.736 212.678 188.7 202.52 191.956C197.259 193.641 192.083 196.206 186.68 196.732C181.048 197.283 175.445 195.587 169.915 194.046C155.911 190.143 141.669 187.164 127.371 187.77C101.96 188.871 76.9318 201.329 51.6484 197.718C44.1366 196.613 36.8803 194.198 30.2144 190.583C26.8026 188.752 26.9549 195.235 23.474 197.418C22.3413 198.128 19.3755 191.505 18.4893 192.78C17.9845 193.48 17.6255 194.274 17.4334 195.114C17.2413 195.955 17.2199 196.825 17.3705 197.674Z" fill="#6C63FF"/>
</g>
<path d="M235.29 166.287L194.901 113.713C191.746 98.9535 187.011 98.9535 187.011 98.9535C154.827 94.6485 145.993 89.1131 145.993 89.1131L138.793 86.311L138.192 85.9586C138.164 85.8018 138.134 85.6449 138.106 85.4825C138.078 85.3201 138.05 85.1053 138.028 84.9154C145.892 80.2171 151.566 72.6176 153.813 63.7757C153.871 63.5445 153.924 63.3078 153.979 63.0738C155.525 62.3374 156.829 61.1819 157.743 59.7405C160.836 54.7005 157.898 48.3201 157.964 42.4488C158.006 38.7384 159.293 35.1022 159.147 31.3945C159.025 28.2896 157.906 25.3086 156.685 22.4404C156.092 21.0449 155.439 19.619 154.303 18.5868C151.293 15.87 146.419 17.0344 142.553 15.6966C137.552 13.9653 135.223 8.57024 132.332 4.2322C131.224 2.55863 129.208 0.791487 127.389 1.70809C125.254 2.78159 125.832 6.45627 123.675 7.48848C122.368 8.11331 120.77 7.32608 119.837 6.23607C118.904 5.14605 118.369 3.77802 117.45 2.677C116.626 1.72433 115.558 1.01067 114.359 0.61144C113.161 0.212206 111.876 0.142221 110.64 0.40888C110.15 0.487691 109.698 0.717868 109.347 1.06674C108.658 1.86499 109.09 3.0541 109.137 4.09457C109.3 7.59858 104.983 9.54465 101.416 9.91625C97.8491 10.2878 93.6454 10.3319 91.5103 13.1533C90.3804 14.6479 90.1395 16.594 89.3779 18.2951C87.6112 22.2395 83.3382 24.4003 79.5831 26.6656C75.828 28.931 71.9621 32.2341 71.9953 36.5391C72.0285 40.6679 75.695 44.0123 76.3403 48.0999C76.6837 50.2661 76.1492 52.504 76.5756 54.6592C77.3594 58.6119 81.0757 61.2654 84.504 63.5087C84.7367 63.6601 84.972 63.8115 85.213 63.9546C85.2739 64.1969 85.3348 64.4363 85.4013 64.6758C86.7178 69.2846 88.9813 73.5721 92.049 77.2675C95.1166 80.9629 98.9218 83.986 103.224 86.1458C103.28 86.377 103.332 86.611 103.385 86.8505C103.548 87.5882 103.701 88.3561 103.836 89.1434L103.731 89.1709V89.0938L63.8398 99.204C63.5997 99.1181 63.3434 99.0861 63.0894 99.1104C61.4555 98.9783 56.3462 100.729 50.384 124.47L24.8293 169.361C24.8293 169.361 9.99987 183.507 21.3594 195.511C27.1499 201.624 33.6798 203.102 38.6894 203.083C41.5986 203.124 44.4909 202.637 47.2243 201.646C47.2243 201.646 47.0193 201.332 46.7036 200.776L50.0821 201.187C56.7284 208.53 68.0491 205.951 68.0491 205.951C68.0491 205.951 84.1523 205.77 84.745 197.399L113.687 206.224L113.803 207.796H129.001L128.976 206.794L160.949 197.22C163.442 201.8 169.534 204.066 169.534 204.066C169.534 204.066 188.299 204.85 194.197 201.454C196.676 200.008 199.375 198.975 202.189 198.395L202.353 198.379L202.314 198.418L238.442 194.564C254.852 180.429 235.29 166.287 235.29 166.287ZM53.4413 178.789L52.6465 178.332C54.0666 177.793 55.5267 177.364 57.0136 177.049L64.042 168.426L65.2577 176.931C61.2254 176.007 56.9896 176.673 53.4413 178.789ZM189.376 178.72C186.759 176.755 183.558 175.714 180.279 175.761L180.556 154.825C183.195 156.501 185.41 158.351 186.067 160.135C187.961 165.365 197.11 173.664 197.11 173.664L192.358 177.545L191.619 178.148C191.42 178.194 191.22 178.241 191.021 178.294L189.376 178.72Z" fill="url(#paint0_linear)"/>
<path d="M46.0523 201.841L53.4268 202.757L57.7275 181.683L49.4308 176.795L38.6777 188.402L46.0523 201.841Z" fill="#EFB7B9"/>
<path opacity="0.03" d="M46.0523 201.841L53.4268 202.757L57.7275 181.683L49.4308 176.795L38.6777 188.402L46.0523 201.841Z" fill="black"/>
<path d="M144.979 98.3065L127.159 114.189C127.159 114.189 92.7457 121.824 101.35 111.134C106.224 105.078 105.576 95.887 104.097 89.0552C103.435 85.9571 102.517 82.9188 101.35 79.9717C101.35 79.9717 145.603 53.4122 139.458 73.572C137.635 79.5506 137.381 84.1611 137.921 87.6844C139.211 96.0412 144.979 98.3065 144.979 98.3065Z" fill="#EFB7B9"/>
<path opacity="0.1" d="M139.458 73.571C137.636 79.5495 137.381 84.1601 137.921 87.6834C132.879 90.786 127.118 92.5428 121.193 92.7839C115.269 93.025 109.382 91.7422 104.103 89.0597C103.441 85.9615 102.522 82.9233 101.355 79.9762C101.355 79.9762 145.603 53.4112 139.458 73.571Z" fill="black"/>
<path d="M154.208 57.9915C154.208 64.7562 152.19 71.3691 148.409 76.994C144.628 82.6189 139.255 87.0032 132.967 89.5925C126.68 92.1819 119.761 92.8601 113.086 91.5414C106.411 90.2227 100.279 86.9662 95.4653 82.1838C90.6519 77.4013 87.3732 71.3077 86.0438 64.6732C84.7144 58.0388 85.3939 51.1615 87.9965 44.9109C90.599 38.6603 95.0078 33.3171 100.665 29.5568C106.323 25.7965 112.975 23.7881 119.781 23.7853C124.305 23.7704 128.787 24.6449 132.97 26.3585C137.153 28.0721 140.953 30.5909 144.153 33.77C147.353 36.9492 149.888 40.7258 151.614 44.8827C153.34 49.0396 154.221 53.4946 154.208 57.9915Z" fill="#EFB7B9"/>
<path d="M96.1328 102.278V164.885L156.663 159.999L146.525 96.1699L119.793 112.049L96.1328 102.278Z" fill="#E1E7EF"/>
<path opacity="0.1" d="M129.011 140.758L122.273 121.823H122.55C129.617 114.188 126.543 109.607 126.543 109.607H116.735C110.49 114.012 114.824 119.718 116.294 121.361L113.354 140.758H129.011Z" fill="black"/>
<path d="M129.011 140.148L122.273 121.213H122.55C129.617 113.577 126.543 108.997 126.543 108.997H116.735C110.49 113.401 114.824 119.107 116.294 120.751L113.354 140.148H129.011Z" fill="#444053"/>
<path opacity="0.1" d="M138.003 88.7666C138.003 88.7666 136.064 97.6959 122.559 109.606C122.559 109.606 126.712 110.983 127.322 121.976L132.392 128.858C132.392 128.858 136.386 114.503 143.453 109.617C150.52 104.731 143.453 91.9045 143.453 91.9045L138.003 88.7666Z" fill="black"/>
<path d="M138.003 88.1602C138.003 88.1602 136.064 97.0895 122.559 109C122.559 109 126.712 110.376 127.322 121.37L132.392 128.251C132.392 128.251 136.386 113.897 143.453 109.011C150.52 104.125 143.453 91.2981 143.453 91.2981L138.003 88.1602Z" fill="#E1E7EF"/>
<path opacity="0.1" d="M119.781 109.606C119.781 109.606 113.965 114.189 113.65 121.519C113.334 128.849 110.271 128.849 110.271 128.849C110.271 128.849 102.589 105.334 100.133 103.195C97.6767 101.056 104.564 92.0361 104.564 92.0361C104.564 92.0361 108.427 104.72 119.781 109.606Z" fill="black"/>
<path d="M119.779 108.997C119.779 108.997 113.963 113.577 113.648 120.916C113.332 128.254 110.269 128.246 110.269 128.246C110.269 128.246 102.585 104.72 100.117 102.584C97.6497 100.448 104.548 91.4248 104.548 91.4248C104.548 91.4248 108.425 104.109 119.779 108.997Z" fill="#E1E7EF"/>
<path opacity="0.1" d="M137.613 88.2285L145.295 91.2839C145.295 91.2839 153.899 96.789 185.239 101.058C185.239 101.058 189.847 101.058 192.921 115.718L232.244 167.943C232.244 167.943 251.294 181.981 235.318 196.041L200.149 199.859C200.149 199.859 220.428 180.618 189.703 180.007L195.38 175.27C195.38 175.27 186.469 167.013 184.627 161.832C182.785 156.652 167.735 150.838 167.735 150.838L169.579 194.816L141.914 199.088L137.926 117.254C137.734 113.395 137.957 109.526 138.591 105.713C139.632 99.5058 140.731 89.6736 137.613 88.2285Z" fill="black"/>
<path d="M137.92 88.2285L145.602 91.2839C145.602 91.2839 154.206 96.789 185.546 101.058C185.546 101.058 190.154 101.058 193.228 115.718L232.551 167.943C232.551 167.943 251.601 181.981 235.625 196.041L200.455 199.859C200.455 199.859 220.735 180.618 190.01 180.007L195.695 175.273C195.695 175.273 186.784 167.015 184.942 161.835C183.1 156.655 168.049 150.841 168.049 150.841L169.894 194.819L142.21 199.088L138.222 117.254C138.03 113.395 138.253 109.526 138.886 105.713C139.939 99.5058 141.038 89.6736 137.92 88.2285Z" fill="#2F855A"/>
<path opacity="0.1" d="M104.737 91.2822L65.7153 101.373C65.7153 101.373 59.8777 97.7095 52.8105 126.421L27.9232 171.013C27.9232 171.013 13.4815 185.051 24.5447 196.973C35.6079 208.894 49.4403 203.061 49.4403 203.061C49.4403 203.061 36.843 183.518 58.9666 178.629L67.2744 168.247L104.759 172.521L103.815 118.769L104.864 112.505C106 105.733 106 98.8216 104.864 92.0502L104.737 91.2822Z" fill="black"/>
<path d="M104.43 91.2822L65.4085 101.373C65.4085 101.373 59.5709 97.7095 52.5037 126.421L27.6164 171.013C27.6164 171.013 13.1636 185.051 24.2407 196.953C35.3177 208.855 49.128 203.061 49.128 203.061C49.128 203.061 36.5307 183.518 58.6543 178.629L66.962 168.247L104.447 172.521L103.508 118.769L104.549 112.505C105.685 105.733 105.685 98.8216 104.549 92.0502L104.43 91.2822Z" fill="#2F855A"/>
<path d="M66.0226 121.213L62.334 123.96L117.949 138.009V132.512L66.0226 121.213Z" fill="#E4E6ED"/>
<path d="M173.564 120.296L177.25 123.046L117.949 138.009V132.512L173.564 120.296Z" fill="#E4E6ED"/>
<path d="M58.9551 121.213L110.574 133.123L114.26 207.644L69.0933 193.594L58.9551 121.213Z" fill="black"/>
<path d="M179.711 121.213L124.711 133.734L127.782 208.56L178.789 192.983L179.711 121.213Z" fill="black"/>
<path d="M108.73 133.123C108.73 133.123 117.742 138.628 127.215 133.123L129.06 209.171H114.263L108.73 133.123Z" fill="#9B9B9B"/>
<path d="M67.252 120.296V122.435L117.949 132.512C117.949 132.512 92.1393 123.043 67.252 120.296Z" fill="#D8D9E5"/>
<path d="M172.642 119.074V121.213L117.949 132.512C117.949 132.512 147.749 121.824 172.642 119.074Z" fill="#D8D9E5"/>
<path d="M189.449 179.87L187.845 180.3C187.845 180.3 177.402 171.216 164.091 184.979C150.779 198.742 168.521 205.478 168.521 205.478C168.521 205.478 186.798 206.257 192.539 202.882C195.01 201.409 197.716 200.368 200.54 199.802C202.266 199.465 203.838 198.584 205.02 197.289C206.095 196.119 206.893 194.724 207.356 193.208C207.819 191.691 207.935 190.091 207.695 188.525C207.385 186.468 206.474 184.547 205.076 183C203.678 181.453 201.854 180.348 199.831 179.821C196.424 178.941 192.846 178.958 189.449 179.87Z" fill="#EFB7B9"/>
<path d="M54.0411 181.378C54.0411 181.378 66.3311 170.384 81.3875 188.708C96.444 207.032 69.7096 207.346 69.7096 207.346C69.7096 207.346 55.2568 210.696 49.7377 198.785C44.2185 186.875 54.0411 181.378 54.0411 181.378Z" fill="#EFB7B9"/>
<path opacity="0.1" d="M190.75 179.125C190.75 179.125 205.037 183.271 201.974 199.657L210.608 198.721L212.431 190.389L208.745 178.784L201.677 176.031L190.75 179.125Z" fill="black"/>
<path d="M191.059 179.125C191.059 179.125 205.345 183.271 202.282 199.657L210.917 198.721L212.739 190.389L209.053 178.784L201.986 176.031L191.059 179.125Z" fill="#2F855A"/>
<path opacity="0.1" d="M154.207 57.9923C154.209 60.7301 153.88 63.4582 153.227 66.1178C151.067 67.1378 148.65 67.4906 146.287 67.1308C142.216 66.5115 138.622 64.103 135.645 61.2761C132.668 58.4492 130.17 55.1599 127.298 52.2201C124.695 49.5556 121.483 47.0646 117.75 46.9572C114.36 46.8581 111.272 48.7409 108.005 49.6327C104.582 50.5686 97.6863 48.0142 96.0165 50.8989C95.0361 52.5945 95.3823 56.3242 94.8035 58.3308C94.1742 60.5227 93.2884 62.6336 92.1644 64.6204C91.3336 66.071 90.1124 67.6097 88.437 67.596C87.7835 67.5634 87.1498 67.3623 86.5982 67.0124C85.3026 62.3081 85.0341 57.3828 85.8106 52.5668C86.5872 47.7509 88.3908 43.1557 91.1005 39.0894C93.8103 35.0232 97.3635 31.5799 101.522 28.9905C105.68 26.4011 110.348 24.7255 115.211 24.0761C120.074 23.4267 125.021 23.8184 129.719 25.2251C134.418 26.6318 138.759 29.0209 142.453 32.2322C146.146 35.4434 149.106 39.4025 151.134 43.844C153.161 48.2855 154.21 53.1066 154.21 57.984L154.207 57.9923Z" fill="black"/>
<path d="M108.002 49.0265C111.272 48.1347 114.371 46.2519 117.747 46.351C121.48 46.4584 124.695 48.9494 127.295 51.6139C130.164 54.5509 132.662 57.8402 135.642 60.6699C138.621 63.4995 142.213 65.8997 146.284 66.5246C150.355 67.1494 154.938 65.6272 157.051 62.1205C160.061 57.1163 157.203 50.7771 157.267 44.9472C157.308 41.2615 158.56 37.6501 158.419 33.9672C158.3 30.8843 157.211 27.9116 156.023 25.0737C155.445 23.6974 154.81 22.2716 153.703 21.2504C150.77 18.5528 146.026 19.7089 142.26 18.3794C137.392 16.6591 135.121 11.2998 132.307 6.99206C131.222 5.34052 129.261 3.57612 127.494 4.48447C125.415 5.55246 125.98 9.20237 123.878 10.2263C122.604 10.8457 121.048 10.0639 120.139 8.98216C119.231 7.9004 118.708 6.54064 117.816 5.44787C117.022 4.50277 115.983 3.79264 114.811 3.39507C113.638 2.9975 112.379 2.92777 111.17 3.19351C110.691 3.27234 110.249 3.50084 109.91 3.84587C109.239 4.63861 109.658 5.81946 109.705 6.85443C109.865 10.3337 105.67 12.266 102.186 12.6348C98.7024 13.0037 94.6178 13.0477 92.5408 15.8526C91.4331 17.3362 91.206 19.2685 90.4639 20.9586C88.7414 24.8782 84.582 27.0142 80.9238 29.2741C77.2656 31.5339 73.5021 34.8067 73.5354 39.0815C73.5686 43.1911 77.1354 46.5134 77.7668 50.5679C78.0991 52.7204 77.5813 54.9445 77.9966 57.0833C78.7582 61.0084 82.3776 63.6426 85.7173 65.8722C86.5481 66.4227 87.4343 66.998 88.4312 67.0063C90.0928 67.02 91.3362 65.4813 92.1586 64.0307C93.2825 62.0439 94.1682 59.9329 94.7978 57.7411C95.3765 55.729 95.0304 51.9993 96.0107 50.3092C97.6833 47.408 104.579 49.9596 108.002 49.0265Z" fill="black"/>
<path opacity="0.1" d="M108.834 133.027C108.834 133.027 117.845 138.532 127.319 133.027L129.163 209.075H114.367L108.834 133.027Z" fill="black"/>
<defs>
<linearGradient id="paint0_linear" x1="131.039" y1="207.796" x2="131.039" y2="0.243728" gradientUnits="userSpaceOnUse">
<stop stop-color="#808080" stop-opacity="0.25"/>
<stop offset="0.54" stop-color="#808080" stop-opacity="0.12"/>
<stop offset="1" stop-color="#808080" stop-opacity="0.1"/>
</linearGradient>
</defs>
</svg>
