<svg width="21" height="21" viewBox="0 0 21 21" fill="none" xmlns="http://www.w3.org/2000/svg">
<path d="M18.3759 17.7411L13.6559 13.0211C14.7901 11.6595 15.3557 9.91291 15.235 8.14483C15.1143 6.37675 14.3166 4.72326 13.0079 3.52834C11.6991 2.33341 9.98008 1.68906 8.20834 1.72932C6.4366 1.76958 4.74859 2.49134 3.49545 3.74448C2.24232 4.99761 1.52055 6.68562 1.48029 8.45736C1.44004 10.2291 2.08439 11.9482 3.27931 13.2569C4.47424 14.5657 6.12772 15.3634 7.89581 15.4841C9.66389 15.6047 11.4104 15.0391 12.7721 13.9049L17.4921 18.6249L18.3759 17.7411ZM2.75087 8.62489C2.75087 7.51237 3.08077 6.42483 3.69885 5.49981C4.31693 4.57478 5.19544 3.85381 6.22327 3.42807C7.25111 3.00232 8.38211 2.89093 9.47325 3.10797C10.5644 3.32501 11.5667 3.86074 12.3533 4.64741C13.14 5.43408 13.6757 6.43636 13.8928 7.52751C14.1098 8.61865 13.9984 9.74965 13.5727 10.7775C13.1469 11.8053 12.426 12.6838 11.5009 13.3019C10.5759 13.92 9.48839 14.2499 8.37587 14.2499C6.88453 14.2482 5.45475 13.6551 4.40022 12.6005C3.34568 11.546 2.75252 10.1162 2.75087 8.62489Z" fill="white"/>
</svg>
