<svg width="22" height="22" viewBox="0 0 22 22" fill="none" xmlns="http://www.w3.org/2000/svg">
<path fill-rule="evenodd" clip-rule="evenodd" d="M11.0003 0.916992C5.43158 0.916992 0.916992 5.43158 0.916992 11.0003C0.916992 16.5691 5.43158 21.0837 11.0003 21.0837C16.5691 21.0837 21.0837 16.5691 21.0837 11.0003C21.0837 5.43158 16.5691 0.916992 11.0003 0.916992ZM2.75033 11.0003C2.75033 12.9162 3.40391 14.6798 4.49933 16.0805C5.26862 15.0702 6.26107 14.2515 7.39914 13.6883C8.53721 13.125 9.79009 12.8326 11.0599 12.8337C12.3133 12.8325 13.5504 13.1174 14.677 13.6667C15.8036 14.216 16.79 15.0153 17.5609 16.0035C18.3552 14.9618 18.8899 13.7459 19.121 12.4565C19.352 11.1671 19.2727 9.84123 18.8896 8.58856C18.5065 7.33589 17.8306 6.19245 16.9179 5.25286C16.0051 4.31327 14.8817 3.60453 13.6407 3.18529C12.3996 2.76605 11.0766 2.64837 9.78103 2.84197C8.48547 3.03557 7.25463 3.53489 6.19036 4.29862C5.12609 5.06236 4.25899 6.06854 3.66079 7.23392C3.06259 8.3993 2.75049 9.69038 2.75033 11.0003ZM11.0003 19.2503C9.10645 19.2532 7.26974 18.6016 5.80099 17.406C6.39218 16.5597 7.17905 15.8687 8.09467 15.3918C9.01029 14.9149 10.0275 14.6663 11.0599 14.667C12.0794 14.6662 13.0844 14.9086 13.9913 15.3741C14.8983 15.8397 15.6812 16.5149 16.2748 17.3437C14.7947 18.5781 12.9277 19.253 11.0003 19.2503Z" fill="#9B9B9B"/>
<path d="M8.02482 10.07H6.20082L5.86482 11H5.28882L6.80082 6.842H7.43082L8.93682 11H8.36082L8.02482 10.07ZM7.86882 9.626L7.11282 7.514L6.35682 9.626H7.86882ZM10.9518 7.658C11.2358 7.658 11.4838 7.72 11.6958 7.844C11.9118 7.968 12.0718 8.124 12.1758 8.312V7.712H12.7278V11.072C12.7278 11.372 12.6638 11.638 12.5358 11.87C12.4078 12.106 12.2238 12.29 11.9838 12.422C11.7478 12.554 11.4718 12.62 11.1558 12.62C10.7238 12.62 10.3638 12.518 10.0758 12.314C9.78779 12.11 9.61779 11.832 9.56579 11.48H10.1058C10.1658 11.68 10.2898 11.84 10.4778 11.96C10.6658 12.084 10.8918 12.146 11.1558 12.146C11.4558 12.146 11.6998 12.052 11.8878 11.864C12.0798 11.676 12.1758 11.412 12.1758 11.072V10.382C12.0678 10.574 11.9078 10.734 11.6958 10.862C11.4838 10.99 11.2358 11.054 10.9518 11.054C10.6598 11.054 10.3938 10.982 10.1538 10.838C9.91779 10.694 9.73179 10.492 9.59579 10.232C9.45979 9.972 9.39179 9.676 9.39179 9.344C9.39179 9.008 9.45979 8.714 9.59579 8.462C9.73179 8.206 9.91779 8.008 10.1538 7.868C10.3938 7.728 10.6598 7.658 10.9518 7.658ZM12.1758 9.35C12.1758 9.102 12.1258 8.886 12.0258 8.702C11.9258 8.518 11.7898 8.378 11.6178 8.282C11.4498 8.182 11.2638 8.132 11.0598 8.132C10.8558 8.132 10.6698 8.18 10.5018 8.276C10.3338 8.372 10.1998 8.512 10.0998 8.696C9.99979 8.88 9.94979 9.096 9.94979 9.344C9.94979 9.596 9.99979 9.816 10.0998 10.004C10.1998 10.188 10.3338 10.33 10.5018 10.43C10.6698 10.526 10.8558 10.574 11.0598 10.574C11.2638 10.574 11.4498 10.526 11.6178 10.43C11.7898 10.33 11.9258 10.188 12.0258 10.004C12.1258 9.816 12.1758 9.598 12.1758 9.35ZM16.6505 9.23C16.6505 9.334 16.6445 9.444 16.6325 9.56H14.0045C14.0245 9.884 14.1345 10.138 14.3345 10.322C14.5385 10.502 14.7845 10.592 15.0725 10.592C15.3085 10.592 15.5045 10.538 15.6605 10.43C15.8205 10.318 15.9325 10.17 15.9965 9.986H16.5845C16.4965 10.302 16.3205 10.56 16.0565 10.76C15.7925 10.956 15.4645 11.054 15.0725 11.054C14.7605 11.054 14.4805 10.984 14.2325 10.844C13.9885 10.704 13.7965 10.506 13.6565 10.25C13.5165 9.99 13.4465 9.69 13.4465 9.35C13.4465 9.01 13.5145 8.712 13.6505 8.456C13.7865 8.2 13.9765 8.004 14.2205 7.868C14.4685 7.728 14.7525 7.658 15.0725 7.658C15.3845 7.658 15.6605 7.726 15.9005 7.862C16.1405 7.998 16.3245 8.186 16.4525 8.426C16.5845 8.662 16.6505 8.93 16.6505 9.23ZM16.0865 9.116C16.0865 8.908 16.0405 8.73 15.9485 8.582C15.8565 8.43 15.7305 8.316 15.5705 8.24C15.4145 8.16 15.2405 8.12 15.0485 8.12C14.7725 8.12 14.5365 8.208 14.3405 8.384C14.1485 8.56 14.0385 8.804 14.0105 9.116H16.0865Z" fill="#9B9B9B"/>
</svg>
