<svg width="22" height="22" viewBox="0 0 22 22" fill="none" xmlns="http://www.w3.org/2000/svg">
<path d="M10.9996 12.0478C8.62095 12.0478 6.60003 12.7395 5.28003 13.8236V15.8402H16.72V13.8236C15.4 12.7395 13.3787 12.0478 10.9996 12.0478ZM21.5028 11.0129L10.9719 6.16016L0.445312 11.0129L2.20003 11.8159V13.051C1.76003 13.1421 1.75871 13.3726 1.75871 13.6468C1.75871 13.8087 1.81239 13.9983 1.91447 14.1118L1.31255 15.4002H3.45975L2.86311 14.111C2.96343 13.9974 3.04571 13.8302 3.04571 13.6683C3.04571 13.3946 2.64003 13.1416 2.64003 13.0506V12.0223L4.84003 13.0105V12.923C6.16003 11.775 8.47927 11.0464 10.9992 11.0464C13.5199 11.0464 15.84 11.775 17.16 12.923V13.0105L21.5028 11.0129Z" fill="#ACACAC"/>
</svg>
