<svg width="22" height="22" viewBox="0 0 22 22" fill="none" xmlns="http://www.w3.org/2000/svg">
<path d="M11 7.33366C12.7692 7.33366 14.2083 8.77283 14.2083 10.542C14.2083 12.3112 12.7692 13.7503 11 13.7503C9.23083 13.7503 7.79167 12.3112 7.79167 10.542C7.79167 8.77283 9.23083 7.33366 11 7.33366ZM15.1525 7.68199L18.7917 4.05199V6.41699H20.625V0.916992H15.125V2.75033H17.49L13.8508 6.38949C13.0442 5.83033 12.0633 5.50033 11 5.50033C9.93667 5.50033 8.95583 5.83033 8.14917 6.38949L7.55333 5.79366L8.84583 4.50116L7.55333 3.19949L6.25167 4.49199L4.51 2.75033H6.875V0.916992H1.375V6.41699H3.20833V4.05199L4.95917 5.79366L3.6575 7.09533L4.95 8.38782L6.2425 7.09533L6.83833 7.69116C6.28833 8.49783 5.95833 9.47866 5.95833 10.542C5.95797 11.7204 6.37039 12.8617 7.12395 13.7676C7.87751 14.6735 8.92459 15.2869 10.0833 15.5012V17.417H8.25V19.2503H10.0833V21.0837H11.9167V19.2503H13.75V17.417H11.9167V15.5012C12.7438 15.3485 13.5197 14.9912 14.1735 14.462C14.8273 13.9328 15.3383 13.2483 15.6599 12.4711C15.9816 11.6939 16.1036 10.8485 16.015 10.012C15.9264 9.17557 15.6299 8.37456 15.1525 7.68199V7.68199Z" fill="#9B9B9B"/>
</svg>
