<svg width="150" height="220" viewBox="0 0 150 220" fill="none" xmlns="http://www.w3.org/2000/svg">
<path opacity="0.1" d="M113.24 36.7051H103.738V46.8479H113.24V36.7051Z" fill="#2F855A"/>
<path opacity="0.1" d="M113.24 61.7236H103.738V71.8665H113.24V61.7236Z" fill="#2F855A"/>
<path opacity="0.1" d="M113.24 86.7393H103.738V96.8821H113.24V86.7393Z" fill="#2F855A"/>
<path opacity="0.1" d="M113.24 111.757H103.738V121.9H113.24V111.757Z" fill="#2F855A"/>
<path opacity="0.1" d="M113.24 136.776H103.738V146.919H113.24V136.776Z" fill="#2F855A"/>
<path opacity="0.1" d="M103.738 168.331V161.79H113.237V167.4L103.738 168.331Z" fill="#2F855A"/>
<path opacity="0.1" d="M117.445 219.045C135.424 219.045 149.999 216.546 149.999 213.463C149.999 210.381 135.424 207.882 117.445 207.882C99.4657 207.882 84.8906 210.381 84.8906 213.463C84.8906 216.546 99.4657 219.045 117.445 219.045Z" fill="black"/>
<path opacity="0.1" d="M32.5544 216.559C50.5337 216.559 65.1088 214.06 65.1088 210.978C65.1088 207.895 50.5337 205.396 32.5544 205.396C14.5751 205.396 0 207.895 0 210.978C0 214.06 14.5751 216.559 32.5544 216.559Z" fill="black"/>
<path d="M70.0318 63.3925C70.0238 63.3571 70.0064 63.3249 69.9817 63.2997C69.4839 62.7755 63.136 53.1926 63.136 53.1926C63.136 53.1926 62.8019 52.1227 62.2607 50.7318C62.4342 50.492 62.5645 50.2199 62.6449 49.9293C62.6741 49.8062 62.6953 49.6811 62.7084 49.5549C62.7084 49.5156 62.7351 49.4835 62.7451 49.4443C62.8611 48.9606 62.8496 48.452 62.7117 47.9749C62.6746 48.0973 62.6288 48.2166 62.5747 48.3316C62.449 47.9161 62.281 47.5167 62.0736 47.1404C61.2317 45.5926 60.0289 44.2873 59.1436 42.7787C57.8029 40.4348 57.2701 37.6651 57.6368 34.9469C57.6368 35.086 57.6368 35.2286 57.6368 35.3677C57.6703 34.8286 57.7372 34.2925 57.8372 33.7628C57.9769 33.16 58.1635 32.5707 58.3952 32.001C59.1903 30.0574 60.4766 28.3633 61.2584 26.4125C61.5207 25.7545 61.72 25.0698 61.8531 24.369C62.1286 23.1984 62.2289 21.9887 62.1504 20.7847C62.1504 21.07 62.107 21.3553 62.0669 21.6371C61.9824 18.7423 60.8873 15.9858 58.9966 13.9087C56.267 10.9807 52.348 9.84301 48.5995 9.24386C47.0243 9.04766 45.5199 8.43472 44.2228 7.46066C42.7828 6.46563 40.9219 6.22668 39.2381 6.44423C37.3027 6.66759 35.5044 7.61668 34.1631 9.1226C32.3824 11.2125 31.6106 14.1726 29.5325 15.9344C28.273 17.0043 26.676 17.5036 25.2093 18.2312C23.7426 18.9587 22.3561 20.0144 21.8851 21.5765C21.8851 21.5765 21.8851 21.5551 21.8851 21.5444V21.6335L21.865 21.6906C21.3772 23.538 22.3194 25.4175 22.8105 27.2613C23.3217 29.1693 23.3551 31.1843 23.3818 33.1565C23.4186 35.5674 23.452 37.9819 23.4152 40.3963C23.3985 41.345 23.3684 42.3044 23.3016 43.2495C22.5108 43.5047 21.7428 43.8341 21.0064 44.2338C20.258 44.7545 17.4583 47.9821 17.4583 47.9821L11.9824 70.3148L12.0559 70.404L11.9824 70.7072L12.2597 70.6394C13.0348 71.531 15.3501 74.0703 17.8492 75.6537L18.083 80.0333C18.083 80.0333 18.3637 84.4271 22.149 86.2424C22.2359 87.7652 22.5065 93.9494 21.2536 96.3995C20.386 98.1894 19.978 100.193 20.0709 102.206C20.0709 102.206 20.5086 105.922 20.0108 107.876C19.7199 109.182 19.6983 110.54 19.9473 111.856C19.9473 111.856 19.9473 112.288 19.9473 113.03C19.9473 116.985 19.9907 129.66 19.9473 131.093C19.8838 132.787 19.9473 157.841 19.9473 157.841C19.9473 157.841 19.6366 170.363 18.641 173.755C17.6454 177.146 17.8959 188.377 17.8959 188.377C17.8959 188.377 17.2712 201.754 19.4796 204.394C19.4796 204.511 19.4595 204.633 19.4562 204.75C19.4562 204.804 19.4562 204.864 19.4562 204.918C19.4294 205.934 19.6132 207.015 20.4317 207.347C22.1022 208.031 24.3106 210.086 24.7282 210.674C25.1458 211.262 27.5747 212.728 30.742 212.336C32.7261 212.098 34.7228 212 36.719 212.043C36.719 212.043 37.9685 211.801 37.5642 210.143C37.3036 209.108 36.3281 207.518 35.6332 206.473C35.7601 206.508 35.8837 206.537 36.0007 206.562L36.1209 206.587H36.2145C36.2657 206.59 36.317 206.59 36.3682 206.587H36.435C36.4972 206.592 36.5598 206.592 36.6221 206.587C37.4607 206.501 40.5878 208.056 41.1458 209.083C41.7037 210.111 43.6715 210.892 45.1549 211.088C46.0369 211.202 48.262 211.009 50.1296 210.752C51.0701 210.649 52.0017 210.468 52.916 210.21C53.357 210.032 53.4506 209.461 53.3236 208.819C53.1736 208.004 52.7654 207.269 52.1676 206.737C51.6264 206.327 50.9114 205.246 50.3835 204.361L50.2432 204.123C51.1753 203.174 52.8592 200.071 53.3703 199.429C53.9918 198.648 52.3681 170.085 52.3681 170.085V155.766L54.8571 142.213L56.5977 135.041L58.0911 124.214C58.0911 124.214 60.7038 111.567 59.8986 110.326C59.8986 110.301 59.2304 97.2804 58.5288 94.1526C58.2248 92.7582 58.3016 89.6198 58.482 86.5669C58.6706 86.367 58.802 86.1141 58.8612 85.8376C58.9203 85.561 58.9047 85.2723 58.8161 85.0048C58.7663 84.822 58.7014 84.6442 58.6224 84.4735C58.6224 84.42 58.6224 84.3629 58.6224 84.3094C60.0656 83.6005 61.5737 83.0531 63.1226 82.676C65.6117 82.1553 64.9903 80.7858 64.9903 80.7858C64.9903 80.7858 65.5515 79.6124 65.9224 78.8956C66.2932 78.1788 65.9859 71.852 65.9224 71.3313C65.899 71.1209 65.7453 69.9582 65.5682 68.6386C66.3667 68.0324 67.4058 67.2798 68.5384 66.5666C70.6933 65.2042 70.2088 63.7669 70.0318 63.3925ZM37.5575 153.811C37.5575 153.811 35.6899 158.897 36.4383 160.199C37.1867 161.501 36.3147 166.333 36.3147 166.333L35.6899 173.505C35.6899 173.505 33.9493 186.808 34.5707 189.935C35.0585 192.389 35.2389 199.718 35.2957 202.774C35.2529 202.792 35.2116 202.814 35.1721 202.839L35.0886 202.885C35.3759 201.683 35.2556 199.251 33.829 194.358L33.7087 174.147C33.7087 174.147 33.4882 150.801 35.2155 148.191C36.9428 145.58 37.5542 141.147 37.5542 141.147C37.5542 141.147 37.18 147.542 36.9361 149.236C36.6922 150.93 37.5575 153.811 37.5575 153.811ZM34.0796 204.048C34.0629 204.09 34.0428 204.133 34.0295 204.172L33.9359 204.044C33.9837 204.049 34.0317 204.05 34.0796 204.048Z" fill="url(#paint0_linear)"/>
<path d="M53.1285 212.058C52.1629 212.454 46.9276 213.128 45.4643 212.939C44.001 212.75 42.0632 211.958 41.5119 210.924C40.9607 209.89 37.8703 208.327 37.0417 208.427C36.7021 208.438 36.3632 208.388 36.0394 208.278C35.4678 208.093 34.9095 207.864 34.3689 207.593C34.2935 207.143 34.306 206.682 34.4057 206.238C34.4249 206.148 34.4495 206.06 34.4792 205.974C34.6742 205.389 35.0776 204.909 35.6018 204.64L35.722 204.579C35.9536 204.472 36.1957 204.393 36.4437 204.344C39.0697 203.805 49.9045 204.886 49.9045 204.886C49.9045 204.886 50.2085 205.467 50.6261 206.188C51.1473 207.079 51.8556 208.167 52.3901 208.577C52.9823 209.117 53.3841 209.857 53.5294 210.674C53.6564 211.305 53.5628 211.883 53.1285 212.058Z" fill="white"/>
<path opacity="0.1" d="M53.1282 212.059C52.1626 212.455 46.9307 213.129 45.4673 212.94C44.004 212.751 42.0662 211.955 41.5116 210.925C40.957 209.894 37.8733 208.328 37.0447 208.428C36.2162 208.528 34.3719 207.594 34.3719 207.594C34.3719 207.594 34.0846 206.167 34.9199 205.193L36.5904 206.459C36.5904 206.459 41.0606 207.94 41.8891 209.313C42.7177 210.686 44.2278 211.452 46.4095 211.591C48.0399 211.706 51.7851 211.028 53.5391 210.689C53.656 211.306 53.5658 211.884 53.1282 212.059Z" fill="black"/>
<path d="M37.1341 213.877C35.1635 213.836 33.1924 213.935 31.234 214.173C28.0968 214.565 25.7013 213.103 25.2837 212.5C24.8661 211.897 22.7045 209.861 21.044 209.148C20.2322 208.812 20.0417 207.721 20.0785 206.701C20.0785 206.648 20.0785 206.587 20.0785 206.533C20.1093 205.887 20.1988 205.246 20.3458 204.618L33.3455 204.322L34.4714 205.952L34.6451 206.202L35.33 207.197C35.33 207.197 35.6407 207.632 36.0483 208.267C36.7366 209.337 37.6988 210.917 37.956 211.962C38.367 213.634 37.1341 213.877 37.1341 213.877Z" fill="white"/>
<path opacity="0.1" d="M37.1341 213.876C35.1635 213.835 33.1924 213.934 31.234 214.172C28.1002 214.565 25.7014 213.103 25.2871 212.5C24.8728 211.897 22.7045 209.843 21.044 209.155C20.2322 208.819 20.0417 207.728 20.0785 206.708C21.0073 206.94 22.9584 207.532 23.7235 208.563C24.7258 209.939 26.5199 212.254 29.069 212.4C31.1271 212.518 36.1385 212.125 37.9761 211.968C38.3703 213.634 37.1341 213.876 37.1341 213.876Z" fill="black"/>
<path opacity="0.1" d="M35.5899 204.626C35.4396 205.817 34.9752 206.138 34.6411 206.209C34.5595 206.226 34.4755 206.226 34.3939 206.209C34.35 206.206 34.3064 206.199 34.2636 206.188C34.2636 206.188 22.5902 208.941 20.2315 206.712C20.1716 206.655 20.1158 206.593 20.0645 206.527C20.0952 205.88 20.1847 205.239 20.3317 204.611L33.3314 204.315L34.4573 205.945C34.6523 205.36 35.0558 204.881 35.5799 204.611L35.5899 204.626Z" fill="black"/>
<path opacity="0.1" d="M50.6231 206.173C50.3625 206.48 50.1453 206.655 50.0083 206.594C49.3936 206.33 44.3554 205.414 42.7551 206.202C41.1548 206.99 35.7391 206.33 35.7391 206.33C35.7391 206.33 35.7391 205.645 35.709 204.547C35.9406 204.44 36.1826 204.361 36.4306 204.312C39.0566 203.773 49.8914 204.854 49.8914 204.854C49.8914 204.854 50.2088 205.453 50.6231 206.173Z" fill="black"/>
<path d="M58.2458 125.501L56.7691 136.393L55.0518 143.611L52.5929 157.257V171.7C52.5929 171.7 54.1899 200.438 53.5751 201.223C52.9604 202.008 50.625 206.476 50.0103 206.216C49.3956 205.956 44.3574 205.036 42.757 205.82C41.1567 206.605 35.741 205.952 35.741 205.952C35.741 205.952 35.6174 194.8 35.0027 191.651C34.3879 188.502 36.1085 175.117 36.1085 175.117L36.7233 167.902C36.7233 167.902 37.5852 163.045 36.8469 161.732C36.1085 160.42 37.9527 155.313 37.9527 155.313C37.9527 155.313 37.0941 152.42 37.3413 150.716C37.5886 149.011 37.9527 142.581 37.9527 142.581C37.9527 142.581 37.3413 147.046 35.6341 149.667C33.9269 152.289 34.144 175.78 34.144 175.78L34.2643 196.109C37.3413 206.872 34.2643 205.82 34.2643 205.82C34.2643 205.82 22.591 208.577 20.2322 206.344C17.8735 204.112 18.5484 190.06 18.5484 190.06C18.5484 190.06 18.3045 178.776 19.2867 175.367C20.269 171.957 20.5797 159.357 20.5797 159.357C20.5797 159.357 20.5162 134.161 20.5797 132.459C20.6265 131.033 20.5797 118.262 20.5797 114.271C20.5797 113.529 20.5797 113.09 20.5797 113.09L21.9896 109.353L38.6944 107.12H46.686C46.686 107.12 58.7135 110.137 59.9564 111.439C59.9829 111.461 60.0055 111.487 60.0232 111.517C60.8284 112.776 58.2458 125.501 58.2458 125.501Z" fill="#2F855A"/>
<path opacity="0.1" d="M37.9629 182.713C37.9629 182.713 41.638 192.16 43.3719 192.816C45.1059 193.473 37.9629 182.713 37.9629 182.713Z" fill="black"/>
<path opacity="0.1" d="M39.3242 196.623C39.3242 196.623 51.7326 197.279 51.609 198.724C51.4854 200.168 39.3242 196.623 39.3242 196.623Z" fill="black"/>
<path opacity="0.1" d="M22.7227 192.846C23.2138 193.341 32.1876 194.272 31.4493 195.178C30.7109 196.084 23.461 197.846 23.461 197.846L22.7227 192.846Z" fill="black"/>
<path opacity="0.1" d="M21.248 176.547C21.248 176.939 23.0923 189.143 23.5867 189.668C24.0812 190.192 28.1338 190.716 28.1338 190.716L21.248 176.547Z" fill="black"/>
<path d="M34.6292 9.73295C32.8685 11.8336 32.1068 14.8115 30.0554 16.5876C28.8092 17.6575 27.2323 18.1675 25.7823 18.895C24.3323 19.6226 22.8957 20.7317 22.4647 22.3794C21.9836 24.2339 22.9124 26.1277 23.4002 27.9822C23.9047 29.9009 23.9347 31.9052 23.9648 33.9131C23.9982 36.3418 24.035 38.7706 23.9949 41.1993C23.9347 44.9832 23.6407 48.9419 21.7598 52.1481C28.552 54.4556 35.7751 54.7694 42.8981 55.0654C44.2669 55.1697 45.642 55.1326 47.0041 54.9549C48.1845 54.7038 49.352 54.3884 50.5021 54.0098C52.7761 53.3675 55.1192 53.0474 57.4714 53.0575C58.4971 53.0575 59.5428 53.1253 60.5317 52.84C61.5206 52.5547 62.4728 51.8236 62.7401 50.7679C62.9773 49.8193 62.6299 48.81 62.1755 47.9576C61.3469 46.4026 60.1709 45.1045 59.2822 43.5709C58.375 41.9511 57.8367 40.1264 57.7108 38.2439C57.5849 36.3614 57.8748 34.4737 58.5572 32.7326C59.3457 30.7747 60.6152 29.07 61.3904 27.1084C62.1843 25.0024 62.3954 22.6974 61.9986 20.4671C61.6018 18.2368 60.6138 16.1749 59.1519 14.5262C56.4558 11.5803 52.5869 10.4391 48.8851 9.83281C47.3264 9.63628 45.8394 9.02293 44.5619 8.04961C43.142 7.05102 41.3011 6.8085 39.6373 7.02962C37.7179 7.25921 35.9401 8.21885 34.6292 9.73295Z" fill="#3F3D56"/>
<g opacity="0.1">
<path opacity="0.1" d="M58.6599 30.6749C57.9787 32.3934 57.6868 34.2592 57.808 36.1207C57.8828 34.7896 58.171 33.482 58.6599 32.2548C59.445 30.2968 60.7146 28.5921 61.4897 26.6306C62.1234 24.9927 62.3899 23.2194 62.2682 21.4521C62.1993 22.6909 61.9361 23.9085 61.4897 25.0542C60.7146 27.0157 59.445 28.7169 58.6599 30.6749Z" fill="black"/>
<path opacity="0.1" d="M24.0664 33.4283C24.0864 34.8264 24.1065 36.2279 24.1098 37.626C24.1098 35.7001 24.0931 33.7778 24.0664 31.8555C24.0396 29.8619 24.0062 27.8433 23.5017 25.9211C23.1676 24.7013 22.6732 23.4638 22.4995 22.2334C22.2021 23.9809 23.0474 25.7534 23.5017 27.4974C24.0062 29.4019 24.0396 31.4347 24.0664 33.4283Z" fill="black"/>
<path opacity="0.1" d="M60.6445 50.8006C59.6422 51.0895 58.6132 51.0253 57.5875 51.0181C55.2372 51.0022 52.8951 51.3164 50.6216 51.9525C49.4713 52.3295 48.3038 52.6437 47.1236 52.8941C45.7605 53.0748 44.3842 53.113 43.0142 53.0082C36.1318 52.7193 29.1525 52.409 22.5608 50.3084C22.3651 50.7748 22.1419 51.2274 21.8926 51.6637C28.6848 53.9676 35.9079 54.285 43.0275 54.581C44.3976 54.6858 45.7739 54.6475 47.1369 54.4668C48.3129 54.2189 49.4761 53.9059 50.6216 53.5289C52.8904 52.8903 55.2279 52.5726 57.5741 52.5838C58.5998 52.5838 59.6422 52.6516 60.6311 52.3627C61.6201 52.0738 62.5722 51.3498 62.8395 50.2942C62.9521 49.8052 62.9406 49.2931 62.8061 48.8105C62.5087 49.8091 61.59 50.5046 60.6445 50.8006Z" fill="black"/>
</g>
<path d="M50.7493 46.5735C50.5021 47.1656 49.4597 52.2798 49.2125 52.804C48.9652 53.3283 47.6155 61.72 47.4919 62.1908C47.3682 62.6616 38.5948 60.2222 38.5948 60.2222L33.3128 55.4967L27.8837 49.7298C27.8837 49.7298 27.7233 44.5264 31.7225 42.8574C31.9943 42.7434 32.2734 42.6505 32.5577 42.5792C37.4088 41.3345 36.921 25.5889 36.921 25.5889L46.8771 30.1788C46.8771 30.1788 45.0329 39.3659 45.0964 41.1384C45.1131 41.7339 45.5507 42.1049 46.1221 42.3295C47.0054 42.5978 47.925 42.7039 48.8416 42.6434C48.8416 42.6434 50.9965 45.9851 50.7493 46.5735Z" fill="#FBBEBE"/>
<path d="M68.5733 63.8276L69.9866 64.2235C69.9866 64.2235 71.0323 65.9211 68.5733 67.501C67.0119 68.5134 65.5132 69.632 64.0864 70.8498L56.8198 73.2108L55.4199 68.521L62.182 63.043L68.5733 63.8276Z" fill="#2F855A"/>
<path opacity="0.1" d="M68.5733 63.8276L69.9866 64.2235C69.9866 64.2235 71.0323 65.9211 68.5733 67.501C67.0119 68.5134 65.5132 69.632 64.0864 70.8498L56.8198 73.2108L55.4199 68.521L62.182 63.043L68.5733 63.8276Z" fill="#2F855A"/>
<path d="M15.5413 68.3573L12.7148 71.3102C12.7148 71.3102 17.8132 77.6085 21.7355 78.0008C25.6578 78.3931 28.1869 73.2111 28.1869 73.2111L24.7924 67.5049L15.5413 68.3573Z" fill="#2F855A"/>
<path opacity="0.1" d="M15.5413 68.3573L12.7148 71.3102C12.7148 71.3102 17.8132 77.6085 21.7355 78.0008C25.6578 78.3931 28.1869 73.2111 28.1869 73.2111L24.7924 67.5049L15.5413 68.3573Z" fill="#2F855A"/>
<path opacity="0.1" d="M42.3911 35.8776C47.8214 35.8776 52.2235 31.1784 52.2235 25.3817C52.2235 19.5849 47.8214 14.8857 42.3911 14.8857C36.9607 14.8857 32.5586 19.5849 32.5586 25.3817C32.5586 31.1784 36.9607 35.8776 42.3911 35.8776Z" fill="black"/>
<path d="M42.3911 35.0905C47.8214 35.0905 52.2235 30.3913 52.2235 24.5945C52.2235 18.7978 47.8214 14.0986 42.3911 14.0986C36.9607 14.0986 32.5586 18.7978 32.5586 24.5945C32.5586 30.3913 36.9607 35.0905 42.3911 35.0905Z" fill="#FBBEBE"/>
<path opacity="0.1" d="M60.0297 112.71C57.7908 112.983 55.5856 113.51 53.4513 114.282C49.7762 115.588 20.9771 114.304 20.5762 114.282C20.5762 113.541 20.5762 113.102 20.5762 113.102L21.9861 109.364L38.6909 107.132H46.6825C46.6825 107.132 58.71 110.149 59.9528 111.451C60.003 112.235 60.0297 112.71 60.0297 112.71Z" fill="black"/>
<path opacity="0.1" d="M50.7493 46.5741C50.5021 47.1661 49.4597 52.2803 49.2125 52.8046C48.9652 53.3288 47.6155 61.7206 47.4919 62.1913C47.3682 62.6621 38.5948 60.2227 38.5948 60.2227L33.3128 55.4972L27.8837 49.7304C27.8837 49.7304 27.7233 44.527 31.7225 42.8579L41.6518 55.0443L46.1221 42.3301C47.0054 42.5983 47.925 42.7045 48.8416 42.6439C48.8416 42.6439 50.9965 45.9856 50.7493 46.5741Z" fill="black"/>
<path d="M41.6518 55.4363L31.4886 42.954C30.8937 42.5486 30.2137 42.3073 29.5098 42.2519C28.806 42.1965 28.1002 42.3287 27.456 42.6365C25.1808 43.6886 22.3544 44.541 21.616 45.0653C20.8776 45.5895 18.1113 48.8349 18.1113 48.8349L26.3502 71.8418L22.7219 86.9954C22.7219 86.9954 23.2765 94.738 21.8632 97.5591C21.0027 99.3628 20.5996 101.376 20.6939 103.397C20.6939 103.397 21.1249 107.138 20.6338 109.103C20.3468 110.417 20.3251 111.781 20.5703 113.105C20.5703 113.105 49.767 114.417 53.4521 113.105C55.5858 112.331 57.7912 111.803 60.0305 111.532C60.0305 111.532 59.3623 98.4079 58.6941 95.2587C58.0259 92.1096 59.2487 80.1051 59.2487 80.1051L58.4502 67.2447L63.2412 54.049C63.2412 54.049 60.6452 45.5895 57.939 44.7372C57.939 44.7372 53.0245 43.4889 51.9787 42.9005C50.933 42.312 47.8593 41.7842 47.8593 41.7842L46.2456 42.3619L41.6518 55.4363Z" fill="#2F855A"/>
<path opacity="0.1" d="M55.8331 66.81L34.4468 65.2577C33.9055 65.2184 33.437 65.6549 33.4002 66.2326L31.1041 102.277C31.0673 102.855 31.4762 103.355 32.0175 103.394L53.4038 104.947C53.945 104.986 54.4136 104.549 54.4504 103.972L56.7464 67.9272C56.7832 67.3495 56.3743 66.8493 55.8331 66.81Z" fill="black"/>
<path d="M56.5674 66.0278L35.1812 64.4754C34.6399 64.4361 34.1713 64.8727 34.1345 65.4504L31.8385 101.495C31.8017 102.073 32.2106 102.573 32.7519 102.612L54.1381 104.164C54.6794 104.204 55.148 103.767 55.1848 103.189L57.4808 67.145C57.5176 66.5673 57.1087 66.0671 56.5674 66.0278Z" fill="#3F3D56"/>
<path d="M55.8611 68.8533L35.5215 67.377L33.4313 100.19L53.7709 101.667L55.8611 68.8533Z" fill="white"/>
<path opacity="0.1" d="M54.0385 77.2288L37.4238 75.9873L37.0997 80.9303L53.7143 82.1718L54.0385 77.2288Z" fill="black"/>
<path opacity="0.1" d="M53.4374 96.872L50.8008 96.6807L50.6367 99.2568L53.2733 99.4482L53.4374 96.872Z" fill="black"/>
<path opacity="0.1" d="M50.8363 90.6545L37.3398 89.6748L37.1757 92.2509L50.6722 93.2306L50.8363 90.6545Z" fill="black"/>
<path d="M53.3441 67.6255L39.291 66.6055L39.0387 70.5657L53.0918 71.5858L53.3441 67.6255Z" fill="#3F3D56"/>
<path opacity="0.1" d="M53.3441 67.6255L39.291 66.6055L39.0387 70.5657L53.0918 71.5858L53.3441 67.6255Z" fill="black"/>
<path opacity="0.1" d="M42.8808 111.985C42.8808 111.985 42.7572 131.408 37.9629 142.56C37.9629 142.56 43.7428 127.863 43.7428 127.274C43.7428 126.686 46.9367 120.516 46.0815 118.679C45.2262 116.843 42.8808 111.985 42.8808 111.985Z" fill="black"/>
<path opacity="0.1" d="M43.1426 21.9696C42.959 20.2505 43.3533 18.5177 44.2552 17.0801C44.1479 18.521 44.5297 19.955 45.3307 21.1205C46.1317 22.2859 47.2987 23.105 48.6185 23.4282C48.5059 23.3239 48.4255 23.1856 48.3879 23.0315C48.3503 22.8775 48.3573 22.7149 48.408 22.5652C49.0929 23.3926 49.6174 24.3733 50.3926 25.1009C51.1677 25.8284 52.3303 26.2635 53.2424 25.7464C54.4819 25.0331 54.4953 23.1536 54.1745 21.6914C53.4862 18.5774 52.0741 15.6987 50.0685 13.3211C49.5681 12.6024 48.9186 12.0171 48.1708 11.6112C47.4231 11.2053 46.5975 10.9898 45.7586 10.9815C43.861 10.8246 41.8898 11.0029 40.1892 11.9123C39.2322 12.4698 38.3359 13.1384 37.5165 13.9059L32.8391 17.9788C32.3891 18.3249 32.0038 18.758 31.7032 19.2555C31.5024 19.6715 31.382 20.1263 31.349 20.5929C31.2295 21.9268 31.4607 23.2698 32.0167 24.4712C32.5726 25.6726 33.4313 26.6848 34.4962 27.3941C34.4737 26.3398 34.7453 25.3022 35.2765 24.4132C35.8078 23.5241 36.5747 22.8238 37.4797 22.4011C37.6215 22.5277 37.7362 22.6851 37.8163 22.8628C37.8964 23.0406 37.94 23.2346 37.9441 23.4318L38.9297 21.5559C39.0763 21.2145 39.3073 20.9223 39.5979 20.7106C40.2059 20.354 40.9643 20.7748 41.4822 21.2777C42 21.7806 42.5045 22.4082 43.1994 22.4867L43.2262 19.6942" fill="black"/>
<path d="M43.1428 21.5764C42.9586 19.8562 43.3529 18.122 44.2554 16.6833C43.9547 19.5364 45.9693 22.4823 48.622 23.0315C48.5093 22.9281 48.4288 22.7904 48.3912 22.6368C48.3535 22.4833 48.3607 22.3211 48.4115 22.172C49.0964 22.9994 49.621 23.9766 50.3961 24.7077C51.1712 25.4388 52.3338 25.8704 53.2459 25.3497C54.4854 24.6364 54.4988 22.7569 54.1781 21.2982C53.4898 18.1843 52.0776 15.3055 50.072 12.9279C49.4497 12.1181 48.6654 11.4674 47.7768 11.0235C47.1334 10.7695 46.4573 10.6227 45.7722 10.5884C43.8745 10.4314 41.9033 10.6062 40.2028 11.5156C39.2464 12.0755 38.3502 12.7452 37.53 13.5128L32.8526 17.5856C32.4019 17.9308 32.0164 18.3641 31.7167 18.8624C31.5156 19.2782 31.3951 19.7331 31.3626 20.1998C31.2433 21.5331 31.4747 22.8756 32.0306 24.0763C32.5866 25.2771 33.4451 26.2886 34.5098 26.9974C34.4881 25.9433 34.7601 24.9061 35.2912 24.0173C35.8224 23.1284 36.5888 22.4278 37.4933 22.0044C37.6345 22.1314 37.7489 22.2889 37.829 22.4666C37.909 22.6442 37.9529 22.838 37.9576 23.0351L38.9399 21.1663C39.0856 20.8243 39.3168 20.5319 39.6081 20.3211C40.2161 19.9644 40.9745 20.3853 41.4924 20.8881C42.0102 21.391 42.5147 22.0151 43.2097 22.0971L43.2364 19.3011" fill="#3F3D56"/>
<path d="M47.7984 87.7798C46.9397 87.3162 32.7406 89.6807 32.7406 89.6807C32.7406 89.6807 30.4019 88.9674 24.749 87.976C19.0961 86.9845 18.7353 81.0857 18.7353 81.0857L18.1172 69.2773L20.0249 67.4941L28.1969 73.2004C28.1969 73.2004 28.3239 76.0856 28.1969 76.6063C28.1167 76.9629 27.9029 77.3873 27.9229 77.6762C27.9291 77.7544 27.9593 77.8283 28.0089 77.8863C28.0584 77.9444 28.1245 77.9833 28.1969 77.9972C28.7515 78.147 36.3088 79.4523 36.3088 79.4523C36.3088 79.4523 53.8255 78.1719 58.1921 84.4702C58.5381 84.9325 58.7999 85.4599 58.9639 86.0251C60.0463 90.3298 48.5768 88.1899 47.7984 87.7798Z" fill="#FBBEBE"/>
<path opacity="0.1" d="M58.9747 86.0501C58.3065 86.3675 57.8923 86.5958 57.8923 86.5958C57.8923 86.5958 51.6246 86.3996 48.1032 85.0373C44.5818 83.6749 40.3021 83.9174 40.3021 83.9174C40.3021 83.9174 25.6285 81.2212 27.9037 77.7012C27.9099 77.7794 27.9401 77.8533 27.9897 77.9113C28.0392 77.9693 28.1053 78.0083 28.1777 78.0221C28.7323 78.1719 36.2896 79.4772 36.2896 79.4772C36.2896 79.4772 53.8063 78.1969 58.1729 84.4952C58.5296 84.9549 58.8017 85.4825 58.9747 86.0501Z" fill="black"/>
<path d="M65.0694 65.2715C65.0694 65.2715 65.9314 71.7659 65.9915 72.2937C66.0517 72.8215 66.3624 79.1804 65.9915 79.9044C65.6207 80.6284 65.0694 81.8053 65.0694 81.8053C65.0694 81.8053 65.6842 83.1819 63.2252 83.7098C60.7663 84.2376 57.8797 85.8068 57.8797 85.8068C57.8797 85.8068 51.6087 85.6107 48.1073 84.234C44.606 82.8574 40.3028 83.1177 40.3028 83.1177C40.3028 83.1177 21.6769 79.7047 29.6685 75.5391C37.6601 71.3736 43.313 77.0156 43.313 77.0156L52.2234 76.4272C52.2234 76.4272 55.5443 74.2588 56.4664 74.4585C57.1176 74.547 57.7788 74.4331 58.3708 74.1304L58.4343 67.2401L65.0694 65.2715Z" fill="#FBBEBE"/>
<path opacity="0.1" d="M19.8851 49.3303L18.101 49.2305L12.6953 71.6988C12.6953 71.6988 18.532 70.1224 21.0477 71.6988C23.5635 73.2751 28.1774 73.5997 28.1774 73.5997L26.4568 55.6892L19.8851 49.3303Z" fill="black"/>
<path d="M19.8851 48.9348L18.101 48.835L12.6953 71.3033C12.6953 71.3033 18.532 69.7269 21.0477 71.3033C23.5635 72.8796 28.1774 73.2042 28.1774 73.2042L26.4568 55.2937L19.8851 48.9348Z" fill="#2F855A"/>
<path opacity="0.1" d="M60.7716 53.8564L63.2272 54.4485C63.2272 54.4485 69.4982 64.0777 69.9893 64.6163C70.4805 65.1548 67.6506 67.1127 66.4846 67.1127C65.3186 67.1127 59.6023 67.826 57.9418 69.4737C56.2813 71.1214 56.9729 62.8295 56.9729 62.6405C56.9729 62.4515 59.0343 57.2196 59.0343 57.2196L60.7716 53.8564Z" fill="black"/>
<path d="M60.7716 53.4639L63.2272 54.0523C63.2272 54.0523 69.4982 63.6994 69.9893 64.2237C70.4805 64.748 67.6506 66.7202 66.4846 66.7202C65.3186 66.7202 59.6023 67.4334 57.9418 69.0811C56.2813 70.7288 56.9729 62.4369 56.9729 62.2479C56.9729 62.0589 59.0477 56.8091 59.0477 56.8091L60.7716 53.4639Z" fill="#2F855A"/>
<g opacity="0.1">
<path opacity="0.1" d="M44.2394 16.7158C44.225 16.4423 44.2305 16.1681 44.2561 15.8955C43.7474 16.7103 43.3975 17.626 43.2271 18.5881V19.4155C43.2271 19.4155 43.2271 19.3977 43.2271 19.387V19.5832C43.2271 20.1609 43.2271 20.7422 43.2104 21.32H43.1636V21.5875C43.1636 21.4947 43.1636 21.4056 43.1469 21.3129C42.4787 21.1987 42.001 20.5996 41.5032 20.1217C41.0054 19.6438 40.2269 19.1873 39.6188 19.5546C39.3276 19.7655 39.0964 20.0579 38.9507 20.3999L37.9584 22.2687C37.954 22.072 37.9103 21.8786 37.8302 21.7015C37.7501 21.5243 37.6355 21.3675 37.494 21.2415C36.589 21.6642 35.8221 22.3646 35.2908 23.2536C34.7596 24.1427 34.488 25.1803 34.5105 26.2345C33.5977 25.6239 32.8341 24.7903 32.2828 23.8024C31.7314 22.8145 31.4083 21.7008 31.3399 20.5532C31.2818 21.8346 31.5451 23.1093 32.1024 24.2459C32.6597 25.3825 33.491 26.3398 34.5105 27.0191C34.4889 25.9651 34.7608 24.9279 35.292 24.039C35.8231 23.1501 36.5895 22.4496 37.494 22.0261C37.6353 22.1531 37.7497 22.3107 37.8297 22.4883C37.9098 22.666 37.9536 22.8598 37.9584 23.0568L38.9406 21.188C39.0863 20.8461 39.3175 20.5536 39.6088 20.3428C40.2169 19.9862 40.9753 20.407 41.4931 20.9099C42.011 21.4127 42.5155 22.0368 43.2104 22.1189C43.2104 21.2059 43.2193 20.2953 43.2371 19.387C43.401 18.4342 43.7418 17.5259 44.2394 16.7158Z" fill="black"/>
<path opacity="0.1" d="M43.107 20.307C43.1237 20.0645 43.1505 19.822 43.1839 19.5937L43.2206 18.6094C43.1202 19.1685 43.0821 19.7383 43.107 20.307Z" fill="black"/>
<path opacity="0.1" d="M53.2474 24.5624C52.3354 25.0831 51.1727 24.648 50.3976 23.9205C49.6225 23.1929 49.098 22.2122 48.4131 21.3848C48.3624 21.5345 48.3554 21.6971 48.393 21.8511C48.4305 22.0052 48.5109 22.1435 48.6236 22.2478C48.5567 22.2478 48.4933 22.2122 48.4298 22.1943C49.098 23.0146 49.6292 23.9775 50.3976 24.6908C51.166 25.4041 52.3354 25.8535 53.2474 25.3328C54.1595 24.8121 54.4201 23.5924 54.3399 22.4048C54.2798 23.3392 53.9658 24.1487 53.2474 24.5624Z" fill="black"/>
<path opacity="0.1" d="M48.4079 22.1864C47.2907 21.8614 46.2932 21.1795 45.5492 20.2323C44.8051 19.2851 44.3501 18.1178 44.2451 16.8867C44.0547 19.6863 46.0325 22.4931 48.6218 23.0316C48.5115 22.9294 48.4322 22.7944 48.3942 22.6438C48.3561 22.4933 48.3609 22.334 48.4079 22.1864Z" fill="black"/>
</g>
<path d="M139.558 104.285L138.837 107.566C138.837 107.566 133.057 104.41 132.018 100.416C130.979 96.4213 133.758 94.8984 133.758 94.8984L139.147 97.3307L139.558 104.285Z" fill="white"/>
<path opacity="0.1" d="M139.558 104.285L138.837 107.566C138.837 107.566 133.057 104.41 132.018 100.416C130.979 96.4213 133.758 94.8984 133.758 94.8984L139.147 97.3307L139.558 104.285Z" fill="black"/>
<path d="M107.121 215.953C107.121 215.953 101.775 218.05 98.1003 218.314C96.1492 218.453 95.1235 217.176 94.5956 215.946C94.3088 215.267 94.1217 214.546 94.041 213.806L94.5255 208.153L94.7794 205.147L102.587 202.979L103.693 206.591L103.797 206.862C104.238 208.071 106.022 212.972 105.968 213.995C105.964 214.26 106.01 214.523 106.104 214.768C106.197 215.013 106.336 215.236 106.513 215.422C106.694 215.626 106.898 215.804 107.121 215.953Z" fill="white"/>
<path d="M143.618 213.078C143.632 213.251 143.616 213.425 143.571 213.592C143.571 213.592 132.138 215.625 129.8 213.592C129.142 212.998 128.376 212.557 127.55 212.297C126.724 212.038 125.856 211.965 125.002 212.083C125.002 212.083 120.579 212.212 119.84 210.657C119.533 210.004 119.613 208.738 119.803 207.493C119.998 206.323 120.257 205.165 120.579 204.027L120.756 203.877L121.808 202.975L134.13 202.586H134.223C134.163 205.275 138.403 208.36 138.403 208.36C142.916 210.143 143.581 212.158 143.618 213.078Z" fill="white"/>
<path opacity="0.1" d="M143.621 213.078C143.633 213.251 143.616 213.425 143.571 213.591C143.571 213.591 132.138 215.624 129.803 213.591C129.145 212.997 128.378 212.556 127.552 212.296C126.725 212.036 125.857 211.964 125.002 212.083C125.002 212.083 120.575 212.211 119.837 210.656C119.533 210.004 119.61 208.737 119.8 207.489C121.504 207.671 124.194 208.124 125.249 209.208C126.846 210.849 129.552 212.489 131.21 212.621C132.519 212.707 140.307 212.971 143.621 213.078Z" fill="black"/>
<path opacity="0.1" d="M107.121 215.953C107.121 215.953 101.775 218.05 98.1004 218.314C96.1493 218.453 95.1236 217.176 94.5957 215.946C95.9588 216.434 97.8465 216.944 98.8387 216.477C100.015 215.917 104.184 215.561 106.523 215.407C106.699 215.616 106.9 215.799 107.121 215.953Z" fill="black"/>
<path d="M115.054 46.9449C110.644 45.1154 104.971 39.0703 106.387 36.2457C106.701 35.5324 106.887 34.7634 106.939 33.9775C107.03 32.9103 107.043 31.8372 106.979 30.7677C106.879 29.0151 106.682 27.2704 106.387 25.543C106.387 25.543 120.156 25.8746 119.354 28.0394C119.12 28.6778 119.08 29.7799 119.147 31.0103C119.213 32.2407 119.377 33.6423 119.551 34.8227C119.788 36.4383 120.032 37.6759 120.032 37.6759C120.032 37.6759 119.187 38.9348 118.696 39.0026C118.204 39.0703 121.382 49.5662 115.054 46.9449Z" fill="#FBBEBE"/>
<path opacity="0.1" d="M103.783 206.845L103.679 206.966C99.5633 201.652 94.5852 208.278 94.5852 208.278L94.5117 208.136L94.7656 205.129L102.573 202.961L103.679 206.574L103.783 206.845Z" fill="black"/>
<path opacity="0.1" d="M134.23 202.961C134.23 202.961 131.223 202.897 129.619 204.409C128.015 205.921 120.264 204.734 120.598 204.409C120.696 204.244 120.755 204.057 120.772 203.863L121.825 202.961L134.146 202.572C134.193 202.822 134.23 202.961 134.23 202.961Z" fill="black"/>
<path d="M108.904 161.23C108.681 161.821 108.511 162.434 108.396 163.06C108.118 164.774 108.04 166.518 108.166 168.252C108.29 170.749 108.166 187.479 108.166 187.479C108.166 187.479 105.523 191.94 104.046 193.513C102.57 195.086 107.053 197.911 107.053 197.911C107.722 201.98 103.672 206.573 103.672 206.573C99.5562 201.259 94.5782 207.882 94.5782 207.882C94.5782 207.882 91.872 202.889 91.1971 201.106C90.5222 199.323 93.8398 198.092 95.0058 197.365C96.1718 196.637 94.9457 192.372 94.9457 192.372C94.9457 192.372 93.9634 188.631 92.7941 185.218C91.6247 181.805 94.0837 164.818 94.0837 164.818C94.0837 164.818 94.2107 161.797 94.5147 160.745C94.6664 159.986 94.6969 159.204 94.6049 158.434C94.5849 158.174 94.5615 157.96 94.5448 157.81C94.5281 157.66 94.5147 157.596 94.5147 157.596L94.5615 157.51L96.232 154.187C96.232 154.187 109.706 159.137 108.904 161.23Z" fill="#2F855A"/>
<path d="M134.229 202.568C134.229 202.568 131.222 202.501 129.619 203.995C128.015 205.489 120.264 204.323 120.598 203.995C120.932 203.667 120.902 201.242 120.902 201.242C116.355 194.612 120.234 191.923 120.234 191.923C120.234 191.923 118.206 181.491 117.839 177.621C117.581 174.922 117.264 167.635 117.094 163.509C117.02 161.726 116.977 160.496 116.977 160.496L120.658 159.715L121.136 159.615L130.097 157.692C130.097 157.692 130.344 159.476 130.511 160.934C130.595 161.557 130.641 162.185 130.648 162.814C130.591 163.527 130.648 165.763 130.648 165.763L130.955 172.454C130.757 173.156 130.653 173.885 130.648 174.618C130.711 175.474 131.877 187.675 131.877 187.675C131.877 187.675 133.905 194.958 133.214 195.482C132.522 196.006 134.229 202.568 134.229 202.568Z" fill="#2F855A"/>
<path opacity="0.1" d="M119.353 28.0502C119.119 28.6886 119.079 29.7906 119.146 31.021C117.302 32.2065 115.182 32.8126 113.029 32.7697C110.877 32.7268 108.78 32.0366 106.978 30.7785C106.879 29.0259 106.681 27.2812 106.387 25.5537C106.387 25.5537 120.155 25.8854 119.353 28.0502Z" fill="black"/>
<path d="M124.669 20.1749C124.706 23.4107 123.536 26.5294 121.419 28.8449C119.301 31.1604 116.408 32.483 113.377 32.5218C110.346 32.5606 107.424 31.3123 105.255 29.0517C103.086 26.7911 101.847 23.7032 101.811 20.4674C101.811 20.3675 101.811 20.2748 101.811 20.1749C101.811 16.9382 103.015 13.834 105.159 11.5452C107.303 9.2565 110.211 7.9707 113.243 7.9707C116.276 7.9707 119.183 9.2565 121.328 11.5452C123.472 13.834 124.676 16.9382 124.676 20.1749H124.669Z" fill="#FBBEBE"/>
<path opacity="0.1" d="M115.054 46.945C110.644 45.1154 104.971 39.0703 106.387 36.2458C106.701 35.5324 106.887 34.7634 106.939 33.9775L112.976 39.2772L116.711 42.5476L119.551 34.8335C119.788 36.4491 120.032 37.6866 120.032 37.6866C120.032 37.6866 119.187 38.9455 118.696 39.0133C118.204 39.0811 121.382 49.5663 115.054 46.945Z" fill="black"/>
<path d="M130.665 70.3646L125.623 160.773L119.048 161.233L102.02 108.81L104.813 46.5731L105.404 33.4238L112.975 40.0609L116.71 43.3313L119.633 35.3889L125.069 40.4461L130.665 70.3646Z" fill="#2F855A"/>
<path opacity="0.1" d="M108.906 161.23C108.683 161.821 108.512 162.434 108.398 163.06C103.609 162.272 98.9581 160.723 94.6 158.462L94.5098 158.412L94.5398 157.838V157.539L96.2103 154.215C96.2103 154.215 109.708 159.136 108.906 161.23Z" fill="black"/>
<path opacity="0.1" d="M120.769 163.074C119.546 163.298 118.313 163.449 117.074 163.527C117 161.744 116.957 160.514 116.957 160.514L120.659 159.715L120.769 163.074Z" fill="black"/>
<path opacity="0.1" d="M130.525 160.934C128.15 161.594 124.478 162.336 121.197 161.872L121.15 159.615L130.111 157.692C130.111 157.692 130.348 159.461 130.525 160.934Z" fill="black"/>
<path opacity="0.1" d="M121.138 162.286C107.44 164.782 94.8943 157.624 94.8943 157.624L95.0146 155.199C95.0146 155.199 95.3253 127.706 94.4633 125.598C93.6014 123.49 92.9298 112.816 93.4176 111.186C93.9054 109.556 91.6369 84.9483 91.6369 84.9483L91.2694 74.9624L77.8086 69.1242L83.8223 55.7395C84.6344 53.8633 85.333 51.9335 85.9138 49.9619C86.9595 46.4847 91.8139 43.0716 91.8139 43.0716C91.8139 43.0716 96.792 39.6622 98.7598 39.7906C100.728 39.9189 103.307 36.7734 103.307 36.7734C105.211 31.5914 106.935 33.9203 106.935 33.9203C106.935 34.1699 106.935 33.9203 106.842 34.687C106.173 40.3754 117.646 58.3501 117.81 58.6711L118.916 87.081L120.022 123.034L121.138 162.286Z" fill="black"/>
<path d="M120.769 162.286C107.071 164.782 94.5221 157.624 94.5221 157.624L94.6457 155.199C94.6457 155.199 94.9531 127.706 94.0911 125.598C93.2291 123.49 92.5576 112.805 93.0487 111.161C93.5398 109.517 91.258 84.934 91.258 84.934L90.8871 74.9481L77.4297 69.1099L83.4434 55.7252C84.2536 53.8494 84.9522 51.9209 85.5349 49.9512C86.5806 46.4847 91.4517 43.0681 91.4517 43.0681C91.4517 43.0681 96.4298 39.6586 98.3943 39.787C100.359 39.9154 102.951 36.7734 102.951 36.7734C104.859 31.5914 106.961 33.9203 106.961 33.9203C106.961 34.1699 106.76 34.2769 106.867 34.687C108.337 40.2043 117.304 58.3501 117.468 58.6711L118.574 87.081L119.656 123.052L120.769 162.286Z" fill="white"/>
<path opacity="0.1" d="M117.078 59.4727C115.604 58.8165 107.8 49.3049 107.8 49.3049V47.1401C107.516 46.4268 105.825 46.8619 104.459 47.3612L105.047 34.2119L105.715 34.8039C107.175 40.3176 116.917 59.1553 117.078 59.4727Z" fill="black"/>
<path d="M117.448 58.6886C115.972 58.0288 108.167 48.5208 108.167 48.5208V46.3524C107.883 45.6391 106.196 46.0742 104.826 46.5735L105.404 33.4385L106.072 34.0269C107.546 39.5334 117.285 58.3676 117.448 58.6886Z" fill="white"/>
<path opacity="0.1" d="M94.8943 106.123C95.078 106.123 104.419 105.074 104.419 105.074C104.419 105.074 110.076 116.95 109.705 119.836C109.334 122.721 108.662 125.281 106.387 124.829C104.112 124.376 94.1426 125.185 94.1426 125.185L94.8943 106.123Z" fill="black"/>
<path d="M94.5212 105.334C94.7083 105.334 104.05 104.285 104.05 104.285C104.05 104.285 109.703 116.179 109.335 119.032C108.968 121.885 108.289 124.478 106.018 124.025C103.746 123.572 93.7695 124.382 93.7695 124.382L94.5212 105.334Z" fill="white"/>
<path d="M101.563 99.7744C101.563 99.7744 110.136 104.696 110.32 106.194C110.504 107.692 105.957 105.538 104.975 105.274C104.328 105.11 103.67 105 103.007 104.946L96.4551 105.135L101.563 99.7744Z" fill="#FBBEBE"/>
<path opacity="0.1" d="M114.681 60.087C115.18 60.087 115.583 59.6559 115.583 59.1241C115.583 58.5922 115.18 58.1611 114.681 58.1611C114.183 58.1611 113.779 58.5922 113.779 59.1241C113.779 59.6559 114.183 60.087 114.681 60.087Z" fill="black"/>
<path d="M114.681 59.6944C115.18 59.6944 115.583 59.2633 115.583 58.7315C115.583 58.1997 115.18 57.7686 114.681 57.7686C114.183 57.7686 113.779 58.1997 113.779 58.7315C113.779 59.2633 114.183 59.6944 114.681 59.6944Z" fill="#3F3D56"/>
<path opacity="0.1" d="M116.343 101.771C116.842 101.771 117.246 101.339 117.246 100.808C117.246 100.276 116.842 99.8447 116.343 99.8447C115.845 99.8447 115.441 100.276 115.441 100.808C115.441 101.339 115.845 101.771 116.343 101.771Z" fill="black"/>
<path d="M116.343 101.375C116.842 101.375 117.246 100.944 117.246 100.412C117.246 99.8803 116.842 99.4492 116.343 99.4492C115.845 99.4492 115.441 99.8803 115.441 100.412C115.441 100.944 115.845 101.375 116.343 101.375Z" fill="#3F3D56"/>
<path opacity="0.1" d="M115.584 80.9288C116.082 80.9288 116.486 80.4977 116.486 79.9659C116.486 79.434 116.082 79.0029 115.584 79.0029C115.086 79.0029 114.682 79.434 114.682 79.9659C114.682 80.4977 115.086 80.9288 115.584 80.9288Z" fill="black"/>
<path d="M115.584 80.5372C116.082 80.5372 116.486 80.1061 116.486 79.5742C116.486 79.0424 116.082 78.6113 115.584 78.6113C115.086 78.6113 114.682 79.0424 114.682 79.5742C114.682 80.1061 115.086 80.5372 115.584 80.5372Z" fill="#3F3D56"/>
<path d="M136.379 104.746C136.379 104.746 136.994 105.73 136.379 106.172C135.765 106.614 136.44 107.749 136.44 107.749C136.44 107.749 134.906 108.704 135.581 109.571C136.256 110.438 135.828 114.329 135.828 114.329L133.984 117.606C133.984 117.606 134.094 119.707 134.101 122.546C134.101 126.975 133.857 133.202 132.507 136.041L132.688 159.333C132.688 159.333 126.23 161.854 120.824 161.084L120.022 123.708C120.022 123.708 121.191 102.513 121.622 98.4474C121.875 96.3367 121.977 94.2086 121.93 92.0814C121.93 92.0814 121.746 85.7189 121.128 82.7695C121.128 82.7695 120.46 69.9733 120.393 66.4318C120.363 64.7378 120.446 59.7948 120.54 55.0943C120.644 49.9551 120.76 45.1083 120.76 45.1083L119.541 34.805C119.541 34.805 120.76 34.6766 121.128 35.1973C121.293 35.3615 121.472 35.5084 121.663 35.636C123.771 37.1553 131.208 41.8273 131.208 41.8273C131.208 41.8273 135.324 43.5748 136.309 46.0784C137.295 48.582 137.98 50.3581 138.458 51.0714C138.935 51.7846 139.196 55.1371 139.196 55.1371C139.196 55.1371 140.613 61.3069 141.718 62.3519C142.824 63.3968 143.619 70.0303 143.619 70.0303L133.847 78.233C133.847 78.233 132.988 91.8781 132.805 92.4059C132.621 92.9337 136.379 104.746 136.379 104.746Z" fill="white"/>
<path d="M136.749 104.745C136.749 104.745 137.36 105.729 136.749 106.171C136.137 106.614 136.805 107.748 136.805 107.748C136.805 107.748 135.272 108.703 135.947 109.57C136.622 110.437 136.194 114.328 136.194 114.328L134.357 117.605C134.357 117.605 134.467 119.706 134.477 122.545C134.477 126.974 134.233 133.201 132.883 136.04L133.067 159.332C133.067 159.332 126.609 161.853 121.203 161.083L120.405 123.707C120.405 123.707 121.571 102.512 122.005 98.4465C122.257 96.3358 122.359 94.2076 122.309 92.0805C122.309 92.0805 122.125 85.718 121.51 82.7686C121.51 82.7686 120.842 69.9724 120.772 66.4309C120.742 64.7369 120.826 59.7939 120.919 55.0934C121.023 49.9542 121.14 45.1075 121.14 45.1075L119.529 34.665C119.529 34.665 121.14 34.665 121.51 35.1964C121.674 35.3625 121.853 35.5096 122.045 35.6351C124.15 37.1544 131.587 41.8264 131.587 41.8264C131.587 41.8264 135.693 43.5739 136.695 46.0775C137.697 48.5811 138.366 50.3572 138.843 51.0705C139.321 51.7837 139.582 55.1362 139.582 55.1362C139.582 55.1362 140.998 61.306 142.104 62.351C143.21 63.3959 144.009 70.0294 144.009 70.0294L134.236 78.2322C134.236 78.2322 133.378 91.8772 133.191 92.405C133.003 92.9329 136.749 104.745 136.749 104.745Z" fill="white"/>
<path opacity="0.1" d="M125.046 48.1359L125.932 50.882L121.284 55.875C121.388 50.7358 121.505 45.889 121.505 45.889L119.895 35.4502C119.895 35.4502 121.505 35.4502 121.876 35.9816C122.039 36.1477 122.218 36.2947 122.41 36.4202L126.359 48.5781L125.046 48.1359Z" fill="black"/>
<path d="M124.669 47.3471L125.555 50.0897L120.911 55.0826C121.011 49.9434 121.131 45.0967 121.131 45.0967L119.518 34.6543C119.518 34.6543 121.131 34.6543 121.499 35.1857C121.663 35.3508 121.842 35.4978 122.033 35.6244L126.006 47.7929L124.669 47.3471Z" fill="white"/>
<path opacity="0.1" d="M124.669 20.1749C124.671 21.46 124.481 22.7371 124.108 23.9589C124.045 23.9701 123.981 23.9677 123.919 23.9517C123.857 23.9358 123.799 23.9067 123.747 23.8661C123.657 20.6564 122.18 17.6392 120.36 15.075C119.847 14.3015 119.228 13.616 118.522 13.0421C117.808 12.4697 116.919 12.2015 116.03 12.2896C115.027 12.4358 114.142 13.1634 113.13 13.2561C111.793 13.3738 110.597 12.3859 109.271 12.3395C108.732 12.3443 108.199 12.4722 107.71 12.7145C107.221 12.9569 106.786 13.3081 106.434 13.7447C105.737 14.6228 105.219 15.6469 104.914 16.7512C104.389 18.4268 104.103 20.1773 104.066 21.9438C104.049 22.9424 103.959 24.1942 103.09 24.558C103.156 23.8241 103.078 23.0837 102.861 22.3837C102.644 21.6838 102.293 21.0397 101.831 20.4923L101.811 20.4674C101.811 20.3675 101.811 20.2748 101.811 20.1749C101.811 16.9382 103.015 13.834 105.159 11.5452C107.303 9.2565 110.211 7.9707 113.243 7.9707C116.276 7.9707 119.183 9.2565 121.328 11.5452C123.472 13.834 124.676 16.9382 124.676 20.1749H124.669Z" fill="black"/>
<path d="M117.985 0.799199C116.249 -0.0725614 114.275 -0.237441 112.433 0.33556C111.507 0.628005 110.635 1.10234 109.697 1.34129C107.692 1.85841 105.353 1.2985 103.633 2.5503C102.677 3.26358 102.103 4.39056 101.568 5.48901L100.232 8.20303C99.5032 9.69022 98.7682 11.2024 98.4642 12.8393C98.1602 14.4763 98.3439 16.3095 99.3161 17.629C100.021 18.5848 101.07 19.1875 101.839 20.0898C102.3 20.6399 102.65 21.2861 102.866 21.9877C103.083 22.6892 103.16 23.431 103.095 24.1662C103.963 23.8096 104.05 22.5507 104.07 21.5521C104.108 19.7856 104.394 18.0351 104.919 16.3594C105.224 15.2551 105.742 14.231 106.439 13.3529C106.791 12.9159 107.225 12.5641 107.715 12.3211C108.204 12.0782 108.736 11.9496 109.276 11.9442C110.612 11.9941 111.811 12.982 113.134 12.8607C114.137 12.7716 115.025 12.044 116.034 11.8978C116.924 11.808 117.813 12.0764 118.527 12.6503C119.233 13.2224 119.852 13.9082 120.361 14.6832C122.185 17.251 123.665 20.2539 123.752 23.4743C124.13 23.7668 124.674 23.3816 124.861 22.9251C125.048 22.4686 125.055 21.9337 125.292 21.4986C125.566 20.9957 126.091 20.7247 126.502 20.3466C127.544 19.3873 127.805 17.7717 127.765 16.3059C127.724 14.8401 127.457 13.3529 127.718 11.9121C127.875 11.0312 128.229 10.2002 128.423 9.32646C128.616 8.45269 128.64 7.47192 128.182 6.71941C127.514 5.61739 126.107 5.39628 124.881 5.29285C123.488 5.16446 122.242 5.32852 121.353 4.07672C120.935 3.42431 120.466 2.81105 119.95 2.24359C119.766 2.05457 117.985 0.877659 117.985 0.799199Z" fill="#2D2C3D"/>
<path opacity="0.1" d="M81.6641 76.0078L78.1762 69.1211L77.0703 79.749C77.0703 79.749 77.685 84.4709 77.5614 85.1948C77.4378 85.9188 80.0805 92.4097 80.0805 92.4097C80.0805 92.4097 88.8105 109.011 92.3753 109.864L104.403 100.677L101.209 96.347C101.209 96.347 100.103 95.8869 99.8257 96.347C99.8257 96.347 93.8921 85.4552 93.2807 84.6706C92.6693 83.886 92.7862 82.3061 92.7862 82.3061C92.7862 82.3061 91.8641 81.2576 92.1715 80.2732C92.4788 79.2889 90.4075 75.8794 90.4075 75.8794L92.3118 73.9785L81.6641 76.0078Z" fill="black"/>
<path d="M78.36 68.333L77.4379 69.1212L76.332 79.749C76.332 79.749 76.9468 84.471 76.8231 85.1949C76.6995 85.9189 79.3456 92.4097 79.3456 92.4097C79.3456 92.4097 88.0722 109.011 91.637 109.864L103.685 100.677L100.487 96.3471C100.487 96.3471 99.3814 95.887 99.1041 96.3471C99.1041 96.3471 93.1739 85.4553 92.5591 84.6707C91.9444 83.8861 92.068 82.3062 92.068 82.3062C92.068 82.3062 91.1459 81.2576 91.4533 80.2733C91.7606 79.289 89.6692 75.8795 89.6692 75.8795L91.5735 73.9786L78.36 68.333Z" fill="white"/>
<path opacity="0.1" d="M135.581 109.982C136.249 110.849 135.828 114.743 135.828 114.743L133.984 117.999C133.984 117.999 134.094 120.103 134.101 122.942L131 123.977C130.72 124.07 130.422 124.09 130.133 124.036C129.843 123.982 129.57 123.854 129.336 123.665C129.102 123.475 128.914 123.228 128.787 122.945C128.661 122.661 128.599 122.35 128.608 122.036L129.146 103.634L136.379 106.583C135.765 107.04 136.44 108.16 136.44 108.16C136.44 108.16 134.906 109.115 135.581 109.982Z" fill="black"/>
<path d="M135.947 109.588C136.615 110.451 136.194 114.346 136.194 114.346L134.357 117.605C134.357 117.605 134.467 119.706 134.477 122.545L131.32 123.597C131.046 123.689 130.755 123.709 130.472 123.656C130.189 123.604 129.922 123.48 129.693 123.294C129.464 123.109 129.28 122.868 129.156 122.591C129.032 122.314 128.972 122.01 128.981 121.703L129.519 103.236L136.749 106.193C136.131 106.649 136.806 107.769 136.806 107.769C136.806 107.769 135.272 108.721 135.947 109.588Z" fill="white"/>
<path d="M138.348 100.807C138.348 100.807 137.857 104.156 136.628 104.352C135.398 104.548 134.847 109.77 133.621 109.588C132.395 109.406 133.207 104.73 133.25 103.824C133.293 102.919 131.914 99.1667 132.943 98.3144C133.972 97.462 137.246 98.3144 137.246 98.3144L138.348 100.807Z" fill="#FBBEBE"/>
<path opacity="0.1" d="M140.947 75.0232L143.263 70.0303C143.263 70.0303 144.188 73.8356 144.188 75.8685C144.188 77.9013 145.478 78.101 145.478 78.101C145.478 78.101 146.891 79.8842 146.146 81.186C145.401 82.4877 145.104 85.7117 145.104 85.7117C145.104 85.7117 145.347 91.878 144.242 92.7304C143.136 93.5828 142.889 95.6192 142.889 95.6192C142.889 95.6192 140.861 99.4887 140.924 100.409C140.987 101.329 138.098 107.559 138.098 107.559C138.098 107.559 139.511 99.8168 131.275 96.4715C131.275 96.4715 131.212 93.8467 131.827 93.1263C132.441 92.4058 133.4 92.0563 132.799 88.4329C132.197 84.8094 132.625 80.4406 132.625 79.5668C132.625 78.693 134.469 73.2472 134.469 73.2472L140.947 75.0232Z" fill="black"/>
<path d="M141.974 69.3164L143.999 70.0297C143.999 70.0297 144.925 73.835 144.925 75.8679C144.925 77.9007 146.214 78.1004 146.214 78.1004C146.214 78.1004 147.627 79.8836 146.882 81.1854C146.137 82.4871 145.837 85.7111 145.837 85.7111C145.837 85.7111 146.084 91.8774 144.978 92.7298C143.872 93.5822 143.642 95.6186 143.642 95.6186C143.642 95.6186 141.614 99.4881 141.677 100.408C141.741 101.328 138.847 107.559 138.847 107.559C138.847 107.559 140.261 99.8162 132.025 96.471C132.025 96.471 131.965 93.8461 132.58 93.1257C133.194 92.4053 134.153 92.0558 133.552 88.4323C132.95 84.8088 133.378 80.44 133.378 79.5662C133.378 78.6925 135.222 73.2466 135.222 73.2466L141.974 69.3164Z" fill="white"/>
<path opacity="0.1" d="M97.2461 198.73C97.2461 198.73 100.473 196.565 102.592 198.138C104.71 199.711 97.2461 198.73 97.2461 198.73Z" fill="black"/>
<path opacity="0.1" d="M122.33 192.037C122.33 192.037 125.187 191.645 127.585 194.401C129.984 197.158 122.33 192.037 122.33 192.037Z" fill="black"/>
<g opacity="0.1">
<path opacity="0.1" d="M126.504 19.562C126.093 19.9437 125.565 20.2111 125.291 20.714C125.057 21.1455 125.05 21.6805 124.863 22.1406C124.676 22.6006 124.132 22.9822 123.751 22.6898C123.664 19.48 122.184 16.4664 120.363 13.8986C119.854 13.1248 119.235 12.4401 118.529 11.8693C117.814 11.2942 116.924 11.0245 116.033 11.1132C115.031 11.2595 114.149 11.987 113.136 12.0797C111.8 12.1974 110.601 11.2095 109.274 11.1632C108.735 11.1675 108.204 11.2952 107.715 11.5376C107.226 11.78 106.792 12.1315 106.441 12.5683C105.744 13.4465 105.226 14.4705 104.921 15.5748C104.396 17.2505 104.11 19.001 104.072 20.7675C104.052 21.7625 103.965 23.0036 103.104 23.3745C103.124 23.6392 103.124 23.9052 103.104 24.1698C103.976 23.8132 104.062 22.5543 104.082 21.5557C104.12 19.7892 104.406 18.0387 104.931 16.363C105.236 15.2587 105.754 14.2346 106.451 13.3565C106.802 12.9197 107.236 12.5681 107.725 12.3251C108.214 12.0822 108.745 11.9535 109.284 11.9478C110.621 11.9977 111.823 12.9856 113.146 12.8644C114.149 12.7752 115.037 12.0476 116.043 11.9014C116.934 11.8117 117.824 12.0801 118.539 12.6539C119.245 13.2261 119.864 13.9119 120.373 14.6868C122.194 17.2546 123.674 20.2575 123.761 23.478C124.142 23.7704 124.686 23.3852 124.873 22.9287C125.06 22.4722 125.067 21.9373 125.301 21.5022C125.575 20.9993 126.103 20.7283 126.514 20.3502C127.556 19.3909 127.817 17.7753 127.777 16.3095C127.777 16.2631 127.777 16.2203 127.777 16.174C127.71 17.4507 127.392 18.7453 126.504 19.562Z" fill="black"/>
<path opacity="0.1" d="M101.836 19.3124C101.071 18.4101 100.022 17.8038 99.3168 16.848C98.7214 16.0043 98.3821 14.9862 98.3446 13.9307C98.2397 15.2505 98.585 16.5664 99.3168 17.6362C100.022 18.592 101.071 19.1947 101.836 20.097C102.575 20.9791 103.019 22.0979 103.099 23.2782C103.149 22.5605 103.063 21.8393 102.846 21.1579C102.629 20.4764 102.285 19.8487 101.836 19.3124Z" fill="black"/>
<path opacity="0.1" d="M128.423 8.54183C128.225 9.4156 127.875 10.2466 127.714 11.1275C127.618 11.7231 127.583 12.3283 127.611 12.9321C127.622 12.591 127.656 12.2513 127.714 11.9156C127.875 11.0347 128.225 10.2038 128.423 9.33C128.536 8.84778 128.573 8.3488 128.533 7.85352C128.511 8.08544 128.474 8.31544 128.423 8.54183Z" fill="black"/>
</g>
<defs>
<linearGradient id="paint0_linear" x1="41.0923" y1="212.4" x2="41.0923" y2="6.38716" gradientUnits="userSpaceOnUse">
<stop stop-color="#808080" stop-opacity="0.25"/>
<stop offset="0.54" stop-color="#808080" stop-opacity="0.12"/>
<stop offset="1" stop-color="#808080" stop-opacity="0.1"/>
</linearGradient>
</defs>
</svg>
