<svg width="22" height="22" viewBox="0 0 22 22" fill="none" xmlns="http://www.w3.org/2000/svg">
<path fill-rule="evenodd" clip-rule="evenodd" d="M14.6673 8.25065C14.6673 9.22311 14.281 10.1557 13.5934 10.8434C12.9057 11.531 11.9731 11.9173 11.0007 11.9173C10.0282 11.9173 9.09556 11.531 8.40793 10.8434C7.72029 10.1557 7.33398 9.22311 7.33398 8.25065C7.33398 7.27819 7.72029 6.34556 8.40793 5.65793C9.09556 4.97029 10.0282 4.58398 11.0007 4.58398C11.9731 4.58398 12.9057 4.97029 13.5934 5.65793C14.281 6.34556 14.6673 7.27819 14.6673 8.25065V8.25065ZM12.834 8.25065C12.834 8.73688 12.6408 9.2032 12.297 9.54701C11.9532 9.89083 11.4869 10.084 11.0007 10.084C10.5144 10.084 10.0481 9.89083 9.70429 9.54701C9.36047 9.2032 9.16732 8.73688 9.16732 8.25065C9.16732 7.76442 9.36047 7.29811 9.70429 6.95429C10.0481 6.61047 10.5144 6.41732 11.0007 6.41732C11.4869 6.41732 11.9532 6.61047 12.297 6.95429C12.6408 7.29811 12.834 7.76442 12.834 8.25065V8.25065Z" fill="#9B9B9B"/>
<path fill-rule="evenodd" clip-rule="evenodd" d="M11.0003 0.916992C5.43158 0.916992 0.916992 5.43158 0.916992 11.0003C0.916992 16.5691 5.43158 21.0837 11.0003 21.0837C16.5691 21.0837 21.0837 16.5691 21.0837 11.0003C21.0837 5.43158 16.5691 0.916992 11.0003 0.916992ZM2.75033 11.0003C2.75033 12.9162 3.40391 14.6798 4.49933 16.0805C5.26862 15.0702 6.26107 14.2515 7.39914 13.6883C8.53721 13.125 9.79009 12.8326 11.0599 12.8337C12.3133 12.8325 13.5504 13.1174 14.677 13.6667C15.8036 14.216 16.79 15.0153 17.5609 16.0035C18.3552 14.9618 18.8899 13.7459 19.121 12.4565C19.352 11.1671 19.2727 9.84123 18.8896 8.58856C18.5065 7.33589 17.8306 6.19245 16.9179 5.25286C16.0051 4.31327 14.8817 3.60453 13.6407 3.18529C12.3996 2.76605 11.0766 2.64837 9.78103 2.84197C8.48547 3.03557 7.25463 3.53489 6.19036 4.29862C5.12609 5.06236 4.25899 6.06854 3.66079 7.23392C3.06259 8.3993 2.75049 9.69038 2.75033 11.0003V11.0003ZM11.0003 19.2503C9.10645 19.2532 7.26974 18.6016 5.80099 17.406C6.39218 16.5597 7.17905 15.8687 8.09467 15.3918C9.01029 14.9149 10.0275 14.6663 11.0599 14.667C12.0794 14.6662 13.0844 14.9086 13.9913 15.3741C14.8983 15.8397 15.6812 16.5149 16.2748 17.3437C14.7947 18.5781 12.9277 19.253 11.0003 19.2503V19.2503Z" fill="#9B9B9B"/>
</svg>
