<svg width="25" height="24" viewBox="0 0 25 24" fill="none" xmlns="http://www.w3.org/2000/svg">
<path d="M14.25 12C13.155 12 12.25 11.095 12.25 10C12.25 9.646 12.353 9.317 12.518 9.027C12.428 9.02 12.342 9 12.25 9C11.456 9.00524 10.6959 9.32299 10.1345 9.88447C9.57299 10.4459 9.25524 11.206 9.25 12C9.25 13.642 10.608 15 12.25 15C13.891 15 15.25 13.642 15.25 12C15.25 11.908 15.23 11.822 15.223 11.732C14.933 11.897 14.604 12 14.25 12Z" fill="black"/>
<path d="M12.2493 5C4.61631 5 2.32231 11.617 2.30131 11.684L2.19531 12L2.30031 12.316C2.32231 12.383 4.61631 19 12.2493 19C19.8823 19 22.1763 12.383 22.1973 12.316L22.3033 12L22.1983 11.684C22.1763 11.617 19.8823 5 12.2493 5ZM12.2493 17C6.89831 17 4.82531 13.154 4.32331 12C4.82731 10.842 6.90131 7 12.2493 7C17.6003 7 19.6733 10.846 20.1753 12C19.6713 13.158 17.5973 17 12.2493 17Z" fill="black"/>
</svg>
