<svg width="18" height="16" viewBox="0 0 18 16" fill="none" xmlns="http://www.w3.org/2000/svg">
<path d="M3.82485 6.21369C3.39919 5.75734 2.82908 5.50483 2.23732 5.51053C1.64556 5.51624 1.07949 5.77971 0.661041 6.2442C0.242587 6.70869 0.00522756 7.33703 8.53176e-05 7.99389C-0.00505692 8.65075 0.22243 9.28358 0.633549 9.75607L5.14742 14.7665C5.57065 15.2362 6.14461 15.5 6.74307 15.5C7.34153 15.5 7.91548 15.2362 8.33872 14.7665L17.3665 4.74563C17.7776 4.27314 18.0051 3.64031 17.9999 2.98345C17.9948 2.32659 17.7574 1.69825 17.339 1.23376C16.9205 0.769275 16.3544 0.505803 15.7627 0.500095C15.1709 0.494387 14.6008 0.7469 14.1751 1.20325L9.66128 6.21369C8.10117 7.94542 5.38496 7.94542 3.82485 6.21369Z" fill="black"/>
</svg>
