<svg width="25" height="25" viewBox="0 0 25 25" fill="none" xmlns="http://www.w3.org/2000/svg">
<path d="M22.25 19.5V9.5C22.25 8.96957 22.0393 8.46086 21.6642 8.08579C21.2891 7.71071 20.7804 7.5 20.25 7.5H13.486C13.1145 7.49999 12.7504 7.39651 12.4344 7.20116C12.1184 7.00581 11.8631 6.72631 11.697 6.394L10.803 4.606C10.6369 4.27353 10.3814 3.99394 10.0652 3.79858C9.74902 3.60322 9.38466 3.49983 9.013 3.5H4.25C3.71957 3.5 3.21086 3.71071 2.83579 4.08579C2.46071 4.46086 2.25 4.96957 2.25 5.5V19.5C2.25 20.0304 2.46071 20.5391 2.83579 20.9142C3.21086 21.2893 3.71957 21.5 4.25 21.5H20.25C20.7804 21.5 21.2891 21.2893 21.6642 20.9142C22.0393 20.5391 22.25 20.0304 22.25 19.5Z" stroke="#2F855A" stroke-width="2" stroke-linecap="round" stroke-linejoin="round"/>
<path d="M12.25 14.5H9.25M12.25 11.5V14.5V11.5ZM12.25 14.5V17.5V14.5ZM12.25 14.5H15.25H12.25Z" stroke="#2F855A" stroke-width="2" stroke-linecap="round"/>
</svg>
