<svg width="25" height="25" viewBox="0 0 25 25" fill="none" xmlns="http://www.w3.org/2000/svg">
<path d="M24.2214 3.03186C24.3674 3.17831 24.4494 3.37665 24.4494 3.58343C24.4494 3.7902 24.3674 3.98855 24.2214 4.13499L22.5917 5.76624L19.4667 2.64124L21.0964 1.00999C21.2429 0.863528 21.4416 0.78125 21.6488 0.78125C21.8559 0.78125 22.0546 0.863528 22.2011 1.00999L24.2214 3.0303V3.03186ZM21.4871 6.86936L18.3621 3.74436L7.71674 14.3912C7.63075 14.4772 7.56601 14.5821 7.52768 14.6975L6.26987 18.4694C6.24706 18.5381 6.24382 18.6119 6.26051 18.6824C6.27721 18.7529 6.31318 18.8173 6.36441 18.8686C6.41564 18.9198 6.48011 18.9558 6.5506 18.9725C6.6211 18.9892 6.69486 18.9859 6.76362 18.9631L10.5355 17.7053C10.6508 17.6674 10.7556 17.6032 10.8417 17.5178L21.4871 6.87093V6.86936Z" fill="white"/>
<path fill-rule="evenodd" clip-rule="evenodd" d="M1.5625 21.0938C1.5625 21.7154 1.80943 22.3115 2.24897 22.751C2.68851 23.1906 3.28465 23.4375 3.90625 23.4375H21.0938C21.7154 23.4375 22.3115 23.1906 22.751 22.751C23.1906 22.3115 23.4375 21.7154 23.4375 21.0938V11.7188C23.4375 11.5115 23.3552 11.3128 23.2087 11.1663C23.0622 11.0198 22.8635 10.9375 22.6562 10.9375C22.449 10.9375 22.2503 11.0198 22.1038 11.1663C21.9573 11.3128 21.875 11.5115 21.875 11.7188V21.0938C21.875 21.301 21.7927 21.4997 21.6462 21.6462C21.4997 21.7927 21.301 21.875 21.0938 21.875H3.90625C3.69905 21.875 3.50034 21.7927 3.35382 21.6462C3.20731 21.4997 3.125 21.301 3.125 21.0938V3.90625C3.125 3.69905 3.20731 3.50034 3.35382 3.35382C3.50034 3.20731 3.69905 3.125 3.90625 3.125H14.0625C14.2697 3.125 14.4684 3.04269 14.6149 2.89618C14.7614 2.74966 14.8438 2.55095 14.8438 2.34375C14.8438 2.13655 14.7614 1.93784 14.6149 1.79132C14.4684 1.64481 14.2697 1.5625 14.0625 1.5625H3.90625C3.28465 1.5625 2.68851 1.80943 2.24897 2.24897C1.80943 2.68851 1.5625 3.28465 1.5625 3.90625V21.0938Z" fill="white"/>
</svg>
