<svg width="26" height="25" viewBox="0 0 26 25" fill="none" xmlns="http://www.w3.org/2000/svg">
<path d="M24.7214 3.03186C24.8674 3.17831 24.9494 3.37665 24.9494 3.58343C24.9494 3.7902 24.8674 3.98855 24.7214 4.13499L23.0917 5.76624L19.9667 2.64124L21.5964 1.00999C21.7429 0.863528 21.9416 0.78125 22.1488 0.78125C22.3559 0.78125 22.5546 0.863528 22.7011 1.00999L24.7214 3.0303V3.03186ZM21.9871 6.86936L18.8621 3.74436L8.21674 14.3912C8.13075 14.4772 8.06601 14.5821 8.02768 14.6975L6.76987 18.4694C6.74706 18.5381 6.74382 18.6119 6.76051 18.6824C6.77721 18.7529 6.81318 18.8173 6.86441 18.8686C6.91564 18.9198 6.98011 18.9558 7.0506 18.9725C7.1211 18.9892 7.19486 18.9859 7.26362 18.9631L11.0355 17.7053C11.1508 17.6674 11.2556 17.6032 11.3417 17.5178L21.9871 6.87093V6.86936Z" fill="#348B5E"/>
<path fill-rule="evenodd" clip-rule="evenodd" d="M2.0625 21.0938C2.0625 21.7154 2.30943 22.3115 2.74897 22.751C3.18851 23.1906 3.78465 23.4375 4.40625 23.4375H21.5938C22.2154 23.4375 22.8115 23.1906 23.251 22.751C23.6906 22.3115 23.9375 21.7154 23.9375 21.0938V11.7188C23.9375 11.5115 23.8552 11.3128 23.7087 11.1663C23.5622 11.0198 23.3635 10.9375 23.1562 10.9375C22.949 10.9375 22.7503 11.0198 22.6038 11.1663C22.4573 11.3128 22.375 11.5115 22.375 11.7188V21.0938C22.375 21.301 22.2927 21.4997 22.1462 21.6462C21.9997 21.7927 21.801 21.875 21.5938 21.875H4.40625C4.19905 21.875 4.00034 21.7927 3.85382 21.6462C3.70731 21.4997 3.625 21.301 3.625 21.0938V3.90625C3.625 3.69905 3.70731 3.50034 3.85382 3.35382C4.00034 3.20731 4.19905 3.125 4.40625 3.125H14.5625C14.7697 3.125 14.9684 3.04269 15.1149 2.89618C15.2614 2.74966 15.3438 2.55095 15.3438 2.34375C15.3438 2.13655 15.2614 1.93784 15.1149 1.79132C14.9684 1.64481 14.7697 1.5625 14.5625 1.5625H4.40625C3.78465 1.5625 3.18851 1.80943 2.74897 2.24897C2.30943 2.68851 2.0625 3.28465 2.0625 3.90625V21.0938Z" fill="#348B5E"/>
</svg>
