<svg width="19" height="18" viewBox="0 0 19 18" fill="none" xmlns="http://www.w3.org/2000/svg">
<path d="M10.5415 0C14.9382 0 18.5 4.05 18.5 9C18.5 13.95 14.9382 18 10.5415 18C7.75088 18 5.31007 16.362 3.88693 13.887L5.14311 12.762C6.26413 14.823 8.25972 16.2 10.5495 16.2C12.2364 16.2 13.8542 15.4414 15.047 14.0912C16.2398 12.7409 16.9099 10.9096 16.9099 9C16.9099 7.09044 16.2398 5.25909 15.047 3.90883C13.8542 2.55857 12.2364 1.8 10.5495 1.8C7.30565 1.8 4.63428 4.554 4.2447 8.1H6.43905L3.46555 11.457L0.5 8.1H2.63869C3.03622 3.555 6.42315 0 10.5415 0ZM12.8949 7.416C13.2924 7.425 13.6184 7.785 13.6184 8.244V12.393C13.6184 12.843 13.2924 13.221 12.8869 13.221H8.49028C8.08481 13.221 7.75883 12.843 7.75883 12.393V8.244C7.75883 7.785 8.08481 7.425 8.48233 7.416V6.507C8.48233 5.13 9.47615 4.014 10.6846 4.014C11.9011 4.014 12.8949 5.13 12.8949 6.507V7.416ZM10.6846 5.274C10.0883 5.274 9.59541 5.823 9.59541 6.507V7.416H11.7818V6.507C11.7818 5.823 11.2889 5.274 10.6846 5.274Z" fill="black"/>
</svg>
